Commissioner-LoudRegular.ufo
<glyph name="numbersign" format="2">
  <advance width="1365.536842105263"/>
  <unicode hex="0023"/>
  <outline>
    <contour>
      <point x="34.526315789473685" y="300.2315789473684" type="line"/>
      <point x="159.83157894736843" y="303.3263157894737"/>
      <point x="298.7578947368421" y="306.42105263157896"/>
      <point x="380.8" y="307.5157894736842" type="curve"/>
      <point x="872.0421052631579" y="307.5157894736842" type="line"/>
      <point x="954.0842105263157" y="306.42105263157896"/>
      <point x="1093.0105263157895" y="303.3263157894737"/>
      <point x="1218.3157894736842" y="300.2315789473684" type="curve"/>
      <point x="1218.3157894736842" y="443.0526315789474" type="line"/>
      <point x="1093.0105263157895" y="439.9578947368421"/>
      <point x="954.0842105263157" y="436.86315789473684"/>
      <point x="872.0421052631579" y="435.7684210526316" type="curve"/>
      <point x="380.8" y="435.7684210526316" type="line"/>
      <point x="298.7578947368421" y="436.86315789473684"/>
      <point x="159.83157894736843" y="439.9578947368421"/>
      <point x="34.526315789473685" y="443.0526315789474" type="curve"/>
    </contour>
    <contour>
      <point x="227.53684210526313" y="0.0" type="curve"/>
      <point x="384.5684210526316" y="0.0" type="line"/>
      <point x="408.1894736842105" y="135.09473684210525"/>
      <point x="428.90526315789475" y="254.92631578947368"/>
      <point x="457.9789473684211" y="423.4736842105263" type="curve"/>
      <point x="549.4105263157895" y="877.3052631578947" type="line"/>
      <point x="587.957894736842" y="1053.4947368421053"/>
      <point x="615.4105263157895" y="1170.9473684210527"/>
      <point x="647.4105263157895" y="1316.9473684210527" type="curve"/>
      <point x="491.4736842105263" y="1316.9473684210527" type="line"/>
      <point x="467.30526315789473" y="1172.5684210526315"/>
      <point x="447.6842105263158" y="1056.7578947368422"/>
      <point x="415.7052631578947" y="880.2105263157895" type="curve"/>
      <point x="324.2736842105263" y="423.4736842105263" type="line"/>
      <point x="285.17894736842106" y="253.83157894736843"/>
      <point x="257.5368421052632" y="132.90526315789472"/>
    </contour>
    <contour>
      <point x="147.22105263157894" y="867.8947368421053" type="line"/>
      <point x="272.5263157894737" y="870.9894736842106"/>
      <point x="411.4526315789474" y="874.0842105263158"/>
      <point x="493.4947368421053" y="875.1789473684211" type="curve"/>
      <point x="984.7368421052631" y="875.1789473684211" type="line"/>
      <point x="1066.778947368421" y="874.0842105263158"/>
      <point x="1205.7052631578947" y="870.9894736842106"/>
      <point x="1331.0105263157895" y="867.8947368421053" type="curve"/>
      <point x="1331.0105263157895" y="1010.7157894736841" type="line"/>
      <point x="1205.7052631578947" y="1007.6210526315789"/>
      <point x="1066.778947368421" y="1004.5263157894736"/>
      <point x="984.7368421052631" y="1003.4315789473684" type="curve"/>
      <point x="493.4947368421053" y="1003.4315789473684" type="line"/>
      <point x="411.4526315789474" y="1004.5263157894736"/>
      <point x="272.5263157894737" y="1007.6210526315789"/>
      <point x="147.22105263157894" y="1010.7157894736841" type="curve"/>
    </contour>
    <contour>
      <point x="703.957894736842" y="0.0" type="curve"/>
      <point x="860.9894736842106" y="0.0" type="line"/>
      <point x="884.6105263157896" y="135.09473684210525"/>
      <point x="905.3263157894737" y="254.92631578947368"/>
      <point x="934.4" y="423.4736842105263" type="curve"/>
      <point x="1025.8315789473684" y="877.3052631578947" type="line"/>
      <point x="1064.378947368421" y="1053.4947368421053"/>
      <point x="1091.8315789473684" y="1170.9473684210527"/>
      <point x="1123.8315789473684" y="1316.9473684210527" type="curve"/>
      <point x="967.8947368421052" y="1316.9473684210527" type="line"/>
      <point x="943.7263157894737" y="1172.5684210526315"/>
      <point x="924.1052631578948" y="1056.7578947368422"/>
      <point x="892.1263157894737" y="880.2105263157895" type="curve"/>
      <point x="800.6947368421053" y="423.4736842105263" type="line"/>
      <point x="761.6" y="253.83157894736843"/>
      <point x="733.957894736842" y="132.90526315789472"/>
    </contour>
  </outline>
</glyph>
<glyph name="percent" format="2">
  <advance width="1761.0526315789473"/>
  <unicode hex="0025"/>
  <outline>
    <contour>
      <point x="375.57894736842104" y="0.0" type="curve"/>
      <point x="557.3894736842105" y="0.0" type="line"/>
      <point x="636.8421052631579" y="145.45263157894738"/>
      <point x="708.2947368421053" y="275.4526315789474"/>
      <point x="808.2947368421053" y="458.5473684210526" type="curve"/>
      <point x="1092.8631578947368" y="954.0" type="line"/>
      <point x="1205.7894736842104" y="1142.9052631578948"/>
      <point x="1285.2631578947369" y="1273.6421052631579"/>
      <point x="1376.5473684210526" y="1426.0" type="curve"/>
      <point x="1195.8315789473686" y="1426.0" type="line"/>
      <point x="1112.9263157894738" y="1273.6421052631579"/>
      <point x="1041.2842105263157" y="1142.9052631578948"/>
      <point x="938.3789473684211" y="954.0" type="curve"/>
      <point x="653.8105263157895" y="458.5473684210526" type="line"/>
      <point x="542.3368421052631" y="274.5473684210526"/>
      <point x="463.9578947368421" y="146.0"/>
    </contour>
    <contour>
      <point x="440.7578947368421" y="742.8631578947368" type="curve" smooth="yes"/>
      <point x="662.2736842105263" y="742.8631578947368"/>
      <point x="813.5578947368421" y="880.8631578947368"/>
      <point x="813.5578947368421" y="1096.7157894736843" type="curve" smooth="yes"/>
      <point x="813.5578947368421" y="1299.4526315789474"/>
      <point x="662.2736842105263" y="1452.1894736842105"/>
      <point x="442.7578947368421" y="1452.1894736842105" type="curve" smooth="yes"/>
      <point x="221.78947368421052" y="1452.1894736842105"/>
      <point x="69.05263157894737" y="1299.4526315789474"/>
      <point x="69.05263157894737" y="1096.7157894736843" type="curve" smooth="yes"/>
      <point x="69.05263157894737" y="880.8631578947368"/>
      <point x="221.78947368421052" y="742.8631578947368"/>
    </contour>
    <contour>
      <point x="441.30526315789473" y="859.6" type="curve"/>
      <point x="295.6" y="865.2421052631579"/>
      <point x="201.11578947368423" y="948.2736842105263"/>
      <point x="201.11578947368423" y="1095.0736842105264" type="curve" smooth="yes"/>
      <point x="201.11578947368423" y="1235.3263157894737"/>
      <point x="294.5052631578947" y="1328.7157894736843"/>
      <point x="442.7578947368421" y="1334.9052631578948" type="curve"/>
      <point x="591.0105263157894" y="1328.7157894736843"/>
      <point x="681.4947368421052" y="1234.2315789473685"/>
      <point x="681.4947368421052" y="1095.0736842105264" type="curve" smooth="yes"/>
      <point x="681.4947368421052" y="948.2736842105263"/>
      <point x="590.4631578947368" y="865.2421052631579"/>
    </contour>
    <contour>
      <point x="1313.7263157894738" y="-21.83157894736842" type="curve" smooth="yes"/>
      <point x="1535.2421052631578" y="-21.83157894736842"/>
      <point x="1686.5263157894738" y="116.16842105263157"/>
      <point x="1686.5263157894738" y="332.0210526315789" type="curve" smooth="yes"/>
      <point x="1686.5263157894738" y="534.7578947368421"/>
      <point x="1535.2421052631578" y="687.4947368421052"/>
      <point x="1315.7263157894736" y="687.4947368421052" type="curve" smooth="yes"/>
      <point x="1094.7578947368422" y="687.4947368421052"/>
      <point x="942.021052631579" y="534.7578947368421"/>
      <point x="942.021052631579" y="332.0210526315789" type="curve" smooth="yes"/>
      <point x="942.021052631579" y="116.16842105263157"/>
      <point x="1094.7578947368422" y="-21.83157894736842"/>
    </contour>
    <contour>
      <point x="1313.7263157894738" y="94.90526315789474" type="curve"/>
      <point x="1168.0210526315789" y="100.54736842105264"/>
      <point x="1073.536842105263" y="183.57894736842107"/>
      <point x="1073.536842105263" y="330.37894736842105" type="curve" smooth="yes"/>
      <point x="1073.536842105263" y="470.63157894736844"/>
      <point x="1166.9263157894736" y="564.021052631579"/>
      <point x="1315.178947368421" y="570.2105263157895" type="curve"/>
      <point x="1463.4315789473685" y="564.021052631579"/>
      <point x="1553.9157894736843" y="469.5368421052632"/>
      <point x="1553.9157894736843" y="330.37894736842105" type="curve" smooth="yes"/>
      <point x="1553.9157894736843" y="183.57894736842107"/>
      <point x="1462.8842105263159" y="100.54736842105264"/>
    </contour>
  </outline>
</glyph>
<glyph name="ampersand" format="2">
  <advance width="1470.2068965517242"/>
  <unicode hex="0026"/>
  <outline>
    <contour>
      <point x="1210.6666666666667" y="0.0" type="curve"/>
      <point x="1451.7241379310346" y="0.0" type="line"/>
      <point x="1328.5747126436781" y="120.73563218390805"/>
      <point x="1205.4252873563219" y="242.27586206896552"/>
      <point x="1080.2758620689656" y="363.816091954023" type="curve"/>
      <point x="626.5747126436781" y="821.448275862069" type="line" smooth="yes"/>
      <point x="508.8965517241379" y="938.7126436781609"/>
      <point x="458.04597701149424" y="1019.1494252873563"/>
      <point x="458.04597701149424" y="1119.2413793103449" type="curve" smooth="yes"/>
      <point x="458.04597701149424" y="1235.7471264367816"/>
      <point x="530.5057471264367" y="1317.057471264368"/>
      <point x="651.0344827586207" y="1322.2528735632184" type="curve"/>
      <point x="759.9310344827586" y="1317.057471264368"/>
      <point x="840.7816091954023" y="1245.4022988505747"/>
      <point x="840.7816091954023" y="1133.2643678160919" type="curve" smooth="yes"/>
      <point x="840.7816091954023" y="1047.9080459770114"/>
      <point x="714.2988505747127" y="945.5172413793102"/>
      <point x="583.3793103448276" y="845.0804597701149" type="curve"/>
      <point x="676.3678160919541" y="748.8735632183908" type="line"/>
      <point x="834.7586206896552" y="874.0"/>
      <point x="996.0229885057471" y="999.1724137931035"/>
      <point x="996.0229885057471" y="1136.8505747126437" type="curve" smooth="yes"/>
      <point x="996.0229885057471" y="1336.0"/>
      <point x="838.9195402298851" y="1452.3908045977012"/>
      <point x="643.8620689655172" y="1452.3908045977012" type="curve" smooth="yes"/>
      <point x="448.367816091954" y="1452.3908045977012"/>
      <point x="290.85057471264366" y="1326.7816091954023"/>
      <point x="290.85057471264366" y="1118.0459770114942" type="curve" smooth="yes"/>
      <point x="290.85057471264366" y="973.2183908045977"/>
      <point x="368.8735632183908" y="864.0229885057471"/>
      <point x="492.91954022988506" y="738.0" type="curve" smooth="yes"/>
      <point x="953.7931034482758" y="272.0" type="line"/>
      <point x="1039.816091954023" y="182.0"/>
      <point x="1126.6436781609195" y="88.0"/>
    </contour>
    <contour>
      <point x="537.6551724137931" y="-20.39080459770115" type="curve" smooth="yes"/>
      <point x="670.8045977011494" y="-20.39080459770115"/>
      <point x="795.2413793103449" y="67.63218390804597"/>
      <point x="993.6781609195402" y="213.7471264367816" type="curve"/>
      <point x="1018.8735632183908" y="213.7471264367816" type="line"/>
      <point x="1010.0919540229885" y="250.0919540229885" type="line"/>
      <point x="927.8160919540229" y="342.66666666666663" type="line"/>
      <point x="747.2873563218391" y="202.09195402298852"/>
      <point x="622.0919540229885" y="121.70114942528737"/>
      <point x="557.9770114942529" y="121.70114942528737" type="curve"/>
      <point x="371.37931034482756" y="126.89655172413795"/>
      <point x="260.8965517241379" y="227.77011494252872"/>
      <point x="260.8965517241379" y="384.71264367816093" type="curve" smooth="yes"/>
      <point x="260.8965517241379" y="544.0689655172414"/>
      <point x="375.8390804597701" y="648.919540229885"/>
      <point x="535.5632183908046" y="721.3793103448276" type="curve"/>
      <point x="462.5287356321839" y="829.5632183908046" type="line"/>
      <point x="283.7471264367816" y="749.5632183908046"/>
      <point x="98.48275862068965" y="613.1724137931035"/>
      <point x="98.48275862068965" y="369.17241379310343" type="curve" smooth="yes"/>
      <point x="98.48275862068965" y="152.41379310344826"/>
      <point x="244.8735632183908" y="-20.39080459770115"/>
    </contour>
    <contour>
      <point x="1100.2298850574712" y="329.4712643678161" type="line"/>
      <point x="1192.9885057471265" y="450.6896551724138"/>
      <point x="1282.551724137931" y="567.9080459770115"/>
      <point x="1374.1149425287356" y="690.3218390804598" type="curve"/>
      <point x="1220.4597701149423" y="787.2873563218391" type="line"/>
      <point x="1146.8505747126437" y="663.6781609195402"/>
      <point x="1077.2413793103449" y="547.6781609195402"/>
      <point x="1002.0229885057472" y="420.45977011494256" type="curve"/>
    </contour>
  </outline>
</glyph>
<glyph name="quotesingle" format="2">
  <advance width="403.7684210526316"/>
  <unicode hex="0027"/>
  <outline>
    <contour>
      <point x="117.9578947368421" y="873.4315789473684" type="curve"/>
      <point x="243.30526315789473" y="875.4315789473684" type="line"/>
      <point x="249.32631578947368" y="1081.6842105263158"/>
      <point x="264.61052631578946" y="1286.842105263158"/>
      <point x="278.8" y="1488.5473684210526" type="curve"/>
      <point x="80.46315789473684" y="1484.3578947368421" type="line"/>
      <point x="96.65263157894736" y="1283.2"/>
      <point x="111.93684210526317" y="1080.042105263158"/>
    </contour>
  </outline>
</glyph>
<glyph name="asterisk" format="2">
  <advance width="946.1052631578948"/>
  <unicode hex="002A"/>
  <outline>
    <contour>
      <point x="827.1157894736842" y="742.6315789473684" type="curve"/>
      <point x="894.6736842105263" y="855.1789473684211" type="line"/>
      <point x="761.7473684210527" y="926.8"/>
      <point x="626.8210526315789" y="997.3263157894737"/>
      <point x="493.89473684210526" y="1068.9473684210527" type="curve"/>
      <point x="368.4421052631579" y="1156.2315789473685"/>
      <point x="242.9894736842105" y="1243.157894736842"/>
      <point x="118.98947368421054" y="1328.9894736842105" type="curve"/>
      <point x="51.43157894736842" y="1215.8947368421052" type="line"/>
      <point x="184.3578947368421" y="1144.2736842105264"/>
      <point x="318.7368421052632" y="1073.7473684210527"/>
      <point x="453.66315789473686" y="1000.6736842105263" type="curve"/>
      <point x="577.6631578947369" y="914.8421052631579"/>
      <point x="703.1157894736842" y="828.4631578947368"/>
    </contour>
    <contour>
      <point x="119.53684210526316" y="742.0842105263158" type="line"/>
      <point x="243.53684210526316" y="828.4631578947368"/>
      <point x="368.4421052631579" y="914.8421052631579"/>
      <point x="493.89473684210526" y="1002.6736842105263" type="curve"/>
      <point x="626.8210526315789" y="1073.7473684210527"/>
      <point x="761.2" y="1145.3684210526317"/>
      <point x="894.1263157894737" y="1216.4421052631578" type="curve"/>
      <point x="826.5684210526316" y="1329.536842105263" type="line"/>
      <point x="702.5684210526316" y="1243.157894736842"/>
      <point x="577.6631578947369" y="1156.778947368421"/>
      <point x="453.66315789473686" y="1070.4" type="curve"/>
      <point x="319.2842105263158" y="997.8736842105263"/>
      <point x="184.3578947368421" y="926.8"/>
      <point x="51.43157894736842" y="855.7263157894737" type="curve"/>
    </contour>
    <contour>
      <point x="406.67368421052635" y="580.8842105263158" type="curve"/>
      <point x="539.4315789473684" y="580.8842105263158" type="line"/>
      <point x="530.5052631578947" y="732.5263157894736"/>
      <point x="521.0315789473684" y="884.1684210526316"/>
      <point x="512.1052631578948" y="1037.2631578947369" type="curve"/>
      <point x="521.0315789473684" y="1187.4526315789474"/>
      <point x="529.957894736842" y="1339.0947368421052"/>
      <point x="538.8842105263158" y="1490.7368421052631" type="curve"/>
      <point x="406.67368421052635" y="1490.7368421052631" type="line"/>
      <point x="415.6" y="1339.0947368421052"/>
      <point x="425.0736842105263" y="1187.4526315789474"/>
      <point x="434.0" y="1037.2631578947369" type="curve"/>
      <point x="425.0736842105263" y="884.1684210526316"/>
      <point x="415.6" y="732.5263157894736"/>
    </contour>
  </outline>
</glyph>
<glyph name="plus" format="2">
  <advance width="1176.421052631579"/>
  <unicode hex="002B"/>
  <outline>
    <contour>
      <point x="505.4947368421053" y="118.50526315789473" type="curve"/>
      <point x="670.9263157894736" y="118.50526315789473" type="line"/>
      <point x="667.8315789473684" y="243.81052631578947"/>
      <point x="664.7368421052631" y="382.7368421052632"/>
      <point x="663.6421052631579" y="464.77894736842103" type="curve"/>
      <point x="663.6421052631579" y="730.5473684210526" type="line"/>
      <point x="664.7368421052631" y="812.5894736842105"/>
      <point x="667.8315789473684" y="951.5157894736842"/>
      <point x="670.9263157894736" y="1076.821052631579" type="curve"/>
      <point x="505.4947368421053" y="1076.821052631579" type="line"/>
      <point x="508.5894736842106" y="951.5157894736842"/>
      <point x="511.68421052631584" y="812.5894736842105"/>
      <point x="512.7789473684211" y="730.5473684210526" type="curve"/>
      <point x="512.7789473684211" y="464.77894736842103" type="line"/>
      <point x="511.68421052631584" y="382.7368421052632"/>
      <point x="508.5894736842106" y="243.81052631578947"/>
    </contour>
    <contour>
      <point x="123.57894736842105" y="516.5894736842106" type="line"/>
      <point x="248.8842105263158" y="519.6842105263158"/>
      <point x="387.81052631578945" y="522.7789473684211"/>
      <point x="469.85263157894735" y="523.8736842105263" type="curve"/>
      <point x="706.5684210526316" y="523.8736842105263" type="line"/>
      <point x="788.6105263157895" y="522.7789473684211"/>
      <point x="927.5368421052632" y="519.6842105263158"/>
      <point x="1052.842105263158" y="516.5894736842106" type="curve"/>
      <point x="1052.842105263158" y="678.7368421052631" type="line"/>
      <point x="927.5368421052632" y="675.6421052631579"/>
      <point x="788.6105263157895" y="672.5473684210526"/>
      <point x="706.5684210526316" y="671.4526315789474" type="curve"/>
      <point x="469.85263157894735" y="671.4526315789474" type="line"/>
      <point x="387.81052631578945" y="672.5473684210526"/>
      <point x="248.8842105263158" y="675.6421052631579"/>
      <point x="123.57894736842105" y="678.7368421052631" type="curve"/>
    </contour>
  </outline>
</glyph>
<glyph name="comma" format="2">
  <advance width="461.3894736842105"/>
  <unicode hex="002C"/>
  <outline>
    <contour>
      <point x="89.72631578947369" y="-314.0" type="curve"/>
      <point x="179.5157894736842" y="-311.4526315789474" type="line"/>
      <point x="240.4421052631579" y="-188.94736842105266"/>
      <point x="357.6421052631579" y="26.210526315789473"/>
      <point x="357.6421052631579" y="111.53684210526316" type="curve" smooth="yes"/>
      <point x="357.6421052631579" y="184.16842105263157"/>
      <point x="324.69473684210527" y="238.42105263157896"/>
      <point x="251.6842105263158" y="245.34736842105264" type="curve"/>
      <point x="150.96842105263158" y="238.96842105263158" type="line"/>
      <point x="156.8" y="174.0"/>
      <point x="163.53684210526316" y="109.03157894736842"/>
      <point x="167.7263157894737" y="47.347368421052636" type="curve"/>
      <point x="144.82105263157894" y="-69.93684210526315"/>
      <point x="118.08421052631579" y="-196.54736842105262"/>
    </contour>
  </outline>
</glyph>
<glyph name="hyphen" format="2">
  <advance width="845.4736842105264"/>
  <unicode hex="002D"/>
  <outline>
    <contour>
      <point x="123.57894736842105" y="513.8526315789475" type="line"/>
      <point x="232.14736842105262" y="516.9473684210527"/>
      <point x="351.4315789473684" y="520.042105263158"/>
      <point x="422.7368421052632" y="521.1368421052632" type="curve"/>
      <point x="494.0421052631579" y="520.042105263158"/>
      <point x="613.3263157894737" y="516.9473684210527"/>
      <point x="721.8947368421053" y="513.8526315789475" type="curve"/>
      <point x="721.8947368421053" y="676.0" type="line"/>
      <point x="613.3263157894737" y="672.9052631578948"/>
      <point x="494.0421052631579" y="669.8105263157895"/>
      <point x="422.7368421052632" y="668.7157894736843" type="curve"/>
      <point x="351.4315789473684" y="669.8105263157895"/>
      <point x="232.14736842105262" y="672.9052631578948"/>
      <point x="123.57894736842105" y="676.0" type="curve"/>
    </contour>
  </outline>
</glyph>
<glyph name="slash" format="2">
  <advance width="901.7263157894737"/>
  <unicode hex="002F"/>
  <outline>
    <contour>
      <point x="53.01052631578947" y="0.0" type="curve"/>
      <point x="240.31578947368422" y="0.0" type="line"/>
      <point x="299.74736842105267" y="148.0"/>
      <point x="349.7263157894737" y="272.0"/>
      <point x="423.5157894736842" y="456.0" type="curve"/>
      <point x="633.2842105263159" y="948.0" type="line"/>
      <point x="718.5473684210526" y="1138.0"/>
      <point x="776.3578947368421" y="1265.4526315789474"/>
      <point x="848.7157894736843" y="1426.0" type="curve"/>
      <point x="661.9578947368421" y="1426.0" type="line"/>
      <point x="600.5263157894736" y="1273.4526315789474"/>
      <point x="548.5473684210527" y="1143.4526315789474"/>
      <point x="471.30526315789473" y="952.0" type="curve"/>
      <point x="259.53684210526313" y="456.0" type="line"/>
      <point x="176.2736842105263" y="273.6421052631579"/>
      <point x="119.91578947368421" y="147.6421052631579"/>
    </contour>
  </outline>
</glyph>
<glyph name="one" format="2">
  <advance width="860.8842105263159"/>
  <unicode hex="0031"/>
  <outline>
    <contour>
      <point x="109.30526315789474" y="964.9894736842105" type="line"/>
      <point x="256.58947368421053" y="1049.3473684210528"/>
      <point x="404.2315789473684" y="1133.157894736842"/>
      <point x="552.6105263157895" y="1218.0631578947368" type="curve"/>
      <point x="557.5368421052632" y="1377.4736842105262" type="line"/>
      <point x="391.30526315789473" y="1293.1157894736841"/>
      <point x="226.16842105263157" y="1210.757894736842"/>
      <point x="59.93684210526316" y="1126.3999999999999" type="curve"/>
    </contour>
    <contour>
      <point x="458.7578947368421" y="0.0" type="curve"/>
      <point x="655.2" y="0.0" type="line"/>
      <point x="650.4631578947368" y="147.26315789473682"/>
      <point x="646.2736842105263" y="273.9789473684211"/>
      <point x="640.9894736842106" y="437.62105263157895" type="curve"/>
      <point x="640.9894736842106" y="895.0947368421052" type="line"/>
      <point x="645.7263157894737" y="1061.8105263157895"/>
      <point x="650.4631578947368" y="1221.2631578947369"/>
      <point x="655.2" y="1371.2842105263157" type="curve"/>
      <point x="557.5368421052632" y="1377.4736842105262" type="line"/>
      <point x="464.58947368421053" y="1297.1368421052632" type="line"/>
      <point x="466.2315789473684" y="1153.5157894736842"/>
      <point x="469.87368421052633" y="995.9157894736843"/>
      <point x="471.5157894736842" y="868.2736842105263" type="curve"/>
      <point x="471.5157894736842" y="437.62105263157895" type="line"/>
      <point x="466.2315789473684" y="273.9789473684211"/>
      <point x="463.4947368421052" y="147.26315789473682"/>
    </contour>
  </outline>
</glyph>
<glyph name="two" format="2">
  <advance width="1108.9894736842105"/>
  <unicode hex="0032"/>
  <outline>
    <contour>
      <point x="97.2421052631579" y="0.0" type="line"/>
      <point x="1002.6736842105263" y="0.0" type="line"/>
      <point x="1002.6736842105263" y="166.1684210526316" type="line"/>
      <point x="851.8105263157895" y="160.8842105263158"/>
      <point x="700.0421052631579" y="155.60000000000002"/>
      <point x="546.9894736842106" y="149.7684210526316" type="curve"/>
      <point x="268.5263157894737" y="149.7684210526316" type="line"/>
      <point x="294.37894736842105" y="114.61052631578949" type="line"/>
      <point x="516.6736842105263" y="303.7894736842105" type="line"/>
      <point x="818.2315789473685" y="560.4"/>
      <point x="976.3368421052631" y="778.0"/>
      <point x="976.3368421052631" y="1005.0526315789474" type="curve" smooth="yes"/>
      <point x="976.3368421052631" y="1247.0947368421052"/>
      <point x="821.0315789473684" y="1397.4736842105262"/>
      <point x="544.5894736842105" y="1397.4736842105262" type="curve" smooth="yes"/>
      <point x="456.77894736842103" y="1397.4736842105262"/>
      <point x="204.3578947368421" y="1320.9473684210525"/>
      <point x="90.69473684210526" y="1283.1368421052632" type="curve"/>
      <point x="109.26315789473684" y="1110.0631578947368" type="line"/>
      <point x="273.93684210526317" y="1179.1368421052632"/>
      <point x="472.8842105263158" y="1246.9894736842105"/>
      <point x="517.2210526315789" y="1246.9894736842105" type="curve"/>
      <point x="707.0947368421052" y="1243.8947368421052"/>
      <point x="801.578947368421" y="1159.0526315789473"/>
      <point x="801.578947368421" y="986.0842105263158" type="curve" smooth="yes"/>
      <point x="801.578947368421" y="781.0736842105263"/>
      <point x="627.9789473684211" y="588.6105263157895"/>
      <point x="342.4421052631579" y="335.4315789473684" type="curve"/>
      <point x="261.0105263157895" y="268.7368421052632"/>
      <point x="178.67368421052632" y="201.13684210526316"/>
      <point x="97.2421052631579" y="134.4421052631579" type="curve"/>
    </contour>
  </outline>
</glyph>
<glyph name="four" format="2">
  <advance width="1199.5172413793102"/>
  <unicode hex="0034"/>
  <outline>
    <contour>
      <point x="708.5977011494252" y="0.0" type="curve"/>
      <point x="905.3103448275863" y="0.0" type="line"/>
      <point x="900.9195402298851" y="126.7816091954023"/>
      <point x="896.528735632184" y="226.75862068965517"/>
      <point x="890.9425287356322" y="380.735632183908" type="curve"/>
      <point x="890.9425287356322" y="889.5862068965517" type="line"/>
      <point x="896.528735632184" y="1045.5862068965516"/>
      <point x="900.9195402298851" y="1205.5862068965516"/>
      <point x="905.3103448275863" y="1371.5862068965516" type="curve"/>
      <point x="710.5747126436781" y="1371.5862068965516" type="line"/>
      <point x="651.3563218390805" y="1282.367816091954"/>
      <point x="590.1379310344828" y="1189.9540229885058"/>
      <point x="530.919540229885" y="1100.7356321839081" type="curve"/>
      <point x="355.28735632183907" y="851.4942528735633" type="line"/>
      <point x="264.0689655172414" y="727.0574712643679"/>
      <point x="144.04597701149424" y="563.0114942528736"/>
      <point x="60.4367816091954" y="448.98850574712645" type="curve"/>
      <point x="60.4367816091954" y="316.48275862068965" type="line"/>
      <point x="794.8505747126437" y="316.48275862068965" type="line"/>
      <point x="899.6091954022988" y="314.0919540229885"/>
      <point x="1051.9540229885058" y="310.8965517241379"/>
      <point x="1147.5172413793102" y="307.7011494252873" type="curve"/>
      <point x="1147.5172413793102" y="476.11494252873564" type="line"/>
      <point x="1051.9540229885058" y="472.9195402298851"/>
      <point x="899.6091954022988" y="468.52873563218395"/>
      <point x="794.8505747126437" y="466.1379310344828" type="curve"/>
      <point x="766.4597701149426" y="466.1379310344828" type="line"/>
      <point x="198.91954022988506" y="466.1379310344828" type="line"/>
      <point x="214.89655172413794" y="404.6666666666667" type="line"/>
      <point x="276.11494252873564" y="494.6896551724138"/>
      <point x="334.1379310344828" y="582.7126436781609"/>
      <point x="395.35632183908046" y="673.9310344827586" type="curve"/>
      <point x="635.0114942528736" y="1013.6091954022988" type="line"/>
      <point x="708.2298850574713" y="1114.0459770114944"/>
      <point x="781.448275862069" y="1215.287356321839"/>
      <point x="855.8620689655172" y="1316.9195402298851" type="curve"/>
      <point x="716.5747126436781" y="1288.1379310344828" type="line"/>
      <point x="720.1609195402299" y="1145.7241379310344"/>
      <point x="724.551724137931" y="1002.1149425287356"/>
      <point x="726.9425287356322" y="862.0919540229885" type="curve"/>
      <point x="726.9425287356322" y="412.2988505747127" type="line"/>
      <point x="722.1609195402299" y="380.735632183908" type="line"/>
      <point x="716.5747126436781" y="226.75862068965517"/>
      <point x="712.9885057471264" y="126.7816091954023"/>
    </contour>
  </outline>
</glyph>
<glyph name="five" format="2">
  <advance width="1149.1494252873563"/>
  <unicode hex="0035"/>
  <outline>
    <contour>
      <point x="547.5862068965517" y="-21.586206896551722" type="curve" smooth="yes"/>
      <point x="875.080459770115" y="-21.586206896551722"/>
      <point x="1047.0804597701149" y="163.19540229885058"/>
      <point x="1047.0804597701149" y="437.58620689655174" type="curve" smooth="yes"/>
      <point x="1047.0804597701149" y="727.6091954022988"/>
      <point x="852.6436781609195" y="883.9310344827586"/>
      <point x="616.6206896551724" y="883.9310344827586" type="curve" smooth="yes"/>
      <point x="529.3333333333334" y="883.9310344827586"/>
      <point x="431.28735632183907" y="848.6896551724138"/>
      <point x="353.65517241379314" y="817.8620689655172" type="curve"/>
      <point x="336.8735632183908" y="817.8620689655172" type="line"/>
      <point x="336.8735632183908" y="909.5402298850574" type="line"/>
      <point x="340.45977011494256" y="1020.0000000000001"/>
      <point x="344.8505747126437" y="1153.3333333333333"/>
      <point x="348.4367816091954" y="1279.816091954023" type="curve"/>
      <point x="278.5977011494253" y="1221.9310344827586" type="line"/>
      <point x="481.816091954023" y="1221.9310344827586" type="line"/>
      <point x="641.4252873563219" y="1216.344827586207"/>
      <point x="805.0344827586207" y="1210.7586206896553"/>
      <point x="965.448275862069" y="1205.1724137931035" type="curve"/>
      <point x="965.448275862069" y="1371.5862068965516" type="line"/>
      <point x="160.8965517241379" y="1371.5862068965516" type="line"/>
      <point x="165.28735632183907" y="1218.0229885057472"/>
      <point x="169.6781609195402" y="1048.4597701149426"/>
      <point x="174.06896551724137" y="867.7011494252873" type="curve"/>
      <point x="174.06896551724137" y="653.7471264367816" type="line"/>
      <point x="250.29885057471265" y="647.3563218390805" type="line"/>
      <point x="348.78160919540227" y="704.6206896551724"/>
      <point x="470.85057471264366" y="739.8390804597701"/>
      <point x="549.6781609195402" y="739.8390804597701" type="curve"/>
      <point x="730.183908045977" y="736.6436781609195"/>
      <point x="872.7126436781609" y="658.183908045977"/>
      <point x="872.7126436781609" y="441.17241379310343" type="curve" smooth="yes"/>
      <point x="872.7126436781609" y="243.79310344827587"/>
      <point x="761.0114942528736" y="131.67816091954023"/>
      <point x="534.4367816091954" y="128.48275862068965" type="curve"/>
      <point x="454.75862068965523" y="128.48275862068965"/>
      <point x="273.26436781609186" y="188.45977011494253"/>
      <point x="106.02298850574712" y="251.2873563218391" type="curve"/>
      <point x="88.04597701149424" y="83.65517241379311" type="line"/>
      <point x="242.8735632183908" y="34.02298850574713"/>
      <point x="453.5632183908046" y="-21.586206896551722"/>
    </contour>
  </outline>
</glyph>
<glyph name="seven" format="2">
  <advance width="1055.9368421052632"/>
  <unicode hex="0037"/>
  <outline>
    <contour>
      <point x="213.1578947368421" y="0.0" type="curve"/>
      <point x="425.62105263157895" y="0.0" type="line"/>
      <point x="494.3157894736842" y="163.78947368421052"/>
      <point x="561.9157894736842" y="327.38947368421054"/>
      <point x="629.1578947368421" y="488.2736842105263" type="curve"/>
      <point x="755.8526315789474" y="766.5894736842105" type="line"/>
      <point x="831.8315789473684" y="930.9052631578948"/>
      <point x="902.3578947368421" y="1080.863157894737"/>
      <point x="976.8842105263158" y="1239.3684210526314" type="curve"/>
      <point x="976.8842105263158" y="1371.2842105263157" type="line"/>
      <point x="50.0" y="1371.2842105263157" type="line"/>
      <point x="50.0" y="1203.4736842105262" type="line"/>
      <point x="217.05263157894737" y="1209.3052631578948"/>
      <point x="384.65263157894736" y="1215.6842105263158"/>
      <point x="550.2526315789473" y="1221.5157894736842" type="curve"/>
      <point x="830.7368421052631" y="1221.5157894736842" type="line"/>
      <point x="786.2736842105263" y="1259.578947368421" type="line"/>
      <point x="742.2947368421053" y="1157.6"/>
      <point x="699.7684210526317" y="1056.5263157894738"/>
      <point x="657.2421052631579" y="954.5473684210526" type="curve"/>
      <point x="466.37894736842105" y="538.9894736842106" type="line"/>
      <point x="383.30526315789473" y="362.29473684210524"/>
      <point x="298.23157894736846" y="180.14736842105262"/>
    </contour>
  </outline>
</glyph>
<glyph name="less" format="2">
  <advance width="1136.421052631579"/>
  <unicode hex="003C"/>
  <outline>
    <contour>
      <point x="1012.8421052631579" y="137.5157894736842" type="curve"/>
      <point x="1012.8421052631579" y="314.0421052631579" type="line"/>
      <point x="872.3578947368421" y="370.00000000000006"/>
      <point x="720.2526315789473" y="431.7684210526316"/>
      <point x="576.8631578947368" y="489.17894736842106" type="curve"/>
      <point x="346.06315789473683" y="587.4736842105264" type="line"/>
      <point x="346.06315789473683" y="604.9473684210526" type="line"/>
      <point x="576.8631578947368" y="703.2421052631579" type="line"/>
      <point x="720.2526315789473" y="760.6526315789474"/>
      <point x="872.3578947368421" y="822.421052631579"/>
      <point x="1012.8421052631579" y="878.3789473684211" type="curve"/>
      <point x="1012.8421052631579" y="1054.9052631578948" type="line"/>
      <point x="886.4421052631579" y="998.7157894736841"/>
      <point x="764.421052631579" y="944.1684210526315"/>
      <point x="665.1157894736842" y="899.978947368421" type="curve"/>
      <point x="468.4" y="816.5473684210526" type="line"/>
      <point x="364.7368421052631" y="775.6421052631579"/>
      <point x="247.43157894736842" y="728.7368421052631"/>
      <point x="123.57894736842105" y="679.8315789473685" type="curve"/>
      <point x="123.57894736842105" y="512.5894736842105" type="line"/>
      <point x="247.43157894736842" y="465.13684210526316"/>
      <point x="367.6421052631579" y="416.7789473684211"/>
      <point x="468.4" y="375.87368421052633" type="curve"/>
      <point x="665.1157894736842" y="292.4421052631579" type="line"/>
      <point x="767.3263157894737" y="246.79999999999998"/>
      <point x="889.3473684210527" y="192.25263157894736"/>
    </contour>
  </outline>
</glyph>
<glyph name="equal" format="2">
  <advance width="1136.421052631579"/>
  <unicode hex="003D"/>
  <outline>
    <contour>
      <point x="129.05263157894737" y="292.9052631578947" type="line"/>
      <point x="254.3578947368421" y="296.0"/>
      <point x="393.2842105263158" y="299.09473684210525"/>
      <point x="475.3263157894737" y="300.1894736842105" type="curve"/>
      <point x="661.0947368421052" y="300.1894736842105" type="line"/>
      <point x="743.1368421052631" y="299.09473684210525"/>
      <point x="882.0631578947368" y="296.0"/>
      <point x="1007.3684210526316" y="292.9052631578947" type="curve"/>
      <point x="1007.3684210526316" y="455.0526315789474" type="line"/>
      <point x="882.0631578947368" y="451.9578947368421"/>
      <point x="743.1368421052631" y="448.86315789473684"/>
      <point x="661.0947368421052" y="447.7684210526316" type="curve"/>
      <point x="475.3263157894737" y="447.7684210526316" type="line"/>
      <point x="393.2842105263158" y="448.86315789473684"/>
      <point x="254.3578947368421" y="451.9578947368421"/>
      <point x="129.05263157894737" y="455.0526315789474" type="curve"/>
    </contour>
    <contour>
      <point x="129.05263157894737" y="740.2736842105263" type="line"/>
      <point x="254.3578947368421" y="743.3684210526316"/>
      <point x="393.2842105263158" y="746.4631578947368"/>
      <point x="475.3263157894737" y="747.5578947368421" type="curve"/>
      <point x="661.0947368421052" y="747.5578947368421" type="line"/>
      <point x="743.1368421052631" y="746.4631578947368"/>
      <point x="882.0631578947368" y="743.3684210526316"/>
      <point x="1007.3684210526316" y="740.2736842105263" type="curve"/>
      <point x="1007.3684210526316" y="902.421052631579" type="line"/>
      <point x="882.0631578947368" y="899.3263157894737"/>
      <point x="743.1368421052631" y="896.2315789473685"/>
      <point x="661.0947368421052" y="895.1368421052632" type="curve"/>
      <point x="475.3263157894737" y="895.1368421052632" type="line"/>
      <point x="393.2842105263158" y="896.2315789473685"/>
      <point x="254.3578947368421" y="899.3263157894737"/>
      <point x="129.05263157894737" y="902.421052631579" type="curve"/>
    </contour>
  </outline>
</glyph>
<glyph name="greater" format="2">
  <advance width="1136.421052631579"/>
  <unicode hex="003E"/>
  <outline>
    <contour>
      <point x="123.57894736842105" y="137.5157894736842" type="line"/>
      <point x="249.97894736842105" y="193.70526315789473"/>
      <point x="372.0" y="248.25263157894736"/>
      <point x="471.30526315789473" y="292.4421052631579" type="curve"/>
      <point x="668.021052631579" y="375.87368421052633" type="line"/>
      <point x="771.6842105263158" y="416.7789473684211"/>
      <point x="888.9894736842106" y="463.6842105263158"/>
      <point x="1012.8421052631579" y="512.5894736842105" type="curve"/>
      <point x="1012.8421052631579" y="679.8315789473685" type="line"/>
      <point x="888.9894736842106" y="727.2842105263157"/>
      <point x="768.7789473684211" y="775.6421052631579"/>
      <point x="668.021052631579" y="816.5473684210526" type="curve"/>
      <point x="471.30526315789473" y="899.978947368421" type="line"/>
      <point x="369.09473684210525" y="945.6210526315789"/>
      <point x="247.07368421052632" y="1000.1684210526315"/>
      <point x="123.57894736842105" y="1054.9052631578948" type="curve"/>
      <point x="123.57894736842105" y="878.3789473684211" type="line"/>
      <point x="264.06315789473683" y="822.421052631579"/>
      <point x="416.1684210526316" y="760.6526315789474"/>
      <point x="559.5578947368421" y="703.2421052631579" type="curve"/>
      <point x="790.3578947368421" y="604.9473684210526" type="line"/>
      <point x="790.3578947368421" y="587.4736842105264" type="line"/>
      <point x="559.5578947368421" y="489.17894736842106" type="line"/>
      <point x="416.1684210526316" y="431.7684210526316"/>
      <point x="264.06315789473683" y="370.00000000000006"/>
      <point x="123.57894736842105" y="314.0421052631579" type="curve"/>
    </contour>
  </outline>
</glyph>
<glyph name="at" format="2">
  <advance width="1764.778947368421"/>
  <unicode hex="0040"/>
  <outline>
    <contour>
      <point x="945.4736842105264" y="-263.1578947368421" type="curve" smooth="yes"/>
      <point x="1074.5684210526317" y="-263.1578947368421"/>
      <point x="1326.9263157894736" y="-176.98947368421054"/>
      <point x="1510.5684210526315" y="-118.82105263157895" type="curve"/>
      <point x="1510.5684210526315" y="11.557894736842108" type="line"/>
      <point x="1282.0" y="-75.17894736842105"/>
      <point x="1038.7157894736843" y="-147.89473684210523"/>
      <point x="945.4736842105264" y="-152.44210526315788" type="curve"/>
      <point x="391.17894736842106" y="-145.3473684210526"/>
      <point x="142.8421052631579" y="235.09473684210528"/>
      <point x="235.03157894736842" y="668.7368421052631" type="curve" smooth="yes"/>
      <point x="316.46315789473687" y="1052.6105263157895"/>
      <point x="582.0" y="1233.3894736842105"/>
      <point x="935.4736842105264" y="1240.4842105263158" type="curve"/>
      <point x="1366.8631578947368" y="1233.3894736842105"/>
      <point x="1609.0105263157895" y="925.8736842105263"/>
      <point x="1533.2" y="517.3473684210526" type="curve" smooth="yes"/>
      <point x="1519.9368421052632" y="447.0315789473684"/>
      <point x="1349.8526315789475" y="248.39999999999998"/>
      <point x="1284.5894736842106" y="240.73684210526315" type="curve"/>
      <point x="1185.1789473684212" y="247.28421052631577"/>
      <point x="1145.9368421052632" y="308.0210526315789"/>
      <point x="1170.2947368421053" y="427.62105263157895" type="curve"/>
      <point x="1224.8000000000002" y="689.7894736842105" type="line"/>
      <point x="1249.178947368421" y="773.0947368421052"/>
      <point x="1277.915789473684" y="871.8315789473684"/>
      <point x="1305.1999999999998" y="962.5684210526316" type="curve"/>
      <point x="1165.663157894737" y="953.8315789473684" type="line"/>
      <point x="1134.0210526315789" y="845.8526315789474" type="line"/>
      <point x="1119.6421052631579" y="845.8526315789474" type="line"/>
      <point x="1050.1894736842107" y="908.2315789473683"/>
      <point x="938.7789473684211" y="974.021052631579"/>
      <point x="860.2736842105263" y="974.021052631579" type="curve" smooth="yes"/>
      <point x="673.3684210526316" y="974.021052631579"/>
      <point x="532.4842105263158" y="826.7157894736843"/>
      <point x="487.22105263157897" y="607.6631578947369" type="curve" smooth="yes"/>
      <point x="436.6736842105263" y="364.5473684210526"/>
      <point x="535.2421052631579" y="142.7157894736842"/>
      <point x="769.578947368421" y="142.7157894736842" type="curve" smooth="yes"/>
      <point x="829.9157894736842" y="142.7157894736842"/>
      <point x="936.6105263157895" y="202.8842105263158"/>
      <point x="1028.2526315789473" y="279.05263157894734" type="curve"/>
      <point x="1042.0842105263157" y="279.05263157894734" type="line"/>
      <point x="1065.9368421052632" y="199.78947368421052"/>
      <point x="1138.7368421052631" y="123.81052631578947"/>
      <point x="1296.9473684210525" y="123.81052631578947" type="curve" smooth="yes"/>
      <point x="1372.9684210526316" y="123.81052631578947"/>
      <point x="1620.1052631578948" y="354.35789473684207"/>
      <point x="1646.842105263158" y="494.4" type="curve" smooth="yes"/>
      <point x="1736.6736842105263" y="963.1789473684211"/>
      <point x="1432.0842105263157" y="1351.2"/>
      <point x="938.021052631579" y="1351.2" type="curve" smooth="yes"/>
      <point x="553.6421052631579" y="1351.2"/>
      <point x="214.31578947368422" y="1145.9157894736843"/>
      <point x="120.48421052631579" y="690.421052631579" type="curve" smooth="yes"/>
      <point x="18.821052631578947" y="200.86315789473684"/>
      <point x="318.5052631578947" y="-263.1578947368421"/>
    </contour>
    <contour>
      <point x="805.4947368421052" y="268.94736842105266" type="curve"/>
      <point x="647.2842105263157" y="272.94736842105266"/>
      <point x="587.5157894736842" y="411.0315789473684"/>
      <point x="624.2105263157895" y="585.7894736842105" type="curve" smooth="yes"/>
      <point x="655.6421052631579" y="733.6842105263158"/>
      <point x="743.0315789473684" y="840.1473684210526"/>
      <point x="888.9052631578948" y="844.6947368421053" type="curve"/>
      <point x="950.6736842105264" y="841.6"/>
      <point x="1037.3052631578946" y="794.378947368421"/>
      <point x="1098.1473684210525" y="743.1578947368421" type="curve"/>
      <point x="1026.7368421052631" y="412.63157894736844" type="line"/>
      <point x="953.5368421052632" y="327.0736842105263"/>
      <point x="859.0947368421054" y="274.58947368421053"/>
    </contour>
  </outline>
</glyph>
<glyph name="A" format="2">
  <advance width="1382.5263157894738"/>
  <unicode hex="0041"/>
  <anchor x="691.5368421052632" y="0.0" name="bottom"/>
  <anchor x="1336.0421052631577" y="0.0" name="ogonek"/>
  <anchor x="691.5368421052632" y="1426.0" name="top"/>
  <outline>
    <contour>
      <point x="42.8421052631579" y="0.0" type="curve"/>
      <point x="260.40000000000003" y="0.0" type="line"/>
      <point x="313.62105263157895" y="168.50526315789475"/>
      <point x="371.2" y="347.7263157894737"/>
      <point x="422.9684210526316" y="513.3263157894737" type="curve"/>
      <point x="684.6105263157895" y="1262.5894736842106" type="line"/>
      <point x="702.0842105263158" y="1262.5894736842106" type="line"/>
      <point x="961.7263157894737" y="506.77894736842103" type="line"/>
      <point x="1010.5894736842106" y="349.17894736842106"/>
      <point x="1067.2631578947369" y="164.86315789473684"/>
      <point x="1119.0315789473684" y="0.0" type="curve"/>
      <point x="1339.3263157894737" y="0.0" type="line"/>
      <point x="1280.421052631579" y="152.54736842105262"/>
      <point x="1214.0631578947368" y="322.5473684210526"/>
      <point x="1151.7052631578947" y="482.0" type="curve"/>
      <point x="976.2947368421053" y="973.4526315789474" type="line"/>
      <point x="920.5052631578947" y="1146.3578947368421"/>
      <point x="877.0736842105264" y="1281.8105263157895"/>
      <point x="831.0947368421052" y="1426.0" type="curve"/>
      <point x="558.8842105263158" y="1426.0" type="line"/>
      <point x="511.4526315789473" y="1278.9052631578948"/>
      <point x="468.9263157894737" y="1149.2631578947369"/>
      <point x="411.6842105263158" y="973.4526315789474" type="curve"/>
      <point x="234.82105263157897" y="483.4526315789474" type="line"/>
      <point x="174.46315789473687" y="330.90526315789475"/>
      <point x="104.65263157894736" y="155.45263157894738"/>
    </contour>
    <contour>
      <point x="324.35789473684207" y="358.37894736842105" type="line"/>
      <point x="1074.9473684210527" y="358.37894736842105" type="line"/>
      <point x="1062.3578947368421" y="500.4842105263158" type="line"/>
      <point x="339.6842105263158" y="500.4842105263158" type="line"/>
    </contour>
  </outline>
</glyph>
<glyph name="C" format="2">
  <advance width="1369.2631578947369"/>
  <unicode hex="0043"/>
  <anchor x="797.6210526315789" y="0.0" name="bottom"/>
  <anchor x="783.0947368421052" y="1426.0" name="top"/>
  <outline>
    <contour>
      <point x="831.2631578947369" y="-21.83157894736842" type="curve" smooth="yes"/>
      <point x="921.7894736842104" y="-21.83157894736842"/>
      <point x="1136.3999999999999" y="30.694736842105264"/>
      <point x="1259.3052631578948" y="73.41052631578947" type="curve"/>
      <point x="1244.5684210526315" y="254.31578947368422" type="line"/>
      <point x="1103.136842105263" y="190.14736842105265"/>
      <point x="907.4947368421052" y="134.4842105263158"/>
      <point x="846.9684210526316" y="134.4842105263158" type="curve"/>
      <point x="478.06315789473683" y="141.03157894736842"/>
      <point x="288.3578947368421" y="395.8105263157895"/>
      <point x="288.3578947368421" y="714.3578947368421" type="curve" smooth="yes"/>
      <point x="288.3578947368421" y="1071.2842105263157"/>
      <point x="509.87368421052633" y="1285.4947368421053"/>
      <point x="801.8105263157895" y="1292.042105263158" type="curve"/>
      <point x="852.8842105263158" y="1292.042105263158"/>
      <point x="1059.4526315789474" y="1235.8526315789475"/>
      <point x="1253.0947368421052" y="1166.2105263157894" type="curve"/>
      <point x="1269.6631578947367" y="1345.6631578947367" type="line"/>
      <point x="1138.336842105263" y="1384.9473684210527"/>
      <point x="893.978947368421" y="1452.1894736842105"/>
      <point x="804.3578947368421" y="1452.1894736842105" type="curve" smooth="yes"/>
      <point x="384.4421052631579" y="1452.1894736842105"/>
      <point x="100.29473684210527" y="1147.0736842105264"/>
      <point x="100.29473684210527" y="715.2631578947369" type="curve" smooth="yes"/>
      <point x="100.29473684210527" y="290.6736842105263"/>
      <point x="378.5052631578947" y="-21.83157894736842"/>
    </contour>
  </outline>
</glyph>
<glyph name="D" format="2">
  <advance width="1475.8105263157895"/>
  <unicode hex="0044"/>
  <anchor x="702.7368421052631" y="0.0" name="bottom"/>
  <anchor x="738.9052631578948" y="714.0" name="center"/>
  <anchor x="702.7368421052631" y="1426.0" name="top"/>
  <outline>
    <contour>
      <point x="174.4" y="0.0" type="curve"/>
      <point x="330.58947368421053" y="-1.0947368421052632"/>
      <point x="457.7684210526316" y="-4.189473684210526"/>
      <point x="634.9263157894736" y="-6.378947368421053" type="curve"/>
      <point x="1176.0631578947368" y="-6.378947368421053"/>
      <point x="1375.5157894736842" y="316.3578947368421"/>
      <point x="1375.5157894736842" y="718.9052631578948" type="curve" smooth="yes"/>
      <point x="1375.5157894736842" y="1163.8315789473684"/>
      <point x="1127.8736842105263" y="1431.2842105263157"/>
      <point x="688.2526315789473" y="1431.2842105263157" type="curve"/>
      <point x="513.2421052631579" y="1429.6421052631579"/>
      <point x="357.8315789473684" y="1427.0947368421052"/>
      <point x="174.4" y="1426.0" type="curve"/>
      <point x="179.13684210526316" y="1266.1894736842105"/>
      <point x="181.8736842105263" y="1129.4736842105262"/>
      <point x="187.70526315789473" y="949.4526315789474" type="curve"/>
      <point x="187.70526315789473" y="471.0736842105263" type="line"/>
      <point x="182.42105263157893" y="294.33684210526314"/>
      <point x="179.13684210526316" y="157.62105263157895"/>
    </contour>
    <contour>
      <point x="374.4842105263158" y="150.67368421052632" type="line"/>
      <point x="372.4842105263158" y="264.2315789473684"/>
      <point x="370.8421052631579" y="372.1684210526316"/>
      <point x="368.8421052631579" y="506.10526315789474" type="curve"/>
      <point x="368.8421052631579" y="915.5157894736842" type="line"/>
      <point x="371.38947368421054" y="1051.6421052631579"/>
      <point x="372.4842105263158" y="1160.1263157894737"/>
      <point x="374.4842105263158" y="1275.3263157894737" type="curve"/>
      <point x="657.4526315789474" y="1275.3263157894737" type="line"/>
      <point x="1037.5789473684208" y="1267.6842105263158"/>
      <point x="1187.4526315789474" y="1056.7157894736843"/>
      <point x="1187.4526315789474" y="722.0" type="curve" smooth="yes"/>
      <point x="1187.4526315789474" y="395.8105263157895"/>
      <point x="1056.6526315789472" y="158.86315789473684"/>
      <point x="635.8315789473684" y="150.67368421052632" type="curve"/>
    </contour>
  </outline>
</glyph>
<glyph name="E" format="2">
  <advance width="1189.1724137931035"/>
  <unicode hex="0045"/>
  <anchor x="630.4367816091954" y="0.0" name="bottom"/>
  <anchor x="1072.7356321839081" y="0.0" name="ogonek"/>
  <anchor x="630.4367816091954" y="1426.0" name="top"/>
  <anchor x="74.0" y="1426.0" name="topleft"/>
  <outline>
    <contour>
      <point x="174.16091954022988" y="0.0" type="curve"/>
      <point x="380.8505747126437" y="0.0" type="line"/>
      <point x="380.8505747126437" y="26.32183908045977" type="line"/>
      <point x="375.264367816092" y="184.73563218390805"/>
      <point x="370.87356321839087" y="323.14942528735634"/>
      <point x="365.2873563218391" y="498.3448275862069" type="curve"/>
      <point x="365.2873563218391" y="923.6781609195402" type="line"/>
      <point x="370.87356321839087" y="1101.2643678160919"/>
      <point x="375.264367816092" y="1240.0689655172414"/>
      <point x="380.8505747126437" y="1399.6781609195402" type="curve"/>
      <point x="380.8505747126437" y="1426.0" type="line"/>
      <point x="174.16091954022988" y="1426.0" type="line"/>
      <point x="178.55172413793105" y="1266.3908045977012"/>
      <point x="182.13793103448276" y="1129.9770114942528"/>
      <point x="187.72413793103448" y="950.0" type="curve"/>
      <point x="187.72413793103448" y="471.2183908045977" type="line"/>
      <point x="182.13793103448276" y="294.82758620689657"/>
      <point x="178.55172413793105" y="157.2183908045977"/>
    </contour>
    <contour>
      <point x="342.5287356321839" y="0.0" type="line"/>
      <point x="1076.3218390804598" y="0.0" type="line"/>
      <point x="1076.3218390804598" y="171.60919540229884" type="line"/>
      <point x="931.8850574712643" y="166.02298850574712"/>
      <point x="778.6436781609195" y="160.82758620689654"/>
      <point x="604.5977011494252" y="155.24137931034483" type="curve"/>
      <point x="342.5287356321839" y="155.24137931034483" type="line"/>
    </contour>
    <contour>
      <point x="325.7931034482759" y="647.3793103448276" type="line"/>
      <point x="601.8390804597701" y="647.3793103448276" type="line"/>
      <point x="781.471264367816" y="644.9885057471264"/>
      <point x="902.6896551724137" y="641.7931034482758"/>
      <point x="1034.712643678161" y="640.5977011494252" type="curve"/>
      <point x="1034.712643678161" y="808.6206896551724" type="line"/>
      <point x="909.4942528735631" y="805.4252873563219"/>
      <point x="786.6666666666666" y="802.2298850574713"/>
      <point x="602.6436781609195" y="797.8390804597701" type="curve"/>
      <point x="325.7931034482759" y="797.8390804597701" type="line"/>
    </contour>
    <contour>
      <point x="334.16091954022994" y="1270.7586206896551" type="line"/>
      <point x="589.4252873563217" y="1270.7586206896551" type="line"/>
      <point x="796.2758620689655" y="1263.9770114942528"/>
      <point x="939.9080459770115" y="1259.9770114942528"/>
      <point x="1073.5402298850574" y="1254.3908045977012" type="curve"/>
      <point x="1073.5402298850574" y="1426.0" type="line"/>
      <point x="334.16091954022994" y="1426.0" type="line"/>
    </contour>
  </outline>
</glyph>
<glyph name="F" format="2">
  <advance width="1150.2105263157894"/>
  <unicode hex="0046"/>
  <outline>
    <contour>
      <point x="174.4" y="0.0" type="curve"/>
      <point x="380.3157894736842" y="0.0" type="line"/>
      <point x="375.57894736842104" y="158.16842105263157"/>
      <point x="370.8421052631579" y="294.88421052631577"/>
      <point x="365.5578947368421" y="471.0736842105263" type="curve"/>
      <point x="365.5578947368421" y="923.2" type="line"/>
      <point x="370.8421052631579" y="1101.578947368421"/>
      <point x="375.57894736842104" y="1239.9368421052632"/>
      <point x="380.3157894736842" y="1399.7473684210527" type="curve"/>
      <point x="380.3157894736842" y="1426.0" type="line"/>
      <point x="174.4" y="1426.0" type="line"/>
      <point x="179.13684210526316" y="1266.1894736842105"/>
      <point x="181.8736842105263" y="1129.4736842105262"/>
      <point x="187.70526315789473" y="949.4526315789474" type="curve"/>
      <point x="187.70526315789473" y="471.0736842105263" type="line"/>
      <point x="182.42105263157893" y="294.33684210526314"/>
      <point x="179.13684210526316" y="157.62105263157895"/>
    </contour>
    <contour>
      <point x="322.3578947368421" y="638.1684210526316" type="line"/>
      <point x="583.7894736842105" y="638.1684210526316" type="line"/>
      <point x="763.578947368421" y="635.4315789473685"/>
      <point x="884.6526315789473" y="632.3368421052633"/>
      <point x="1016.6315789473684" y="630.6947368421053" type="curve"/>
      <point x="1016.6315789473684" y="799.7684210526317" type="line"/>
      <point x="892.1052631578947" y="796.6736842105263"/>
      <point x="768.1263157894737" y="793.0315789473684"/>
      <point x="585.2421052631579" y="788.8421052631579" type="curve"/>
      <point x="322.3578947368421" y="788.8421052631579" type="line"/>
    </contour>
    <contour>
      <point x="331.11578947368423" y="1270.4" type="line"/>
      <point x="572.7157894736841" y="1270.4" type="line"/>
      <point x="779.578947368421" y="1264.5684210526317"/>
      <point x="922.8210526315789" y="1258.9263157894738"/>
      <point x="1056.6105263157895" y="1254.7368421052633" type="curve"/>
      <point x="1056.6105263157895" y="1426.0" type="line"/>
      <point x="331.11578947368423" y="1426.0" type="line"/>
    </contour>
  </outline>
</glyph>
<glyph name="J" format="2">
  <advance width="589.0736842105263"/>
  <unicode hex="004A"/>
  <anchor x="303.5157894736842" y="0.0" name="bottom"/>
  <anchor x="303.5157894736842" y="1426.0" name="top"/>
  <outline>
    <contour>
      <point x="52.50526315789474" y="-315.62105263157895" type="curve"/>
      <point x="227.74736842105264" y="-315.62105263157895" type="line"/>
      <point x="282.4842105263158" y="-214.3578947368421"/>
      <point x="406.2947368421053" y="29.242105263157892"/>
      <point x="406.2947368421053" y="94.0842105263158" type="curve" smooth="yes"/>
      <point x="406.2947368421053" y="255.7473684210526"/>
      <point x="397.17894736842106" y="425.0526315789474"/>
      <point x="397.17894736842106" y="591.6421052631579" type="curve"/>
      <point x="397.17894736842106" y="949.4526315789474" type="line"/>
      <point x="401.5578947368421" y="1129.4736842105262"/>
      <point x="404.2947368421053" y="1266.1894736842105"/>
      <point x="411.93684210526317" y="1426.0" type="curve"/>
      <point x="202.73684210526315" y="1426.0" type="line"/>
      <point x="208.92631578947365" y="1266.1894736842105"/>
      <point x="211.66315789473683" y="1129.4736842105262"/>
      <point x="216.04210526315788" y="949.4526315789474" type="curve"/>
      <point x="216.04210526315788" y="546.6105263157895" type="line"/>
      <point x="210.94736842105263" y="86.46315789473684" type="line"/>
      <point x="153.89473684210526" y="-58.652631578947364"/>
      <point x="103.20000000000002" y="-187.41052631578947"/>
    </contour>
  </outline>
</glyph>
<glyph name="K" format="2">
  <advance width="1341.621052631579"/>
  <unicode hex="004B"/>
  <anchor x="688.0842105263157" y="0.0" name="bottom"/>
  <anchor x="688.0842105263157" y="1426.0" name="top"/>
  <outline>
    <contour>
      <point x="1042.6315789473686" y="0.0" type="curve"/>
      <point x="1302.063157894737" y="0.0" type="line"/>
      <point x="1180.6526315789472" y="124.56842105263159"/>
      <point x="989.8105263157894" y="322.06315789473683"/>
      <point x="847.1368421052631" y="469.7263157894737" type="curve"/>
      <point x="547.2631578947369" y="792.8842105263158" type="line"/>
      <point x="550.0" y="713.4315789473684" type="line"/>
      <point x="818.2526315789473" y="987.2631578947369" type="line"/>
      <point x="963.4736842105262" y="1131.4526315789474"/>
      <point x="1109.0526315789473" y="1274.0"/>
      <point x="1264.084210526316" y="1426.0" type="curve"/>
      <point x="1013.221052631579" y="1426.0" type="line"/>
      <point x="874.4421052631579" y="1278.042105263158"/>
      <point x="778.1684210526316" y="1174.6105263157895"/>
      <point x="670.0842105263157" y="1057.7263157894736" type="curve"/>
      <point x="430.27368421052637" y="811.978947368421" type="line"/>
      <point x="347.91578947368424" y="811.978947368421" type="line"/>
      <point x="347.91578947368424" y="663.4947368421052" type="line"/>
      <point x="431.0105263157895" y="663.4947368421052" type="line"/>
      <point x="707.6842105263157" y="370.10526315789474" type="line"/>
      <point x="811.2210526315789" y="256.12631578947367"/>
      <point x="916.2105263157894" y="139.2421052631579"/>
    </contour>
    <contour>
      <point x="174.4" y="0.0" type="curve"/>
      <point x="383.0526315789474" y="0.0" type="line"/>
      <point x="378.3157894736842" y="158.16842105263157"/>
      <point x="373.5789473684211" y="294.88421052631577"/>
      <point x="368.2947368421053" y="471.0736842105263" type="curve"/>
      <point x="368.2947368421053" y="949.4526315789474" type="line"/>
      <point x="374.1263157894737" y="1129.4736842105262"/>
      <point x="378.3157894736842" y="1266.1894736842105"/>
      <point x="383.0526315789474" y="1426.0" type="curve"/>
      <point x="174.4" y="1426.0" type="line"/>
      <point x="179.13684210526316" y="1266.1894736842105"/>
      <point x="181.8736842105263" y="1129.4736842105262"/>
      <point x="187.70526315789473" y="949.4526315789474" type="curve"/>
      <point x="187.70526315789473" y="471.0736842105263" type="line"/>
      <point x="182.42105263157893" y="294.33684210526314"/>
      <point x="179.13684210526316" y="157.62105263157895"/>
    </contour>
  </outline>
</glyph>
<glyph name="L" format="2">
  <advance width="1139.1157894736843"/>
  <unicode hex="004C"/>
  <anchor x="626.5052631578948" y="0.0" name="bottom"/>
  <anchor x="847.5368421052632" y="715.6421052631579" name="center"/>
  <anchor x="405.0526315789474" y="1426.0" name="top"/>
  <anchor x="567.7473684210527" y="992.3789473684211" name="topright"/>
  <outline>
    <contour>
      <point x="174.4" y="0.0" type="curve"/>
      <point x="383.6" y="0.0" type="line"/>
      <point x="383.6" y="26.25263157894737" type="line"/>
      <point x="378.86315789473684" y="184.42105263157893"/>
      <point x="374.1263157894737" y="321.13684210526316"/>
      <point x="368.8421052631579" y="497.32631578947365" type="curve"/>
      <point x="368.8421052631579" y="949.4526315789474" type="line"/>
      <point x="374.67368421052635" y="1129.4736842105262"/>
      <point x="378.86315789473684" y="1266.1894736842105"/>
      <point x="383.6" y="1426.0" type="curve"/>
      <point x="174.4" y="1426.0" type="line"/>
      <point x="179.13684210526316" y="1266.1894736842105"/>
      <point x="181.8736842105263" y="1129.4736842105262"/>
      <point x="187.70526315789473" y="949.4526315789474" type="curve"/>
      <point x="187.70526315789473" y="471.0736842105263" type="line"/>
      <point x="182.42105263157893" y="294.33684210526314"/>
      <point x="179.13684210526316" y="157.62105263157895"/>
    </contour>
    <contour>
      <point x="342.6105263157895" y="0.0" type="line"/>
      <point x="1070.778947368421" y="0.0" type="line"/>
      <point x="1070.778947368421" y="180.56842105263158" type="line"/>
      <point x="914.2736842105263" y="174.73684210526318"/>
      <point x="782.1263157894737" y="170.0"/>
      <point x="554.1894736842105" y="161.07368421052632" type="curve"/>
      <point x="342.6105263157895" y="161.07368421052632" type="line"/>
    </contour>
  </outline>
</glyph>
<glyph name="M" format="2">
  <advance width="1911.4947368421053"/>
  <unicode hex="004D"/>
  <anchor x="955.4736842105264" y="0.0" name="bottom"/>
  <anchor x="955.4736842105264" y="1426.0" name="top"/>
  <outline>
    <contour>
      <point x="118.61052631578947" y="0.0" type="curve"/>
      <point x="322.5052631578947" y="0.0" type="line"/>
      <point x="346.65263157894736" y="255.3052631578947"/>
      <point x="367.89473684210526" y="482.0842105263158"/>
      <point x="386.2315789473684" y="679.7894736842105" type="curve"/>
      <point x="438.0210526315789" y="1106.2736842105264" type="line"/>
      <point x="451.13684210526316" y="1106.2736842105264" type="line"/>
      <point x="638.2736842105263" y="643.4526315789474" type="line"/>
      <point x="720.9263157894737" y="426.4842105263158"/>
      <point x="813.7473684210527" y="182.2736842105263"/>
      <point x="882.7789473684211" y="0.0" type="curve"/>
      <point x="1035.6421052631579" y="0.0" type="line"/>
      <point x="1107.3894736842105" y="193.89473684210526"/>
      <point x="1193.3052631578946" y="422.12631578947367"/>
      <point x="1277.221052631579" y="646.3578947368421" type="curve"/>
      <point x="1458.336842105263" y="1106.2736842105264" type="line"/>
      <point x="1471.4526315789474" y="1106.2736842105264" type="line"/>
      <point x="1523.2421052631578" y="679.7894736842105" type="line"/>
      <point x="1541.578947368421" y="480.63157894736844"/>
      <point x="1563.3684210526317" y="250.4"/>
      <point x="1586.0631578947368" y="0.0" type="curve"/>
      <point x="1792.8842105263159" y="0.0" type="line"/>
      <point x="1770.1473684210525" y="157.62105263157895"/>
      <point x="1747.4105263157894" y="298.5263157894737"/>
      <point x="1721.578947368421" y="471.0736842105263" type="curve"/>
      <point x="1663.3894736842105" y="945.4526315789474" type="line"/>
      <point x="1645.578947368421" y="1120.3578947368421"/>
      <point x="1631.221052631579" y="1265.6421052631579"/>
      <point x="1615.4105263157896" y="1426.0" type="curve"/>
      <point x="1405.4947368421053" y="1426.0" type="line"/>
      <point x="1330.1052631578948" y="1222.463157894737"/>
      <point x="1259.8105263157895" y="1034.9473684210527"/>
      <point x="1189.8736842105263" y="850.1473684210526" type="curve"/>
      <point x="966.4" y="297.20000000000005" type="line"/>
      <point x="952.378947368421" y="297.20000000000005" type="line"/>
      <point x="726.1684210526315" y="850.1473684210526" type="line"/>
      <point x="655.6842105263157" y="1036.4"/>
      <point x="584.2947368421052" y="1223.0105263157895"/>
      <point x="508.35789473684207" y="1426.0" type="curve"/>
      <point x="294.2526315789474" y="1426.0" type="line"/>
      <point x="278.4421052631579" y="1262.1894736842105"/>
      <point x="264.6315789473684" y="1113.0947368421052"/>
      <point x="248.82105263157897" y="945.4526315789474" type="curve"/>
      <point x="190.27368421052634" y="471.0736842105263" type="line"/>
      <point x="163.5368421052632" y="298.1684210526316"/>
      <point x="142.2526315789474" y="156.52631578947367"/>
    </contour>
  </outline>
</glyph>
<glyph name="N" format="2">
  <advance width="1514.9052631578948"/>
  <unicode hex="004E"/>
  <anchor x="758.0" y="0.0" name="bottom"/>
  <anchor x="758.0" y="1426.0" name="top"/>
  <outline>
    <contour>
      <point x="174.4" y="0.0" type="curve"/>
      <point x="374.2947368421053" y="0.0" type="line"/>
      <point x="369.5578947368421" y="158.16842105263157"/>
      <point x="364.821052631579" y="294.88421052631577"/>
      <point x="359.5368421052632" y="471.0736842105263" type="curve"/>
      <point x="359.5368421052632" y="1117.8736842105263" type="line"/>
      <point x="374.10526315789474" y="1117.8736842105263" type="line"/>
      <point x="684.9894736842105" y="678.1473684210526" type="line"/>
      <point x="865.578947368421" y="414.67368421052635"/>
      <point x="1011.8315789473684" y="201.34736842105264"/>
      <point x="1149.9157894736843" y="0.0" type="curve"/>
      <point x="1340.505263157895" y="0.0" type="line"/>
      <point x="1335.7684210526315" y="158.16842105263157"/>
      <point x="1331.0315789473684" y="294.88421052631577"/>
      <point x="1325.7473684210527" y="471.0736842105263" type="curve"/>
      <point x="1325.7473684210527" y="949.4526315789474" type="line"/>
      <point x="1331.578947368421" y="1129.4736842105262"/>
      <point x="1335.7684210526315" y="1266.1894736842105"/>
      <point x="1340.505263157895" y="1426.0" type="curve"/>
      <point x="1140.6105263157895" y="1426.0" type="line"/>
      <point x="1145.3473684210526" y="1266.1894736842105"/>
      <point x="1148.0842105263157" y="1129.4736842105262"/>
      <point x="1153.915789473684" y="949.4526315789474" type="curve"/>
      <point x="1153.915789473684" y="313.93684210526317" type="line"/>
      <point x="1138.8" y="313.93684210526317" type="line"/>
      <point x="829.5578947368421" y="750.2105263157895" type="line"/>
      <point x="682.9473684210526" y="965.8947368421053"/>
      <point x="532.8842105263158" y="1186.1263157894737"/>
      <point x="370.82105263157894" y="1426.0" type="curve"/>
      <point x="174.4" y="1426.0" type="line"/>
      <point x="179.13684210526316" y="1266.1894736842105"/>
      <point x="181.8736842105263" y="1129.4736842105262"/>
      <point x="187.70526315789473" y="949.4526315789474" type="curve"/>
      <point x="187.70526315789473" y="471.0736842105263" type="line"/>
      <point x="182.42105263157893" y="294.33684210526314"/>
      <point x="179.13684210526316" y="157.62105263157895"/>
    </contour>
  </outline>
</glyph>
<glyph name="P" format="2">
  <advance width="1257.057471264368"/>
  <unicode hex="0050"/>
  <outline>
    <contour>
      <point x="654.1609195402299" y="565.0114942528736" type="curve"/>
      <point x="1046.2298850574714" y="565.0114942528736"/>
      <point x="1173.793103448276" y="756.9885057471264"/>
      <point x="1173.793103448276" y="1017.7241379310344" type="curve" smooth="yes"/>
      <point x="1173.793103448276" y="1301.1724137931035"/>
      <point x="1017.0574712643678" y="1431.5862068965516"/>
      <point x="692.3218390804598" y="1431.5862068965516" type="curve"/>
      <point x="472.02298850574715" y="1430.781609195402"/>
      <point x="296.5057471264368" y="1426.0"/>
      <point x="174.16091954022988" y="1426.0" type="curve"/>
      <point x="342.09195402298855" y="1275.5402298850574" type="line"/>
      <point x="679.9540229885057" y="1275.5402298850574" type="line" smooth="yes"/>
      <point x="815.655172413793" y="1275.5402298850574"/>
      <point x="989.448275862069" y="1251.5632183908046"/>
      <point x="989.448275862069" y="1016.528735632184" type="curve" smooth="yes"/>
      <point x="989.448275862069" y="803.9310344827586"/>
      <point x="877.3333333333333" y="717.8620689655172"/>
      <point x="619.8850574712643" y="717.8620689655172" type="curve" smooth="yes"/>
      <point x="342.1379310344828" y="717.8620689655172" type="line"/>
      <point x="342.1379310344828" y="568.2068965517242" type="line"/>
      <point x="419.7471264367816" y="568.2068965517242"/>
      <point x="554.551724137931" y="565.0114942528736"/>
    </contour>
    <contour>
      <point x="174.16091954022988" y="0.0" type="curve"/>
      <point x="380.8505747126437" y="0.0" type="line"/>
      <point x="376.45977011494256" y="158.41379310344828"/>
      <point x="370.87356321839087" y="294.82758620689657"/>
      <point x="366.4827586206897" y="471.2183908045977" type="curve"/>
      <point x="366.4827586206897" y="923.6781609195402" type="line"/>
      <point x="370.87356321839087" y="1101.2643678160919"/>
      <point x="376.45977011494256" y="1240.0689655172414"/>
      <point x="380.8505747126437" y="1399.6781609195402" type="curve"/>
      <point x="174.16091954022988" y="1426.0" type="line"/>
      <point x="178.55172413793105" y="1266.3908045977012"/>
      <point x="182.13793103448276" y="1129.9770114942528"/>
      <point x="187.72413793103448" y="950.0" type="curve"/>
      <point x="187.72413793103448" y="471.2183908045977" type="line"/>
      <point x="182.13793103448276" y="294.82758620689657"/>
      <point x="178.55172413793105" y="157.2183908045977"/>
    </contour>
  </outline>
</glyph>
<glyph name="R" format="2">
  <advance width="1348.6666666666665"/>
  <unicode hex="0052"/>
  <anchor x="675.9310344827586" y="0.0" name="bottom"/>
  <anchor x="660.6436781609195" y="1426.0" name="top"/>
  <outline>
    <contour>
      <point x="1055.5172413793102" y="0.0" type="curve"/>
      <point x="1298.9655172413795" y="0.0" type="line"/>
      <point x="1203.3333333333333" y="114.0"/>
      <point x="1066.0919540229886" y="279.58620689655174"/>
      <point x="958.4597701149424" y="407.97701149425285" type="curve"/>
      <point x="733.5632183908045" y="690.3678160919541" type="line"/>
      <point x="676.5747126436781" y="611.3333333333334" type="line"/>
      <point x="1036.6206896551726" y="613.3333333333334"/>
      <point x="1158.5747126436781" y="806.919540229885"/>
      <point x="1158.5747126436781" y="1039.6781609195402" type="curve" smooth="yes"/>
      <point x="1158.5747126436781" y="1318.7816091954023"/>
      <point x="997.0574712643678" y="1431.5862068965516"/>
      <point x="671.1264367816092" y="1431.5862068965516" type="curve"/>
      <point x="472.3448275862069" y="1430.3908045977012"/>
      <point x="301.28735632183907" y="1427.1954022988505"/>
      <point x="174.16091954022988" y="1426.0" type="curve"/>
      <point x="307.42528735632186" y="1275.5402298850574" type="line"/>
      <point x="663.5402298850574" y="1275.5402298850574" type="line" smooth="yes"/>
      <point x="799.2413793103448" y="1275.5402298850574"/>
      <point x="973.0344827586207" y="1260.3908045977012"/>
      <point x="973.0344827586207" y="1021.7471264367816" type="curve" smooth="yes"/>
      <point x="973.0344827586207" y="808.3908045977012"/>
      <point x="854.9425287356321" y="728.2988505747127"/>
      <point x="604.6666666666666" y="728.2988505747127" type="curve" smooth="yes"/>
      <point x="333.7701149425288" y="728.2988505747127" type="line"/>
      <point x="333.7701149425288" y="578.6436781609195" type="line"/>
      <point x="661.3563218390805" y="578.6436781609195" type="line"/>
      <point x="550.4137931034483" y="667.9770114942529" type="line"/>
      <point x="807.2643678160919" y="338.48275862068965" type="line"/>
      <point x="887.3563218390804" y="229.24137931034483"/>
      <point x="969.0344827586207" y="119.21839080459769"/>
    </contour>
    <contour>
      <point x="174.16091954022988" y="0.0" type="curve"/>
      <point x="380.8505747126437" y="0.0" type="line"/>
      <point x="376.45977011494256" y="158.41379310344828"/>
      <point x="370.87356321839087" y="294.82758620689657"/>
      <point x="366.4827586206897" y="471.2183908045977" type="curve"/>
      <point x="366.4827586206897" y="923.6781609195402" type="line"/>
      <point x="370.87356321839087" y="1101.2643678160919"/>
      <point x="376.45977011494256" y="1240.0689655172414"/>
      <point x="380.8505747126437" y="1399.6781609195402" type="curve"/>
      <point x="174.16091954022988" y="1426.0" type="line"/>
      <point x="178.55172413793105" y="1266.3908045977012"/>
      <point x="182.13793103448276" y="1129.9770114942528"/>
      <point x="187.72413793103448" y="950.0" type="curve"/>
      <point x="187.72413793103448" y="471.2183908045977" type="line"/>
      <point x="182.13793103448276" y="294.82758620689657"/>
      <point x="178.55172413793105" y="157.2183908045977"/>
    </contour>
  </outline>
</glyph>
<glyph name="S" format="2">
  <advance width="1172.712643678161"/>
  <unicode hex="0053"/>
  <anchor x="594.3678160919541" y="0.0" name="bottom"/>
  <anchor x="594.3678160919541" y="1426.0" name="top"/>
  <outline>
    <contour>
      <point x="599.2183908045977" y="-21.586206896551722" type="curve" smooth="yes"/>
      <point x="942.2988505747127" y="-21.586206896551722"/>
      <point x="1092.2528735632184" y="154.02298850574712"/>
      <point x="1092.2528735632184" y="386.735632183908" type="curve" smooth="yes"/>
      <point x="1092.2528735632184" y="599.0344827586207"/>
      <point x="983.0574712643678" y="695.0344827586207"/>
      <point x="640.2528735632184" y="804.2528735632184" type="curve" smooth="yes"/>
      <point x="401.67816091954023" y="880.3218390804598"/>
      <point x="299.60919540229884" y="935.9540229885057"/>
      <point x="299.60919540229884" y="1070.8735632183907" type="curve" smooth="yes"/>
      <point x="299.60919540229884" y="1226.2758620689656"/>
      <point x="434.55172413793105" y="1291.5402298850574"/>
      <point x="590.2988505747126" y="1295.5402298850574" type="curve"/>
      <point x="633.9080459770115" y="1295.5402298850574"/>
      <point x="818.6896551724138" y="1242.7356321839081"/>
      <point x="987.8620689655172" y="1181.9310344827584" type="curve"/>
      <point x="1003.8390804597701" y="1357.1494252873563" type="line"/>
      <point x="886.2988505747127" y="1389.9540229885056"/>
      <point x="665.9310344827586" y="1452.3908045977012"/>
      <point x="575.9770114942529" y="1452.3908045977012" type="curve" smooth="yes"/>
      <point x="268.8735632183908" y="1452.3908045977012"/>
      <point x="109.28735632183907" y="1286.4137931034484"/>
      <point x="109.28735632183907" y="1063.7011494252874" type="curve" smooth="yes"/>
      <point x="109.28735632183907" y="836.5977011494252"/>
      <point x="265.7011494252873" y="745.0114942528736"/>
      <point x="538.1379310344828" y="660.183908045977" type="curve" smooth="yes"/>
      <point x="769.471264367816" y="588.528735632184"/>
      <point x="903.1264367816092" y="528.0919540229885"/>
      <point x="903.1264367816092" y="377.17241379310343" type="curve" smooth="yes"/>
      <point x="903.1264367816092" y="202.5287356321839"/>
      <point x="766.9885057471264" y="138.0689655172414"/>
      <point x="598.0229885057472" y="134.0689655172414" type="curve"/>
      <point x="513.9540229885057" y="134.0689655172414"/>
      <point x="338.02298850574715" y="182.0689655172414"/>
      <point x="145.6551724137931" y="244.06896551724137" type="curve"/>
      <point x="128.8735632183908" y="68.45977011494253" type="line"/>
      <point x="299.65517241379314" y="22.436781609195407"/>
      <point x="498.41379310344826" y="-21.586206896551722"/>
    </contour>
  </outline>
</glyph>
<glyph name="U" format="2">
  <advance width="1460.7157894736843"/>
  <unicode hex="0055"/>
  <anchor x="732.3578947368421" y="0.0" name="bottom"/>
  <anchor x="920.4421052631579" y="0.0" name="ogonek"/>
  <anchor x="732.3578947368421" y="1426.0" name="top"/>
  <anchor x="1392.778947368421" y="1426.0" name="topright"/>
  <outline>
    <contour>
      <point x="731.4526315789474" y="-21.83157894736842" type="curve" smooth="yes"/>
      <point x="1122.6105263157895" y="-21.83157894736842"/>
      <point x="1297.5578947368422" y="189.6"/>
      <point x="1297.5578947368422" y="529.6842105263158" type="curve" smooth="yes"/>
      <point x="1297.5578947368422" y="611.1157894736842"/>
      <point x="1293.3684210526317" y="783.6631578947369"/>
      <point x="1293.3684210526317" y="949.4526315789474" type="curve"/>
      <point x="1299.2" y="1129.4736842105262"/>
      <point x="1303.3894736842105" y="1266.1894736842105"/>
      <point x="1308.126315789474" y="1426.0" type="curve"/>
      <point x="1099.4736842105262" y="1426.0" type="line"/>
      <point x="1104.2105263157896" y="1266.1894736842105"/>
      <point x="1106.9473684210527" y="1129.4736842105262"/>
      <point x="1112.778947368421" y="949.4526315789474" type="curve"/>
      <point x="1112.778947368421" y="549.6842105263158" type="line" smooth="yes"/>
      <point x="1112.778947368421" y="282.9263157894737"/>
      <point x="1014.1263157894737" y="138.67368421052632"/>
      <point x="730.9052631578948" y="134.4842105263158" type="curve"/>
      <point x="449.87368421052633" y="138.67368421052632"/>
      <point x="346.4842105263158" y="284.37894736842105"/>
      <point x="346.4842105263158" y="548.2315789473685" type="curve" smooth="yes"/>
      <point x="346.4842105263158" y="949.4526315789474" type="line"/>
      <point x="352.3157894736842" y="1129.4736842105262"/>
      <point x="356.5052631578948" y="1266.1894736842105"/>
      <point x="361.2421052631579" y="1426.0" type="curve"/>
      <point x="152.58947368421053" y="1426.0" type="line"/>
      <point x="157.32631578947368" y="1266.1894736842105"/>
      <point x="160.06315789473683" y="1129.4736842105262"/>
      <point x="165.89473684210526" y="949.4526315789474" type="curve"/>
      <point x="165.89473684210526" y="783.6631578947369"/>
      <point x="161.70526315789473" y="613.3052631578947"/>
      <point x="161.70526315789473" y="530.2315789473685" type="curve" smooth="yes"/>
      <point x="161.70526315789473" y="192.8842105263158"/>
      <point x="332.4421052631579" y="-21.83157894736842"/>
    </contour>
  </outline>
</glyph>
<glyph name="V" format="2">
  <advance width="1375.4105263157894"/>
  <unicode hex="0056"/>
  <anchor x="689.1578947368421" y="0.0" name="bottom"/>
  <anchor x="689.1578947368421" y="1426.0" name="top"/>
  <outline>
    <contour>
      <point x="553.2210526315789" y="0.0" type="curve"/>
      <point x="825.2631578947369" y="0.0" type="line"/>
      <point x="873.6" y="147.45263157894738"/>
      <point x="927.3894736842105" y="311.4526315789474"/>
      <point x="972.8210526315789" y="450.5473684210526" type="curve"/>
      <point x="1132.042105263158" y="900.0" type="line"/>
      <point x="1191.8526315789472" y="1052.9052631578948"/>
      <point x="1268.757894736842" y="1252.5473684210526"/>
      <point x="1336.5684210526317" y="1426.0" type="curve"/>
      <point x="1107.3263157894737" y="1426.0" type="line"/>
      <point x="1039.578947368421" y="1215.3473684210526"/>
      <point x="966.9263157894737" y="981.4105263157895"/>
      <point x="900.6315789473684" y="774.7578947368421" type="curve"/>
      <point x="698.2526315789473" y="187.49473684210528" type="line"/>
      <point x="680.7789473684211" y="187.49473684210528" type="line"/>
      <point x="480.2315789473684" y="772.7578947368421" type="line"/>
      <point x="414.4842105263158" y="977.0526315789474"/>
      <point x="336.021052631579" y="1220.6105263157895"/>
      <point x="269.7263157894737" y="1426.0" type="curve"/>
      <point x="36.8421052631579" y="1426.0" type="line"/>
      <point x="105.19999999999999" y="1251.8105263157895"/>
      <point x="183.9157894736842" y="1051.4526315789474"/>
      <point x="243.7263157894737" y="900.0" type="curve"/>
      <point x="404.7578947368421" y="452.0" type="line"/>
      <point x="449.64210526315793" y="315.4526315789474"/>
      <point x="508.3368421052632" y="139.09473684210525"/>
    </contour>
  </outline>
</glyph>
<glyph name="W" format="2">
  <advance width="2040.1473684210525"/>
  <unicode hex="0057"/>
  <anchor x="1016.0631578947368" y="0.0" name="bottom"/>
  <anchor x="1016.0631578947368" y="1426.0" name="top"/>
  <outline>
    <contour>
      <point x="450.94736842105266" y="0.0" type="curve"/>
      <point x="703.2421052631579" y="0.0" type="line"/>
      <point x="749.0105263157894" y="189.72631578947372"/>
      <point x="806.9473684210526" y="424.14736842105265"/>
      <point x="854.1684210526316" y="615.6842105263158" type="curve"/>
      <point x="1003.4947368421052" y="1172.1263157894737" type="line"/>
      <point x="1020.9684210526316" y="1172.1263157894737" type="line"/>
      <point x="1172.842105263158" y="616.2315789473685" type="line"/>
      <point x="1220.0631578947368" y="424.69473684210527"/>
      <point x="1278.5473684210526" y="194.0842105263158"/>
      <point x="1325.7684210526318" y="0.0" type="curve"/>
      <point x="1587.915789473684" y="0.0" type="line"/>
      <point x="1622.0842105263157" y="135.09473684210525"/>
      <point x="1666.6105263157895" y="308.0"/>
      <point x="1704.2315789473685" y="451.4526315789474" type="curve"/>
      <point x="1835.1157894736841" y="900.0" type="line"/>
      <point x="1885.1157894736841" y="1055.8105263157895"/>
      <point x="1949.3052631578946" y="1252.5473684210526"/>
      <point x="2006.4" y="1426.0" type="curve"/>
      <point x="1773.8736842105263" y="1426.0" type="line"/>
      <point x="1723.7473684210527" y="1224.9894736842105"/>
      <point x="1664.9052631578948" y="987.2631578947369"/>
      <point x="1615.3263157894737" y="789.3473684210526" type="curve"/>
      <point x="1461.4736842105262" y="213.57894736842107" type="line"/>
      <point x="1444.0" y="213.57894736842107" type="line"/>
      <point x="1292.1263157894737" y="787.3473684210526" type="line"/>
      <point x="1242.0" y="990.1684210526316"/>
      <point x="1186.421052631579" y="1222.0842105263157"/>
      <point x="1136.294736842105" y="1426.0" type="curve"/>
      <point x="900.4" y="1426.0" type="line"/>
      <point x="852.6315789473684" y="1225.8947368421052"/>
      <point x="794.6947368421053" y="984.3578947368421"/>
      <point x="747.4736842105264" y="789.3473684210526" type="curve"/>
      <point x="598.1473684210526" y="213.57894736842107" type="line"/>
      <point x="580.6736842105263" y="213.57894736842107" type="line"/>
      <point x="428.2736842105263" y="784.4421052631579" type="line"/>
      <point x="377.2421052631579" y="988.7157894736843"/>
      <point x="319.3052631578948" y="1221.178947368421"/>
      <point x="268.2736842105263" y="1426.0" type="curve"/>
      <point x="35.2" y="1426.0" type="line"/>
      <point x="90.84210526315789" y="1254.3578947368421"/>
      <point x="156.8421052631579" y="1052.0"/>
      <point x="206.8421052631579" y="897.0947368421052" type="curve"/>
      <point x="335.17894736842106" y="450.0" type="line"/>
      <point x="370.8" y="312.5473684210526"/>
      <point x="413.8736842105263" y="142.54736842105265"/>
    </contour>
  </outline>
</glyph>
<glyph name="X" format="2">
  <advance width="1372.1894736842105"/>
  <unicode hex="0058"/>
  <outline>
    <contour>
      <point x="61.01052631578947" y="0.0" type="curve"/>
      <point x="298.06315789473683" y="0.0" type="line"/>
      <point x="371.621052631579" y="124.12631578947368"/>
      <point x="433.5578947368422" y="232.2736842105263"/>
      <point x="496.40000000000003" y="340.58947368421053" type="curve"/>
      <point x="657.5368421052631" y="599.9368421052632" type="line"/>
      <point x="675.0105263157894" y="599.9368421052632" type="line"/>
      <point x="847.4105263157894" y="342.0421052631579" type="line"/>
      <point x="914.2526315789473" y="236.0842105263158"/>
      <point x="985.0947368421052" y="123.57894736842105"/>
      <point x="1064.1052631578948" y="0.0" type="curve"/>
      <point x="1312.821052631579" y="0.0" type="line"/>
      <point x="1202.294736842105" y="152.0"/>
      <point x="1105.221052631579" y="283.99999999999994"/>
      <point x="992.6947368421053" y="438.5473684210526" type="curve"/>
      <point x="781.3052631578947" y="749.6421052631579" type="line"/>
      <point x="781.3052631578947" y="692.1052631578947" type="line"/>
      <point x="986.3368421052631" y="1018.5052631578948" type="line"/>
      <point x="1064.5052631578947" y="1133.6"/>
      <point x="1159.221052631579" y="1272.8842105263159"/>
      <point x="1263.578947368421" y="1426.0" type="curve"/>
      <point x="1025.0736842105264" y="1426.0" type="line"/>
      <point x="951.3263157894737" y="1300.4"/>
      <point x="877.2210526315789" y="1174.0842105263157"/>
      <point x="811.8315789473684" y="1062.6736842105263" type="curve"/>
      <point x="677.578947368421" y="847.1157894736842" type="line"/>
      <point x="660.1052631578947" y="847.1157894736842" type="line"/>
      <point x="521.8526315789474" y="1061.221052631579" type="line"/>
      <point x="455.91578947368424" y="1169.7263157894738"/>
      <point x="380.7157894736842" y="1295.6842105263158"/>
      <point x="302.06315789473683" y="1426.0" type="curve"/>
      <point x="60.82105263157895" y="1426.0" type="line"/>
      <point x="173.34736842105264" y="1264.3578947368421"/>
      <point x="264.9684210526315" y="1131.2631578947369"/>
      <point x="358.0421052631579" y="998.1684210526316" type="curve"/>
      <point x="549.978947368421" y="704.5263157894736" type="line"/>
      <point x="549.978947368421" y="757.6842105263158" type="line"/>
      <point x="331.3263157894737" y="406.2105263157895" type="line"/>
      <point x="234.25263157894736" y="260.9263157894737"/>
      <point x="148.2736842105263" y="131.4736842105263"/>
    </contour>
  </outline>
</glyph>
<glyph name="bracketleft" format="2">
  <advance width="744.7368421052631"/>
  <unicode hex="005B"/>
  <outline>
    <contour>
      <point x="179.68421052631578" y="-233.85263157894738" type="curve"/>
      <point x="360.61052631578946" y="-233.85263157894738" type="line"/>
      <point x="360.61052631578946" y="-207.6" type="line"/>
      <point x="355.87368421052633" y="-49.43157894736842"/>
      <point x="351.13684210526316" y="88.73684210526316"/>
      <point x="345.85263157894735" y="264.9263157894737" type="curve"/>
      <point x="345.85263157894735" y="1029.7894736842106" type="line"/>
      <point x="351.13684210526316" y="1208.1684210526316"/>
      <point x="355.87368421052633" y="1346.5263157894738"/>
      <point x="360.61052631578946" y="1506.3368421052633" type="curve"/>
      <point x="360.61052631578946" y="1532.5894736842106" type="line"/>
      <point x="179.68421052631578" y="1532.5894736842106" type="line"/>
      <point x="183.8736842105263" y="1371.6842105263158"/>
      <point x="186.06315789473683" y="1236.0631578947368"/>
      <point x="191.34736842105264" y="1056.042105263158" type="curve"/>
      <point x="191.34736842105264" y="237.22105263157894" type="line"/>
      <point x="186.61052631578949" y="61.031578947368416"/>
      <point x="183.8736842105263" y="-76.77894736842106"/>
    </contour>
    <contour>
      <point x="322.90526315789475" y="-233.85263157894738" type="line"/>
      <point x="712.3368421052631" y="-233.85263157894738" type="line"/>
      <point x="712.3368421052631" y="-87.01052631578948" type="line"/>
      <point x="617.0736842105264" y="-89.19999999999999"/>
      <point x="516.0" y="-92.84210526315789"/>
      <point x="400.18947368421055" y="-95.57894736842105" type="curve"/>
      <point x="322.90526315789475" y="-95.57894736842105" type="line"/>
    </contour>
    <contour>
      <point x="314.14736842105265" y="1394.3157894736842" type="line"/>
      <point x="389.2631578947368" y="1394.3157894736842" type="line"/>
      <point x="525.9789473684211" y="1391.578947368421"/>
      <point x="622.6947368421053" y="1387.9368421052632"/>
      <point x="711.0526315789474" y="1385.7473684210527" type="curve"/>
      <point x="711.0526315789474" y="1532.5894736842106" type="line"/>
      <point x="314.14736842105265" y="1532.5894736842106" type="line"/>
    </contour>
  </outline>
</glyph>
<glyph name="backslash" format="2">
  <advance width="901.7263157894737"/>
  <unicode hex="005C"/>
  <outline>
    <contour>
      <point x="661.4105263157895" y="0.0" type="curve"/>
      <point x="848.7157894736843" y="0.0" type="line"/>
      <point x="781.8105263157896" y="148.18947368421053"/>
      <point x="725.4526315789474" y="273.6421052631579"/>
      <point x="642.1894736842106" y="456.0" type="curve"/>
      <point x="430.42105263157896" y="952.0" type="line"/>
      <point x="353.17894736842106" y="1143.4526315789474"/>
      <point x="301.2" y="1273.4526315789474"/>
      <point x="239.7684210526316" y="1426.0" type="curve"/>
      <point x="53.01052631578947" y="1426.0" type="line"/>
      <point x="125.36842105263156" y="1265.4526315789474"/>
      <point x="183.17894736842106" y="1138.0"/>
      <point x="268.4421052631579" y="948.0" type="curve"/>
      <point x="478.2105263157895" y="456.0" type="line"/>
      <point x="552.0000000000001" y="272.0"/>
      <point x="601.978947368421" y="148.0"/>
    </contour>
  </outline>
</glyph>
<glyph name="underscore" format="2">
  <advance width="803.7894736842105"/>
  <unicode hex="005F"/>
  <outline>
    <contour>
      <point x="-20.0" y="-248.96842105263158" type="line"/>
      <point x="105.30526315789474" y="-245.8736842105263"/>
      <point x="244.2315789473684" y="-242.77894736842106"/>
      <point x="326.2736842105263" y="-241.68421052631578" type="curve"/>
      <point x="477.5157894736842" y="-241.68421052631578" type="line"/>
      <point x="559.5578947368421" y="-242.77894736842106"/>
      <point x="698.4842105263158" y="-245.8736842105263"/>
      <point x="823.7894736842105" y="-248.96842105263158" type="curve"/>
      <point x="823.7894736842105" y="-96.29473684210527" type="line"/>
      <point x="698.4842105263158" y="-99.38947368421053"/>
      <point x="559.5578947368421" y="-102.48421052631579"/>
      <point x="477.5157894736842" y="-103.57894736842105" type="curve"/>
      <point x="326.2736842105263" y="-103.57894736842105" type="line"/>
      <point x="244.2315789473684" y="-102.48421052631579"/>
      <point x="105.30526315789474" y="-99.38947368421053"/>
      <point x="-20.0" y="-96.29473684210527" type="curve"/>
    </contour>
  </outline>
</glyph>
<glyph name="a" format="2">
  <advance width="1052.3218390804598"/>
  <unicode hex="0061"/>
  <anchor x="527.1954022988506" y="0.0" name="bottom"/>
  <anchor x="898.6206896551724" y="0.0" name="ogonek"/>
  <anchor x="527.1954022988506" y="992.7816091954023" name="top"/>
  <outline>
    <contour>
      <point x="402.11494252873564" y="-20.39080459770115" type="curve" smooth="yes"/>
      <point x="483.7931034482758" y="-20.39080459770115"/>
      <point x="622.6206896551723" y="48.50574712643677"/>
      <point x="740.5977011494253" y="139.70114942528735" type="curve"/>
      <point x="756.183908045977" y="139.70114942528735" type="line"/>
      <point x="795.7931034482758" y="0.0" type="line"/>
      <point x="961.0114942528736" y="0.0" type="line"/>
      <point x="935.0114942528736" y="105.14942528735632"/>
      <point x="916.6206896551724" y="187.88505747126436"/>
      <point x="897.816091954023" y="280.2528735632184" type="curve"/>
      <point x="897.816091954023" y="422.0" type="line" smooth="yes"/>
      <point x="897.816091954023" y="506.82758620689657"/>
      <point x="903.0114942528736" y="607.2183908045977"/>
      <point x="903.0114942528736" y="668.0" type="curve" smooth="yes"/>
      <point x="903.0114942528736" y="911.9770114942529"/>
      <point x="753.1034482758621" y="1015.1724137931035"/>
      <point x="538.3678160919541" y="1015.1724137931035" type="curve" smooth="yes"/>
      <point x="469.14942528735634" y="1015.1724137931035"/>
      <point x="239.28735632183907" y="967.5632183908046"/>
      <point x="147.70114942528735" y="945.9540229885058" type="curve"/>
      <point x="156.0919540229885" y="784.2988505747127" type="line"/>
      <point x="296.5287356321839" y="826.7126436781609"/>
      <point x="469.2643678160919" y="872.2758620689655"/>
      <point x="507.28735632183907" y="872.2758620689655" type="curve" smooth="yes"/>
      <point x="636.1609195402299" y="872.2758620689655"/>
      <point x="745.816091954023" y="829.471264367816"/>
      <point x="738.2068965517242" y="632.3678160919541" type="curve"/>
      <point x="426.8735632183908" y="578.2988505747127" type="line" smooth="yes"/>
      <point x="275.7241379310345" y="552.6896551724138"/>
      <point x="103.70114942528735" y="483.51724137931035"/>
      <point x="103.70114942528735" y="267.14942528735634" type="curve" smooth="yes"/>
      <point x="103.70114942528735" y="87.2183908045977"/>
      <point x="224.45977011494253" y="-20.39080459770115"/>
    </contour>
    <contour>
      <point x="449.9310344827586" y="115.72413793103449" type="curve" smooth="yes"/>
      <point x="350.57471264367814" y="115.72413793103449"/>
      <point x="272.0919540229885" y="158.98850574712645"/>
      <point x="272.0919540229885" y="273.9310344827586" type="curve" smooth="yes"/>
      <point x="272.0919540229885" y="384.8965517241379"/>
      <point x="353.4712643678161" y="440.5057471264368"/>
      <point x="467.60919540229884" y="461.3333333333333" type="curve" smooth="yes"/>
      <point x="655.3563218390805" y="494.9655172413793"/>
      <point x="702.5977011494252" y="509.7931034482759"/>
      <point x="734.6206896551724" y="527.7931034482758" type="curve"/>
      <point x="733.816091954023" y="279.4712643678161" type="line"/>
      <point x="637.3103448275862" y="190.16091954022986"/>
      <point x="502.85057471264366" y="115.72413793103449"/>
    </contour>
  </outline>
</glyph>
<glyph name="b" format="2">
  <advance width="1184.378947368421"/>
  <unicode hex="0062"/>
  <outline>
    <contour>
      <point x="659.4315789473684" y="-21.83157894736842" type="curve" smooth="yes"/>
      <point x="943.2210526315789" y="-21.83157894736842"/>
      <point x="1083.3684210526314" y="221.09473684210528"/>
      <point x="1083.3684210526314" y="499.09473684210525" type="curve" smooth="yes"/>
      <point x="1083.3684210526314" y="794.1894736842105"/>
      <point x="927.957894736842" y="1015.6631578947369"/>
      <point x="655.978947368421" y="1015.6631578947369" type="curve" smooth="yes"/>
      <point x="555.6842105263158" y="1015.6631578947369"/>
      <point x="445.7052631578947" y="944.421052631579"/>
      <point x="355.5368421052632" y="875.3263157894736" type="curve"/>
      <point x="338.0631578947369" y="875.3263157894736" type="line"/>
      <point x="338.0631578947369" y="987.4526315789474" type="line"/>
      <point x="344.44210526315794" y="1163.4736842105262"/>
      <point x="350.27368421052637" y="1325.3052631578948"/>
      <point x="355.5578947368421" y="1486.5684210526315" type="curve"/>
      <point x="145.09473684210525" y="1459.6421052631579" type="line"/>
      <point x="155.1157894736842" y="1309.621052631579"/>
      <point x="164.58947368421053" y="1154.1684210526316"/>
      <point x="172.96842105263158" y="987.4526315789474" type="curve"/>
      <point x="172.96842105263158" y="437.62105263157895" type="line"/>
      <point x="167.68421052631578" y="273.9789473684211"/>
      <point x="164.94736842105263" y="147.26315789473682"/>
      <point x="160.21052631578945" y="0.0" type="curve"/>
      <point x="304.88421052631577" y="0.0" type="line"/>
      <point x="322.3789473684211" y="131.60000000000002" type="line"/>
      <point x="338.21052631578954" y="131.60000000000002" type="line"/>
      <point x="445.32631578947365" y="43.22105263157895"/>
      <point x="570.5473684210526" y="-21.83157894736842"/>
    </contour>
    <contour>
      <point x="609.6210526315789" y="125.91578947368421" type="curve"/>
      <point x="523.1578947368421" y="130.46315789473684"/>
      <point x="414.1684210526316" y="199.85263157894738"/>
      <point x="338.0631578947369" y="276.33684210526314" type="curve"/>
      <point x="338.0631578947369" y="728.5894736842105" type="line"/>
      <point x="428.69473684210527" y="815.7684210526315"/>
      <point x="537.1368421052631" y="863.1789473684211"/>
      <point x="606.7157894736841" y="866.2736842105263" type="curve"/>
      <point x="813.4315789473684" y="860.2736842105263"/>
      <point x="914.0842105263157" y="700.2105263157895"/>
      <point x="914.0842105263157" y="498.0" type="curve" smooth="yes"/>
      <point x="914.0842105263157" y="304.69473684210527"/>
      <point x="821.2421052631579" y="131.9157894736842"/>
    </contour>
  </outline>
</glyph>
<glyph name="c" format="2">
  <advance width="988.6736842105263"/>
  <unicode hex="0063"/>
  <anchor x="571.2421052631579" y="0.0" name="bottom"/>
  <anchor x="558.1684210526316" y="992.3789473684211" name="top"/>
  <outline>
    <contour>
      <point x="601.9789473684211" y="-19.642105263157895" type="curve" smooth="yes"/>
      <point x="664.1473684210526" y="-19.642105263157895"/>
      <point x="814.1894736842106" y="14.88421052631579"/>
      <point x="899.0947368421052" y="43.05263157894737" type="curve"/>
      <point x="884.5473684210526" y="195.51578947368424" type="line"/>
      <point x="795.4947368421052" y="156.63157894736844"/>
      <point x="672.8000000000001" y="124.27368421052633"/>
      <point x="634.8210526315789" y="124.27368421052633" type="curve" smooth="yes"/>
      <point x="392.9684210526316" y="129.17894736842103"/>
      <point x="268.65263157894736" y="285.6"/>
      <point x="268.65263157894736" y="500.37894736842105" type="curve" smooth="yes"/>
      <point x="268.65263157894736" y="725.1157894736842"/>
      <point x="400.18947368421055" y="861.9157894736842"/>
      <point x="598.5684210526316" y="867.9157894736842" type="curve"/>
      <point x="630.7368421052631" y="867.9157894736842"/>
      <point x="760.1894736842105" y="832.4631578947369"/>
      <point x="880.9052631578948" y="788.1052631578947" type="curve"/>
      <point x="896.3789473684211" y="942.7578947368421" type="line"/>
      <point x="807.7894736842105" y="970.0421052631579"/>
      <point x="642.1473684210528" y="1015.1157894736842"/>
      <point x="582.3368421052631" y="1015.1157894736842" type="curve" smooth="yes"/>
      <point x="274.82105263157894" y="1015.1157894736842"/>
      <point x="99.91578947368421" y="792.021052631579"/>
      <point x="99.91578947368421" y="496.5473684210526" type="curve" smooth="yes"/>
      <point x="99.91578947368421" y="203.07368421052632"/>
      <point x="282.12631578947367" y="-19.642105263157895"/>
    </contour>
  </outline>
</glyph>
<glyph name="d" format="2">
  <advance width="1156.042105263158"/>
  <unicode hex="0064"/>
  <anchor x="620.7578947368421" y="0.0" name="bottom"/>
  <anchor x="581.8315789473684" y="496.18947368421055" name="center"/>
  <anchor x="620.7578947368421" y="1451.4736842105262" name="top"/>
  <anchor x="1107.5157894736842" y="992.3789473684211" name="topright"/>
  <outline>
    <contour>
      <point x="524.9473684210526" y="-21.83157894736842" type="curve" smooth="yes"/>
      <point x="613.8315789473685" y="-21.83157894736842"/>
      <point x="737.4105263157895" y="42.67368421052632"/>
      <point x="843.4315789473684" y="131.6" type="curve"/>
      <point x="859.2631578947369" y="131.6" type="line"/>
      <point x="870.3789473684211" y="0.0" type="line"/>
      <point x="1025.621052631579" y="0.0" type="line"/>
      <point x="1020.8842105263158" y="147.26315789473682"/>
      <point x="1016.6947368421053" y="273.9789473684211"/>
      <point x="1011.4105263157895" y="437.62105263157895" type="curve"/>
      <point x="1011.4105263157895" y="987.4526315789474" type="line"/>
      <point x="1017.7894736842106" y="1163.4736842105262"/>
      <point x="1023.621052631579" y="1325.3052631578948"/>
      <point x="1028.9052631578948" y="1486.5684210526315" type="curve"/>
      <point x="818.4421052631578" y="1459.6421052631579" type="line"/>
      <point x="828.4631578947368" y="1309.621052631579"/>
      <point x="837.936842105263" y="1154.1684210526316"/>
      <point x="846.3157894736842" y="987.4526315789474" type="curve"/>
      <point x="846.3157894736842" y="875.3263157894736" type="line"/>
      <point x="828.8421052631579" y="875.3263157894736" type="line"/>
      <point x="738.6736842105263" y="944.421052631579"/>
      <point x="628.6947368421054" y="1015.6631578947369"/>
      <point x="528.4" y="1015.6631578947369" type="curve" smooth="yes"/>
      <point x="256.42105263157896" y="1015.6631578947369"/>
      <point x="101.01052631578948" y="794.1894736842105"/>
      <point x="101.01052631578948" y="499.09473684210525" type="curve" smooth="yes"/>
      <point x="101.01052631578948" y="221.09473684210528"/>
      <point x="241.1578947368421" y="-21.83157894736842"/>
    </contour>
    <contour>
      <point x="574.7578947368421" y="125.91578947368421" type="curve"/>
      <point x="363.13684210526316" y="131.9157894736842"/>
      <point x="270.2947368421053" y="304.69473684210527"/>
      <point x="270.2947368421053" y="498.0" type="curve" smooth="yes"/>
      <point x="270.2947368421053" y="700.2105263157895"/>
      <point x="370.94736842105266" y="860.2736842105263"/>
      <point x="577.6631578947369" y="866.2736842105263" type="curve"/>
      <point x="647.242105263158" y="863.1789473684211"/>
      <point x="755.6842105263158" y="815.7684210526315"/>
      <point x="846.3157894736842" y="728.5894736842105" type="curve"/>
      <point x="846.3157894736842" y="276.33684210526314" type="line"/>
      <point x="770.2105263157895" y="199.85263157894738"/>
      <point x="661.2210526315789" y="130.46315789473684"/>
    </contour>
  </outline>
</glyph>
<glyph name="f" format="2">
  <advance width="788.9894736842106"/>
  <unicode hex="0066"/>
  <outline>
    <contour>
      <point x="223.8736842105263" y="0.0" type="curve"/>
      <point x="415.93684210526317" y="0.0" type="line"/>
      <point x="411.20000000000005" y="147.26315789473682"/>
      <point x="407.0105263157895" y="273.9789473684211"/>
      <point x="401.7263157894737" y="437.62105263157895" type="curve"/>
      <point x="401.7263157894737" y="954.5263157894736" type="line"/>
      <point x="403.91578947368424" y="992.3789473684211" type="line"/>
      <point x="397.89473684210526" y="1016.7368421052631"/>
      <point x="387.4947368421053" y="1080.336842105263"/>
      <point x="387.4947368421053" y="1122.2947368421053" type="curve" smooth="yes"/>
      <point x="387.4947368421053" y="1269.9789473684211"/>
      <point x="458.37894736842105" y="1346.2736842105264"/>
      <point x="614.6105263157895" y="1346.2736842105264" type="curve" smooth="yes"/>
      <point x="626.6105263157895" y="1346.2736842105264"/>
      <point x="698.8000000000001" y="1334.6315789473683"/>
      <point x="765.1789473684211" y="1320.9894736842105" type="curve"/>
      <point x="779.7473684210527" y="1474.1894736842105" type="line"/>
      <point x="727.1578947368421" y="1481.2842105263157"/>
      <point x="625.8315789473684" y="1490.7368421052631"/>
      <point x="599.2842105263157" y="1490.7368421052631" type="curve" smooth="yes"/>
      <point x="402.33684210526314" y="1490.7368421052631"/>
      <point x="228.61052631578946" y="1404.0210526315789"/>
      <point x="228.61052631578946" y="1121.7473684210527" type="curve" smooth="yes"/>
      <point x="228.61052631578946" y="896.9684210526316"/>
      <point x="236.6315789473684" y="699.7894736842105"/>
      <point x="236.6315789473684" y="536.1684210526315" type="curve"/>
      <point x="236.6315789473684" y="437.62105263157895" type="line"/>
      <point x="231.3473684210526" y="273.9789473684211"/>
      <point x="228.61052631578946" y="147.26315789473682"/>
    </contour>
    <contour>
      <point x="48.694736842105264" y="848.2736842105263" type="line"/>
      <point x="284.18947368421055" y="867.578947368421" type="line"/>
      <point x="351.6421052631579" y="867.578947368421" type="line"/>
      <point x="479.4315789473684" y="862.2947368421053"/>
      <point x="605.578947368421" y="855.5578947368422"/>
      <point x="738.4631578947368" y="848.2736842105263" type="curve"/>
      <point x="738.4631578947368" y="992.3789473684211" type="line"/>
      <point x="48.694736842105264" y="992.3789473684211" type="line"/>
    </contour>
  </outline>
</glyph>
<glyph name="g" format="2">
  <advance width="1086.344827586207"/>
  <unicode hex="0067"/>
  <anchor x="540.3678160919541" y="-384.0" name="bottom"/>
  <anchor x="526.6896551724138" y="992.7816091954023" name="top"/>
  <outline>
    <contour>
      <point x="486.82758620689657" y="-406.39080459770116" type="curve" smooth="yes"/>
      <point x="720.3448275862069" y="-406.39080459770116"/>
      <point x="993.0574712643678" y="-297.17241379310343"/>
      <point x="993.0574712643678" y="-65.70114942528735" type="curve" smooth="yes"/>
      <point x="993.0574712643678" y="100.59770114942529"/>
      <point x="870.3448275862069" y="160.20689655172413"/>
      <point x="594.2758620689656" y="160.20689655172413" type="curve" smooth="yes"/>
      <point x="550.6666666666666" y="160.20689655172413" type="line" smooth="yes"/>
      <point x="403.7701149425287" y="160.20689655172413"/>
      <point x="344.9425287356322" y="177.0344827586207"/>
      <point x="344.9425287356322" y="234.71264367816093" type="curve" smooth="yes"/>
      <point x="344.9425287356322" y="289.1954022988506"/>
      <point x="410.57471264367814" y="309.2183908045977"/>
      <point x="551.4712643678162" y="342.04597701149424" type="curve" smooth="yes"/>
      <point x="745.9080459770115" y="387.2643678160919"/>
      <point x="874.6666666666666" y="483.2413793103448"/>
      <point x="874.6666666666666" y="680.4137931034483" type="curve" smooth="yes"/>
      <point x="874.6666666666666" y="795.2183908045977"/>
      <point x="825.8390804597701" y="891.6551724137931"/>
      <point x="708.9425287356322" y="948.4597701149426" type="curve"/>
      <point x="661.8390804597701" y="887.4022988505748" type="line"/>
      <point x="788.6666666666666" y="875.4252873563219"/>
      <point x="911.9080459770115" y="866.6436781609195"/>
      <point x="1043.9310344827586" y="854.6666666666666" type="curve"/>
      <point x="1043.9310344827586" y="993.9770114942529" type="line"/>
      <point x="735.4252873563219" y="993.9770114942529" type="line" smooth="yes"/>
      <point x="624.2988505747127" y="993.9770114942529"/>
      <point x="580.3218390804598" y="1015.1724137931035"/>
      <point x="485.17241379310343" y="1015.1724137931035" type="curve" smooth="yes"/>
      <point x="248.5287356321839" y="1015.1724137931035"/>
      <point x="97.28735632183908" y="884.4137931034483"/>
      <point x="97.28735632183908" y="692.0" type="curve" smooth="yes"/>
      <point x="97.28735632183908" y="541.9540229885057"/>
      <point x="243.79310344827584" y="441.1264367816092"/>
      <point x="336.94252873563215" y="383.58620689655174" type="curve"/>
      <point x="336.94252873563215" y="370.0" type="line"/>
      <point x="232.94252873563218" y="332.4367816091954"/>
      <point x="189.70114942528735" y="276.85057471264366"/>
      <point x="189.70114942528735" y="206.02298850574712" type="curve" smooth="yes"/>
      <point x="189.70114942528735" y="113.63218390804597"/>
      <point x="259.28735632183907" y="75.63218390804599"/>
      <point x="299.3103448275862" y="62.4367816091954" type="curve"/>
      <point x="299.3103448275862" y="47.6551724137931" type="line"/>
      <point x="214.89655172413794" y="3.6551724137931023"/>
      <point x="106.06896551724138" y="-78.36781609195403"/>
      <point x="106.06896551724138" y="-171.97701149425288" type="curve" smooth="yes"/>
      <point x="106.06896551724138" y="-286.367816091954"/>
      <point x="192.04597701149424" y="-406.39080459770116"/>
    </contour>
    <contour>
      <point x="507.9310344827586" y="-271.8620689655172" type="curve"/>
      <point x="324.52873563218395" y="-267.8620689655172"/>
      <point x="258.91954022988506" y="-207.79310344827587"/>
      <point x="258.91954022988506" y="-137.70114942528735" type="curve" smooth="yes"/>
      <point x="258.91954022988506" y="-81.60919540229887"/>
      <point x="380.9885057471264" y="-11.517241379310343"/>
      <point x="466.6896551724138" y="21.701149425287355" type="curve"/>
      <point x="555.6321839080459" y="21.701149425287355" type="line" smooth="yes"/>
      <point x="777.0114942528735" y="21.701149425287355"/>
      <point x="835.4252873563219" y="-13.517241379310349"/>
      <point x="835.4252873563219" y="-91.2183908045977" type="curve" smooth="yes"/>
      <point x="835.4252873563219" y="-171.72413793103448"/>
      <point x="714.5517241379309" y="-261.8850574712643"/>
    </contour>
    <contour>
      <point x="469.17241379310343" y="452.59770114942523" type="curve"/>
      <point x="365.44827586206895" y="507.81609195402297"/>
      <point x="252.52873563218392" y="589.4942528735631"/>
      <point x="252.52873563218392" y="680.0459770114943" type="curve" smooth="yes"/>
      <point x="252.52873563218392" y="810.6206896551724"/>
      <point x="361.0344827586207" y="870.2758620689655"/>
      <point x="485.1954022988506" y="874.6666666666666" type="curve"/>
      <point x="592.8505747126437" y="868.6666666666666"/>
      <point x="719.4252873563219" y="814.6206896551724"/>
      <point x="719.4252873563219" y="669.6551724137931" type="curve" smooth="yes"/>
      <point x="719.4252873563219" y="516.6206896551724"/>
      <point x="572.8735632183908" y="475.816091954023"/>
    </contour>
  </outline>
</glyph>
<glyph name="h" format="2">
  <advance width="1152.4210526315787"/>
  <unicode hex="0068"/>
  <guideline x="115.6842105263158" y="734.2842105263157" angle="4.470799999999997"/>
  <anchor x="585.1157894736842" y="0.0" name="bottom"/>
  <anchor x="585.1157894736842" y="818.0" name="center"/>
  <anchor x="544.5473684210526" y="1451.4736842105262" name="top"/>
  <outline>
    <contour>
      <point x="160.21052631578945" y="0.0" type="curve"/>
      <point x="352.27368421052637" y="0.0" type="line"/>
      <point x="347.53684210526325" y="146.7157894736842"/>
      <point x="342.80000000000007" y="273.9789473684211"/>
      <point x="338.0631578947369" y="430.5052631578947" type="curve"/>
      <point x="338.0631578947369" y="669.1578947368422" type="line"/>
      <point x="443.41052631578947" y="777.4105263157895"/>
      <point x="573.8526315789472" y="859.7052631578947"/>
      <point x="639.0526315789473" y="859.7052631578947" type="curve" smooth="yes"/>
      <point x="787.2842105263157" y="859.7052631578947"/>
      <point x="835.2421052631579" y="773.3894736842105"/>
      <point x="835.2421052631579" y="603.8315789473684" type="curve"/>
      <point x="835.2421052631579" y="430.5052631578947" type="line"/>
      <point x="831.0526315789474" y="273.9789473684211"/>
      <point x="828.3157894736843" y="146.7157894736842"/>
      <point x="824.1263157894738" y="0.0" type="curve"/>
      <point x="1015.0947368421052" y="0.0" type="line"/>
      <point x="1010.3578947368421" y="146.7157894736842"/>
      <point x="1005.6210526315789" y="273.9789473684211"/>
      <point x="1000.3368421052631" y="437.62105263157895" type="curve"/>
      <point x="1000.3368421052631" y="496.7368421052632"/>
      <point x="1004.5263157894738" y="573.6631578947369"/>
      <point x="1004.5263157894738" y="660.2105263157895" type="curve" smooth="yes"/>
      <point x="1004.5263157894738" y="891.4947368421052"/>
      <point x="910.1263157894737" y="1015.6631578947369"/>
      <point x="696.3368421052631" y="1015.6631578947369" type="curve" smooth="yes"/>
      <point x="592.7578947368421" y="1015.6631578947369"/>
      <point x="441.91578947368424" y="902.4631578947368"/>
      <point x="356.0842105263158" y="824.2736842105263" type="curve"/>
      <point x="338.0631578947369" y="824.2736842105263" type="line"/>
      <point x="338.0631578947369" y="987.4526315789474" type="line"/>
      <point x="344.44210526315794" y="1163.4736842105262"/>
      <point x="350.27368421052637" y="1325.3052631578946"/>
      <point x="355.5578947368422" y="1486.5684210526315" type="curve"/>
      <point x="145.09473684210525" y="1459.6421052631579" type="line"/>
      <point x="155.1157894736842" y="1309.621052631579"/>
      <point x="164.58947368421053" y="1154.1684210526316"/>
      <point x="172.96842105263158" y="987.4526315789474" type="curve"/>
      <point x="172.96842105263158" y="437.62105263157895" type="line"/>
      <point x="167.68421052631578" y="273.9789473684211"/>
      <point x="164.94736842105263" y="147.26315789473682"/>
    </contour>
  </outline>
</glyph>
<glyph name="k" format="2">
  <advance width="1087.2842105263157"/>
  <unicode hex="006B"/>
  <anchor x="555.7052631578947" y="0.0" name="bottom"/>
  <anchor x="555.7052631578947" y="1451.4736842105262" name="top"/>
  <outline>
    <contour>
      <point x="817.0736842105264" y="0.0" type="curve"/>
      <point x="1058.9894736842107" y="0.0" type="line"/>
      <point x="933.4105263157895" y="117.28421052631579"/>
      <point x="810.1894736842105" y="233.66315789473686"/>
      <point x="684.6105263157895" y="350.94736842105266" type="curve"/>
      <point x="483.22105263157897" y="551.9368421052632" type="line"/>
      <point x="489.24210526315795" y="472.33684210526314" type="line"/>
      <point x="660.2526315789473" y="642.7157894736843" type="line"/>
      <point x="782.9263157894736" y="759.4526315789474"/>
      <point x="899.7894736842105" y="874.1894736842105"/>
      <point x="1024.4631578947367" y="992.3789473684211" type="curve"/>
      <point x="794.7578947368421" y="992.3789473684211" type="line"/>
      <point x="707.9368421052632" y="899.3052631578947"/>
      <point x="620.2105263157895" y="805.3263157894737"/>
      <point x="533.3894736842105" y="712.2526315789473" type="curve"/>
      <point x="384.6105263157895" y="560.4631578947368" type="line"/>
      <point x="319.13684210526316" y="560.4631578947368" type="line"/>
      <point x="319.13684210526316" y="442.06315789473683" type="line"/>
      <point x="374.4421052631579" y="442.06315789473683" type="line"/>
      <point x="551.7263157894737" y="272.65263157894736" type="line"/>
      <point x="640.3578947368421" y="181.76842105263157"/>
      <point x="728.9894736842106" y="90.88421052631578"/>
    </contour>
    <contour>
      <point x="160.21052631578945" y="0.0" type="curve"/>
      <point x="352.27368421052637" y="0.0" type="line"/>
      <point x="347.53684210526325" y="140.14736842105262"/>
      <point x="342.80000000000007" y="261.93684210526317"/>
      <point x="338.0631578947369" y="411.89473684210526" type="curve"/>
      <point x="338.0631578947369" y="987.4526315789474" type="line"/>
      <point x="344.44210526315794" y="1163.4736842105262"/>
      <point x="350.27368421052637" y="1325.3052631578946"/>
      <point x="355.5578947368422" y="1486.5684210526315" type="curve"/>
      <point x="145.09473684210525" y="1459.6421052631579" type="line"/>
      <point x="155.1157894736842" y="1309.621052631579"/>
      <point x="164.58947368421053" y="1154.1684210526316"/>
      <point x="172.96842105263158" y="987.4526315789474" type="curve"/>
      <point x="172.96842105263158" y="437.62105263157895" type="line"/>
      <point x="167.68421052631578" y="273.9789473684211"/>
      <point x="164.94736842105263" y="147.26315789473682"/>
    </contour>
  </outline>
</glyph>
<glyph name="l" format="2">
  <advance width="511.0315789473685"/>
  <unicode hex="006C"/>
  <anchor x="255.51578947368424" y="0.0" name="bottom"/>
  <anchor x="258.2526315789474" y="818.0" name="center"/>
  <anchor x="255.51578947368424" y="1451.4736842105262" name="top"/>
  <anchor x="432.88421052631577" y="992.3789473684211" name="topright"/>
  <outline>
    <contour>
      <point x="160.21052631578945" y="0.0" type="curve"/>
      <point x="352.27368421052637" y="0.0" type="line"/>
      <point x="347.53684210526325" y="147.26315789473682"/>
      <point x="343.3473684210527" y="273.9789473684211"/>
      <point x="338.0631578947369" y="437.62105263157895" type="curve"/>
      <point x="338.0631578947369" y="987.4526315789474" type="line"/>
      <point x="344.44210526315794" y="1163.4736842105262"/>
      <point x="350.27368421052637" y="1325.3052631578948"/>
      <point x="355.5578947368421" y="1486.5684210526315" type="curve"/>
      <point x="145.09473684210525" y="1459.6421052631579" type="line"/>
      <point x="155.1157894736842" y="1309.621052631579"/>
      <point x="164.58947368421053" y="1154.1684210526316"/>
      <point x="172.96842105263158" y="987.4526315789474" type="curve"/>
      <point x="172.96842105263158" y="437.62105263157895" type="line"/>
      <point x="167.68421052631578" y="273.9789473684211"/>
      <point x="164.94736842105263" y="147.26315789473682"/>
    </contour>
  </outline>
</glyph>
<glyph name="m" format="2">
  <advance width="1761.6631578947367"/>
  <unicode hex="006D"/>
  <anchor x="900.3578947368421" y="0.0" name="bottom"/>
  <anchor x="900.3578947368421" y="992.3789473684211" name="top"/>
  <outline>
    <contour>
      <point x="171.1157894736842" y="0.0" type="curve"/>
      <point x="363.17894736842106" y="0.0" type="line"/>
      <point x="358.44210526315794" y="146.7157894736842"/>
      <point x="353.7052631578948" y="273.9789473684211"/>
      <point x="348.96842105263164" y="430.5052631578947" type="curve"/>
      <point x="348.96842105263164" y="669.1578947368422" type="line"/>
      <point x="454.3157894736842" y="777.4105263157894"/>
      <point x="569.1368421052631" y="859.7052631578947"/>
      <point x="633.4315789473684" y="859.7052631578947" type="curve" smooth="yes"/>
      <point x="772.7578947368421" y="859.7052631578947"/>
      <point x="817.8105263157894" y="773.3894736842105"/>
      <point x="817.8105263157894" y="603.8315789473684" type="curve"/>
      <point x="817.8105263157894" y="430.5052631578947" type="line"/>
      <point x="813.6210526315789" y="273.9789473684211"/>
      <point x="810.8842105263158" y="146.7157894736842"/>
      <point x="806.6947368421052" y="0.0" type="curve"/>
      <point x="997.6631578947369" y="0.0" type="line"/>
      <point x="992.9263157894737" y="146.7157894736842"/>
      <point x="988.1894736842105" y="273.9789473684211"/>
      <point x="982.9052631578948" y="437.62105263157895" type="curve"/>
      <point x="982.9052631578948" y="496.7368421052632"/>
      <point x="987.0947368421054" y="573.6631578947369"/>
      <point x="987.0947368421054" y="660.2105263157895" type="curve" smooth="yes"/>
      <point x="987.0947368421054" y="702.0421052631579"/>
      <point x="984.0000000000001" y="739.8736842105263"/>
      <point x="976.9052631578948" y="775.5157894736842" type="curve"/>
      <point x="965.5999999999999" y="781.3263157894737" type="line"/>
      <point x="937.7684210526315" y="936.0421052631579"/>
      <point x="848.1263157894737" y="1015.6631578947369"/>
      <point x="691.6210526315789" y="1015.6631578947369" type="curve" smooth="yes"/>
      <point x="585.8526315789472" y="1015.6631578947369"/>
      <point x="443.5157894736842" y="900.8210526315789"/>
      <point x="351.66315789473686" y="820.9894736842106" type="curve"/>
      <point x="333.64210526315793" y="820.9894736842106" type="line"/>
      <point x="319.45263157894743" y="1002.2105263157895" type="line"/>
      <point x="154.92631578947368" y="992.3789473684211" type="line"/>
      <point x="165.3052631578947" y="872.8631578947369"/>
      <point x="176.04210526315788" y="753.7263157894737"/>
      <point x="183.8736842105263" y="640.757894736842" type="curve"/>
      <point x="183.8736842105263" y="437.62105263157895" type="line"/>
      <point x="178.5894736842105" y="273.9789473684211"/>
      <point x="175.85263157894735" y="147.26315789473682"/>
    </contour>
    <contour>
      <point x="1433.3684210526317" y="0.0" type="curve"/>
      <point x="1624.3368421052633" y="0.0" type="line"/>
      <point x="1619.6" y="146.7157894736842"/>
      <point x="1614.8631578947368" y="273.9789473684211"/>
      <point x="1609.578947368421" y="437.62105263157895" type="curve"/>
      <point x="1609.578947368421" y="496.7368421052632"/>
      <point x="1613.7684210526315" y="573.6631578947369"/>
      <point x="1613.7684210526315" y="660.2105263157895" type="curve" smooth="yes"/>
      <point x="1613.7684210526315" y="891.4947368421053"/>
      <point x="1519.3684210526314" y="1015.6631578947369"/>
      <point x="1318.2947368421053" y="1015.6631578947369" type="curve" smooth="yes"/>
      <point x="1211.978947368421" y="1015.6631578947369"/>
      <point x="1068.5473684210526" y="903.1789473684211"/>
      <point x="971.7894736842105" y="814.9894736842106" type="curve"/>
      <point x="952.6736842105263" y="814.9894736842106" type="line"/>
      <point x="975.0947368421052" y="669.1578947368422" type="line"/>
      <point x="1080.4421052631578" y="777.4105263157895"/>
      <point x="1195.8105263157897" y="859.7052631578947"/>
      <point x="1260.1052631578948" y="859.7052631578947" type="curve" smooth="yes"/>
      <point x="1399.4315789473683" y="859.7052631578947"/>
      <point x="1444.4842105263158" y="773.3894736842105"/>
      <point x="1444.4842105263158" y="603.8315789473684" type="curve"/>
      <point x="1444.4842105263158" y="430.5052631578947" type="line"/>
      <point x="1440.2947368421053" y="273.9789473684211"/>
      <point x="1437.5578947368422" y="146.7157894736842"/>
    </contour>
  </outline>
</glyph>
<glyph name="n" format="2">
  <advance width="1163.3263157894735"/>
  <unicode hex="006E"/>
  <anchor x="590.7368421052631" y="0.0" name="bottom"/>
  <anchor x="590.7368421052631" y="992.3789473684211" name="top"/>
  <outline>
    <contour>
      <point x="171.1157894736842" y="0.0" type="curve"/>
      <point x="363.17894736842106" y="0.0" type="line"/>
      <point x="358.44210526315794" y="146.7157894736842"/>
      <point x="353.7052631578948" y="273.9789473684211"/>
      <point x="348.96842105263164" y="430.5052631578947" type="curve"/>
      <point x="348.96842105263164" y="669.1578947368422" type="line"/>
      <point x="454.3157894736842" y="777.4105263157895"/>
      <point x="584.757894736842" y="859.7052631578947"/>
      <point x="649.957894736842" y="859.7052631578947" type="curve" smooth="yes"/>
      <point x="798.1894736842105" y="859.7052631578947"/>
      <point x="846.1473684210526" y="773.3894736842105"/>
      <point x="846.1473684210526" y="603.8315789473684" type="curve"/>
      <point x="846.1473684210526" y="430.5052631578947" type="line"/>
      <point x="841.9578947368421" y="273.9789473684211"/>
      <point x="839.221052631579" y="146.7157894736842"/>
      <point x="835.0315789473684" y="0.0" type="curve"/>
      <point x="1026.0" y="0.0" type="line"/>
      <point x="1021.2631578947369" y="146.7157894736842"/>
      <point x="1016.5263157894736" y="273.9789473684211"/>
      <point x="1011.2421052631579" y="437.62105263157895" type="curve"/>
      <point x="1011.2421052631579" y="496.7368421052632"/>
      <point x="1015.4315789473685" y="573.6631578947369"/>
      <point x="1015.4315789473685" y="660.2105263157895" type="curve" smooth="yes"/>
      <point x="1015.4315789473685" y="891.4947368421052"/>
      <point x="921.0315789473684" y="1015.6631578947369"/>
      <point x="707.2421052631579" y="1015.6631578947369" type="curve" smooth="yes"/>
      <point x="600.378947368421" y="1015.6631578947369"/>
      <point x="443.5157894736842" y="900.8210526315789"/>
      <point x="351.66315789473686" y="820.9894736842106" type="curve"/>
      <point x="333.64210526315793" y="820.9894736842106" type="line"/>
      <point x="319.45263157894743" y="1002.2105263157895" type="line"/>
      <point x="154.92631578947368" y="992.3789473684211" type="line"/>
      <point x="165.3052631578947" y="872.8631578947369"/>
      <point x="176.04210526315788" y="753.7263157894737"/>
      <point x="183.8736842105263" y="640.757894736842" type="curve"/>
      <point x="183.8736842105263" y="437.62105263157895" type="line"/>
      <point x="178.5894736842105" y="273.9789473684211"/>
      <point x="175.85263157894735" y="147.26315789473682"/>
    </contour>
  </outline>
</glyph>
<glyph name="p" format="2">
  <advance width="1195.2842105263157"/>
  <unicode hex="0070"/>
  <outline>
    <contour>
      <point x="169.66315789473683" y="-390.18947368421055" type="curve"/>
      <point x="365.91578947368424" y="-384.0" type="line"/>
      <point x="360.0842105263158" y="-237.2842105263158"/>
      <point x="355.3473684210527" y="-110.02105263157895"/>
      <point x="348.96842105263164" y="46.50526315789474" type="curve"/>
      <point x="348.96842105263164" y="124.48421052631579" type="line"/>
      <point x="363.70526315789476" y="124.48421052631579" type="line"/>
      <point x="465.34736842105264" y="41.03157894736842"/>
      <point x="584.7368421052631" y="-21.83157894736842"/>
      <point x="670.3368421052631" y="-21.83157894736842" type="curve" smooth="yes"/>
      <point x="954.1263157894737" y="-21.83157894736842"/>
      <point x="1094.2736842105262" y="221.09473684210528"/>
      <point x="1094.2736842105262" y="499.09473684210525" type="curve" smooth="yes"/>
      <point x="1094.2736842105262" y="794.1894736842105"/>
      <point x="938.8631578947368" y="1015.6631578947369"/>
      <point x="666.8842105263158" y="1015.6631578947369" type="curve" smooth="yes"/>
      <point x="564.4000000000001" y="1015.6631578947369"/>
      <point x="446.5894736842105" y="939.6842105263158"/>
      <point x="352.58947368421053" y="864.757894736842" type="curve"/>
      <point x="335.11578947368423" y="864.757894736842" type="line"/>
      <point x="323.83157894736837" y="1002.2105263157895" type="line"/>
      <point x="154.92631578947368" y="992.3789473684211" type="line"/>
      <point x="165.3052631578947" y="872.8631578947369"/>
      <point x="176.04210526315788" y="753.7263157894737"/>
      <point x="183.8736842105263" y="640.757894736842" type="curve"/>
      <point x="183.8736842105263" y="53.62105263157895" type="line"/>
      <point x="178.5894736842105" y="-110.02105263157895"/>
      <point x="174.39999999999998" y="-243.47368421052633"/>
    </contour>
    <contour>
      <point x="620.5263157894736" y="125.91578947368421" type="curve"/>
      <point x="534.0631578947368" y="130.46315789473684"/>
      <point x="425.0736842105263" y="199.85263157894738"/>
      <point x="348.96842105263164" y="276.33684210526314" type="curve"/>
      <point x="348.96842105263164" y="728.5894736842105" type="line"/>
      <point x="439.59999999999997" y="815.7684210526315"/>
      <point x="548.0421052631579" y="863.1789473684211"/>
      <point x="617.6210526315789" y="866.2736842105263" type="curve"/>
      <point x="824.3368421052631" y="860.2736842105263"/>
      <point x="924.9894736842105" y="700.2105263157895"/>
      <point x="924.9894736842105" y="498.0" type="curve" smooth="yes"/>
      <point x="924.9894736842105" y="304.69473684210527"/>
      <point x="832.1473684210526" y="131.9157894736842"/>
    </contour>
  </outline>
</glyph>
<glyph name="q" format="2">
  <advance width="1174.1894736842105"/>
  <unicode hex="0071"/>
  <outline>
    <contour>
      <point x="832.1052631578947" y="-390.18947368421055" type="curve"/>
      <point x="1025.621052631579" y="-384.0" type="line"/>
      <point x="1020.8842105263158" y="-236.73684210526318"/>
      <point x="1016.6947368421053" y="-110.02105263157895"/>
      <point x="1011.4105263157895" y="53.62105263157895" type="curve"/>
      <point x="1011.4105263157895" y="640.757894736842" type="line"/>
      <point x="1018.6947368421053" y="756.8210526315789"/>
      <point x="1028.336842105263" y="879.5999999999999"/>
      <point x="1037.6210526315788" y="1002.2105263157895" type="curve"/>
      <point x="871.4526315789474" y="992.3789473684211" type="line"/>
      <point x="860.1684210526316" y="864.757894736842" type="line"/>
      <point x="842.6947368421053" y="864.757894736842" type="line"/>
      <point x="748.6947368421053" y="939.6842105263158"/>
      <point x="630.8842105263158" y="1015.6631578947369"/>
      <point x="528.4" y="1015.6631578947369" type="curve" smooth="yes"/>
      <point x="256.42105263157896" y="1015.6631578947369"/>
      <point x="101.01052631578948" y="794.1894736842105"/>
      <point x="101.01052631578948" y="499.09473684210525" type="curve" smooth="yes"/>
      <point x="101.01052631578948" y="221.09473684210528"/>
      <point x="241.1578947368421" y="-21.83157894736842"/>
      <point x="524.9473684210526" y="-21.83157894736842" type="curve" smooth="yes"/>
      <point x="610.5473684210526" y="-21.83157894736842"/>
      <point x="729.9368421052632" y="41.03157894736842"/>
      <point x="831.578947368421" y="124.48421052631579" type="curve"/>
      <point x="846.3157894736842" y="124.48421052631579" type="line"/>
      <point x="846.3157894736842" y="46.50526315789474" type="line"/>
      <point x="841.578947368421" y="-110.02105263157895"/>
      <point x="836.8421052631579" y="-243.47368421052633"/>
    </contour>
    <contour>
      <point x="574.7578947368421" y="125.91578947368421" type="curve"/>
      <point x="363.13684210526316" y="131.9157894736842"/>
      <point x="270.2947368421053" y="304.69473684210527"/>
      <point x="270.2947368421053" y="498.0" type="curve" smooth="yes"/>
      <point x="270.2947368421053" y="700.2105263157895"/>
      <point x="370.94736842105266" y="860.2736842105263"/>
      <point x="577.6631578947369" y="866.2736842105263" type="curve"/>
      <point x="647.242105263158" y="863.1789473684211"/>
      <point x="755.6842105263158" y="815.7684210526315"/>
      <point x="846.3157894736842" y="728.5894736842105" type="curve"/>
      <point x="846.3157894736842" y="276.33684210526314" type="line"/>
      <point x="770.2105263157895" y="199.85263157894738"/>
      <point x="661.2210526315789" y="130.46315789473684"/>
    </contour>
  </outline>
</glyph>
<glyph name="r" format="2">
  <advance width="812.0842105263157"/>
  <unicode hex="0072"/>
  <anchor x="254.23157894736843" y="0.0" name="bottom"/>
  <anchor x="466.7368421052632" y="992.3789473684211" name="top"/>
  <outline>
    <contour>
      <point x="171.1157894736842" y="0.0" type="curve"/>
      <point x="363.17894736842106" y="0.0" type="line"/>
      <point x="358.44210526315794" y="146.7157894736842"/>
      <point x="353.7052631578948" y="273.9789473684211"/>
      <point x="348.96842105263164" y="430.5052631578947" type="curve"/>
      <point x="348.96842105263164" y="637.1368421052632" type="line"/>
      <point x="489.2" y="794.9684210526316"/>
      <point x="571.0105263157895" y="847.1157894736842"/>
      <point x="626.778947368421" y="847.1157894736842" type="curve" smooth="yes"/>
      <point x="640.2315789473685" y="847.1157894736842"/>
      <point x="689.5157894736842" y="834.5684210526315"/>
      <point x="748.2736842105263" y="820.378947368421" type="curve"/>
      <point x="763.0315789473684" y="1000.021052631579" type="line"/>
      <point x="727.578947368421" y="1007.6631578947369"/>
      <point x="671.9578947368421" y="1015.6631578947369"/>
      <point x="649.957894736842" y="1015.6631578947369" type="curve" smooth="yes"/>
      <point x="581.0736842105263" y="1015.6631578947369"/>
      <point x="487.64210526315793" y="958.778947368421"/>
      <point x="347.3052631578948" y="802.1052631578948" type="curve"/>
      <point x="330.7368421052632" y="802.1052631578948" type="line"/>
      <point x="318.00000000000006" y="1002.2105263157895" type="line"/>
      <point x="154.92631578947368" y="992.3789473684211" type="line"/>
      <point x="165.3052631578947" y="872.8631578947369"/>
      <point x="176.04210526315788" y="753.7263157894737"/>
      <point x="183.8736842105263" y="640.757894736842" type="curve"/>
      <point x="183.8736842105263" y="437.62105263157895" type="line"/>
      <point x="178.5894736842105" y="273.9789473684211"/>
      <point x="175.85263157894735" y="147.26315789473682"/>
    </contour>
  </outline>
</glyph>
<glyph name="v" format="2">
  <advance width="1039.621052631579"/>
  <unicode hex="0076"/>
  <outline>
    <contour>
      <point x="417.1578947368421" y="0.0" type="curve"/>
      <point x="620.1052631578948" y="0.0" type="line"/>
      <point x="664.8210526315789" y="124.54736842105264"/>
      <point x="707.5368421052631" y="247.09473684210528"/>
      <point x="750.8" y="372.18947368421055" type="curve"/>
      <point x="816.6105263157895" y="549.2842105263157" type="line"/>
      <point x="876.0631578947368" y="695.8315789473684"/>
      <point x="934.0631578947368" y="842.9263157894736"/>
      <point x="994.421052631579" y="992.3789473684211" type="curve"/>
      <point x="797.6421052631579" y="992.3789473684211" type="line"/>
      <point x="744.0631578947368" y="830.4631578947368"/>
      <point x="691.9368421052632" y="668.1684210526316"/>
      <point x="636.9052631578948" y="499.5157894736842" type="curve"/>
      <point x="528.4631578947368" y="181.11578947368423" type="line"/>
      <point x="510.9894736842105" y="181.11578947368423" type="line"/>
      <point x="402.5473684210526" y="499.5157894736842" type="line"/>
      <point x="347.5157894736842" y="668.1684210526316"/>
      <point x="296.2947368421053" y="829.0105263157894"/>
      <point x="241.81052631578947" y="998.5684210526316" type="curve"/>
      <point x="45.2" y="992.3789473684211" type="line"/>
      <point x="103.19999999999999" y="847.2842105263157"/>
      <point x="161.20000000000002" y="697.2842105263157"/>
      <point x="219.20000000000002" y="552.1894736842105" type="curve"/>
      <point x="285.01052631578943" y="375.6421052631579" type="line"/>
      <point x="328.2736842105263" y="253.45263157894738"/>
      <point x="372.4421052631579" y="125.09473684210528"/>
    </contour>
  </outline>
</glyph>
<glyph name="w" format="2">
  <advance width="1613.7894736842106"/>
  <unicode hex="0077"/>
  <anchor x="808.2526315789473" y="0.0" name="bottom"/>
  <anchor x="808.2526315789473" y="992.3789473684211" name="top"/>
  <outline>
    <contour>
      <point x="373.70526315789476" y="0.0" type="curve"/>
      <point x="575.0105263157894" y="0.0" type="line"/>
      <point x="618.7789473684211" y="155.17894736842106"/>
      <point x="666.0" y="324.1684210526316"/>
      <point x="706.8631578947368" y="470.0842105263158" type="curve"/>
      <point x="793.3263157894737" y="762.2736842105263" type="line"/>
      <point x="809.7052631578947" y="762.2736842105263" type="line"/>
      <point x="896.7157894736843" y="473.53684210526313" type="line"/>
      <point x="940.1263157894737" y="324.7157894736842"/>
      <point x="990.8000000000001" y="153.7263157894737"/>
      <point x="1035.663157894737" y="0.0" type="curve"/>
      <point x="1244.4421052631578" y="0.0" type="line"/>
      <point x="1281.7052631578947" y="122.0"/>
      <point x="1319.5157894736842" y="249.6421052631579"/>
      <point x="1358.778947368421" y="379.6421052631579" type="curve"/>
      <point x="1415.6842105263158" y="554.1894736842105" type="line"/>
      <point x="1466.2315789473685" y="699.2842105263157"/>
      <point x="1518.2315789473685" y="845.2842105263157"/>
      <point x="1570.778947368421" y="992.3789473684211" type="curve"/>
      <point x="1372.1684210526316" y="992.3789473684211" type="line"/>
      <point x="1331.3052631578948" y="844.4421052631579"/>
      <point x="1281.7263157894738" y="660.8842105263158"/>
      <point x="1235.957894736842" y="497.13684210526316" type="curve"/>
      <point x="1142.5894736842106" y="176.54736842105262" type="line"/>
      <point x="1127.1157894736841" y="176.54736842105262" type="line"/>
      <point x="1033.7473684210527" y="494.58947368421053" type="line"/>
      <point x="987.4315789473684" y="661.7894736842105"/>
      <point x="939.6631578947369" y="832.0842105263158"/>
      <point x="894.8" y="992.3789473684211" type="curve"/>
      <point x="720.8210526315789" y="992.3789473684211" type="line"/>
      <point x="674.5052631578948" y="823.7263157894737"/>
      <point x="628.1894736842105" y="656.5263157894736"/>
      <point x="583.3263157894737" y="491.6842105263158" type="curve"/>
      <point x="492.86315789473684" y="176.54736842105262" type="line"/>
      <point x="477.38947368421054" y="176.54736842105262" type="line"/>
      <point x="384.9263157894737" y="484.42105263157896" type="line"/>
      <point x="338.61052631578946" y="648.7157894736843"/>
      <point x="286.4842105263158" y="834.2736842105263"/>
      <point x="240.16842105263157" y="998.5684210526316" type="curve"/>
      <point x="43.01052631578948" y="992.3789473684211" type="line"/>
      <point x="95.55789473684209" y="843.8315789473684"/>
      <point x="146.10526315789474" y="701.2842105263157"/>
      <point x="198.65263157894736" y="554.1894736842105" type="curve"/>
      <point x="256.4631578947368" y="377.6421052631579" type="line"/>
      <point x="295.7263157894737" y="250.54736842105262"/>
      <point x="334.4421052631579" y="124.54736842105264"/>
    </contour>
  </outline>
</glyph>
<glyph name="x" format="2">
  <advance width="1076.378947368421"/>
  <unicode hex="0078"/>
  <outline>
    <contour>
      <point x="50.8421052631579" y="0.0" type="curve"/>
      <point x="259.8105263157895" y="0.0" type="line"/>
      <point x="314.2947368421053" y="89.2421052631579"/>
      <point x="353.7052631578947" y="153.57894736842104"/>
      <point x="408.18947368421055" y="242.2736842105263" type="curve"/>
      <point x="517.5368421052631" y="410.2105263157895" type="line"/>
      <point x="531.9157894736842" y="410.2105263157895" type="line"/>
      <point x="653.0736842105263" y="234.2736842105263" type="line"/>
      <point x="709.5578947368422" y="150.1263157894737"/>
      <point x="753.8736842105263" y="81.78947368421053"/>
      <point x="807.4526315789474" y="0.0" type="curve"/>
      <point x="1028.2736842105262" y="0.0" type="line"/>
      <point x="928.1052631578947" y="128.73684210526318"/>
      <point x="866.2947368421053" y="208.92631578947368"/>
      <point x="793.0315789473684" y="303.11578947368423" type="curve"/>
      <point x="624.8842105263158" y="533.1368421052632" type="line"/>
      <point x="632.9052631578948" y="489.2631578947368" type="line"/>
      <point x="782.6947368421053" y="702.0" type="line"/>
      <point x="855.4105263157894" y="801.6421052631579"/>
      <point x="901.7684210526315" y="862.7368421052631"/>
      <point x="997.3894736842105" y="992.3789473684211" type="curve"/>
      <point x="786.421052631579" y="992.3789473684211" type="line"/>
      <point x="731.3894736842105" y="902.5894736842105"/>
      <point x="691.4315789473684" y="837.1578947368421"/>
      <point x="640.2105263157895" y="753.7263157894737" type="curve"/>
      <point x="535.578947368421" y="594.1473684210526" type="line"/>
      <point x="521.5578947368421" y="594.1473684210526" type="line"/>
      <point x="415.8315789473684" y="753.3684210526316" type="line"/>
      <point x="364.61052631578946" y="835.7052631578947"/>
      <point x="322.10526315789474" y="904.421052631579"/>
      <point x="263.0736842105263" y="998.5684210526316" type="curve"/>
      <point x="53.91578947368421" y="992.3789473684211" type="line"/>
      <point x="146.44210526315788" y="867.8315789473684"/>
      <point x="200.25263157894736" y="794.1894736842105"/>
      <point x="273.87368421052633" y="695.6421052631579" type="curve"/>
      <point x="420.9263157894737" y="483.4526315789474" type="line"/>
      <point x="419.4736842105263" y="530.2315789473685" type="line"/>
      <point x="269.1578947368421" y="306.2105263157895" type="line"/>
      <point x="197.53684210526316" y="205.47368421052633"/>
      <point x="145.3684210526316" y="132.37894736842105"/>
    </contour>
  </outline>
</glyph>
<glyph name="y" format="2">
  <advance width="1045.4315789473685"/>
  <unicode hex="0079"/>
  <anchor x="778.8210526315789" y="0.0" name="bottom"/>
  <anchor x="524.0842105263158" y="992.3789473684211" name="top"/>
  <outline>
    <contour>
      <point x="257.30526315789473" y="-390.18947368421055" type="curve"/>
      <point x="457.36842105263156" y="-384.0" type="line"/>
      <point x="512.6315789473684" y="-240.0"/>
      <point x="574.4421052631578" y="-76.35789473684211"/>
      <point x="670.6105263157895" y="178.18947368421053" type="curve"/>
      <point x="780.9684210526316" y="457.2842105263158" type="line"/>
      <point x="883.8736842105263" y="707.8315789473684"/>
      <point x="933.3263157894737" y="830.3789473684211"/>
      <point x="1000.2315789473685" y="992.3789473684211" type="curve"/>
      <point x="804.5473684210526" y="992.3789473684211" type="line"/>
      <point x="749.5157894736842" y="825.1789473684211"/>
      <point x="695.9368421052632" y="665.4315789473684"/>
      <point x="638.9052631578948" y="496.7789473684211" type="curve"/>
      <point x="523.5578947368421" y="176.73684210526318" type="line"/>
      <point x="506.0842105263158" y="176.73684210526318" type="line"/>
      <point x="400.5473684210526" y="495.87368421052633" type="line"/>
      <point x="346.9684210526316" y="667.0736842105263"/>
      <point x="294.8421052631579" y="827.3684210526316"/>
      <point x="241.26315789473685" y="998.5684210526316" type="curve"/>
      <point x="45.2" y="992.3789473684211" type="line"/>
      <point x="100.65263157894736" y="850.378947368421"/>
      <point x="160.65263157894736" y="698.378947368421"/>
      <point x="216.65263157894736" y="555.2842105263157" type="curve"/>
      <point x="282.46315789473687" y="375.2842105263158" type="line"/>
      <point x="329.178947368421" y="243.28421052631577"/>
      <point x="379.89473684210526" y="101.2842105263158"/>
      <point x="425.70526315789476" y="-35.810526315789474" type="curve"/>
      <point x="434.0842105263158" y="5.684210526315791" type="line"/>
      <point x="375.7052631578947" y="-123.2421052631579"/>
      <point x="315.6842105263158" y="-259.81052631578945"/>
    </contour>
  </outline>
</glyph>
<glyph name="z" format="2">
  <advance width="993.5578947368421"/>
  <unicode hex="007A"/>
  <anchor x="493.3263157894737" y="0.0" name="bottom"/>
  <anchor x="493.3263157894737" y="496.18947368421055" name="center"/>
  <anchor x="493.3263157894737" y="992.3789473684211" name="top"/>
  <outline>
    <contour>
      <point x="77.05263157894737" y="0.0" type="line"/>
      <point x="922.3157894736842" y="0.0" type="line"/>
      <point x="922.3157894736842" y="146.2947368421053" type="line"/>
      <point x="785.8105263157895" y="139.91578947368424"/>
      <point x="606.0631578947368" y="132.98947368421054"/>
      <point x="497.5578947368421" y="128.2526315789474" type="curve"/>
      <point x="256.18947368421055" y="128.2526315789474" type="line"/>
      <point x="275.4947368421053" y="89.45263157894738" type="line"/>
      <point x="590.6105263157895" y="501.7894736842105" type="line"/>
      <point x="689.6631578947369" y="625.1789473684211"/>
      <point x="810.5263157894736" y="776.1894736842105"/>
      <point x="890.5052631578948" y="876.1473684210525" type="curve"/>
      <point x="890.5052631578948" y="992.3789473684211" type="line"/>
      <point x="80.88421052631578" y="992.3789473684211" type="line"/>
      <point x="80.88421052631578" y="843.3473684210526" type="line"/>
      <point x="225.74736842105264" y="850.2736842105262"/>
      <point x="411.13684210526316" y="858.2947368421053"/>
      <point x="518.7368421052631" y="863.578947368421" type="curve"/>
      <point x="737.9368421052632" y="863.578947368421" type="line"/>
      <point x="712.9894736842106" y="919.8315789473684" type="line"/>
      <point x="393.85263157894735" y="500.7368421052632" type="line"/>
      <point x="299.15789473684214" y="382.6105263157895"/>
      <point x="190.6526315789474" y="246.31578947368422"/>
      <point x="77.05263157894737" y="103.47368421052632" type="curve"/>
    </contour>
  </outline>
</glyph>
<glyph name="braceleft" format="2">
  <advance width="808.5894736842106"/>
  <unicode hex="007B"/>
  <outline>
    <contour>
      <point x="602.8421052631579" y="-233.85263157894738" type="curve" smooth="yes"/>
      <point x="777.6421052631579" y="-233.85263157894738" type="line"/>
      <point x="777.6421052631579" y="-91.38947368421053" type="line"/>
      <point x="724.1684210526315" y="-92.48421052631578"/>
      <point x="657.0947368421052" y="-95.03157894736842"/>
      <point x="623.0947368421052" y="-95.57894736842105" type="curve"/>
      <point x="497.5368421052632" y="-91.93684210526315"/>
      <point x="436.67368421052635" y="-36.69473684210526"/>
      <point x="435.57894736842104" y="73.62105263157895" type="curve" smooth="yes"/>
      <point x="429.7473684210526" y="475.0526315789474" type="line" smooth="yes"/>
      <point x="429.2" y="495.978947368421"/>
      <point x="333.17894736842106" y="596.8842105263158"/>
      <point x="277.13684210526316" y="640.9052631578948" type="curve"/>
      <point x="277.13684210526316" y="657.8315789473684" type="line"/>
      <point x="333.17894736842106" y="700.9473684210526"/>
      <point x="429.2" y="801.1157894736842"/>
      <point x="429.7473684210526" y="822.2315789473685" type="curve" smooth="yes"/>
      <point x="435.57894736842104" y="1225.1157894736841" type="line" smooth="yes"/>
      <point x="436.67368421052635" y="1335.4315789473685"/>
      <point x="497.5368421052632" y="1390.6736842105263"/>
      <point x="623.0947368421052" y="1394.3157894736842" type="curve"/>
      <point x="658.5473684210526" y="1393.7684210526315"/>
      <point x="726.5263157894736" y="1391.221052631579"/>
      <point x="774.9052631578948" y="1390.1263157894737" type="curve"/>
      <point x="774.9052631578948" y="1532.5894736842106" type="line"/>
      <point x="602.8421052631579" y="1532.5894736842106" type="line" smooth="yes"/>
      <point x="400.2105263157895" y="1532.5894736842106"/>
      <point x="272.6947368421052" y="1430.5473684210526"/>
      <point x="272.6947368421052" y="1248.6526315789474" type="curve"/>
      <point x="272.6947368421052" y="1231.3894736842105"/>
      <point x="277.4315789473684" y="927.8736842105263"/>
      <point x="277.4315789473684" y="910.6105263157895" type="curve"/>
      <point x="277.4315789473684" y="796.0842105263158"/>
      <point x="182.0421052631579" y="711.578947368421"/>
      <point x="105.85263157894737" y="711.578947368421" type="curve" smooth="yes"/>
      <point x="25.473684210526315" y="711.578947368421" type="line"/>
      <point x="25.473684210526315" y="585.7052631578947" type="line"/>
      <point x="105.85263157894737" y="585.7052631578947" type="line" smooth="yes"/>
      <point x="182.0421052631579" y="585.7052631578947"/>
      <point x="277.4315789473684" y="501.2"/>
      <point x="277.4315789473684" y="386.6736842105263" type="curve"/>
      <point x="277.4315789473684" y="369.41052631578947"/>
      <point x="272.6947368421052" y="67.34736842105264"/>
      <point x="272.6947368421052" y="50.084210526315786" type="curve"/>
      <point x="272.6947368421052" y="-131.81052631578947"/>
      <point x="400.2105263157895" y="-233.85263157894738"/>
    </contour>
  </outline>
</glyph>
<glyph name="bar" format="2">
  <advance width="528.4631578947368"/>
  <unicode hex="007C"/>
  <outline>
    <contour>
      <point x="180.96842105263156" y="-313.4736842105263" type="curve"/>
      <point x="347.4947368421053" y="-313.4736842105263" type="line"/>
      <point x="343.3052631578948" y="-37.473684210526315"/>
      <point x="338.5684210526316" y="268.52631578947364"/>
      <point x="338.021052631579" y="344.5263157894737" type="curve"/>
      <point x="338.021052631579" y="908.5263157894736" type="line"/>
      <point x="338.5684210526316" y="984.5263157894738"/>
      <point x="343.3052631578948" y="1290.5263157894738"/>
      <point x="347.4947368421053" y="1566.5263157894738" type="curve"/>
      <point x="180.96842105263156" y="1566.5263157894738" type="line"/>
      <point x="185.1578947368421" y="1290.5263157894738"/>
      <point x="189.89473684210526" y="984.5263157894738"/>
      <point x="190.44210526315788" y="908.5263157894736" type="curve"/>
      <point x="190.44210526315788" y="344.5263157894737" type="line"/>
      <point x="189.89473684210526" y="268.52631578947364"/>
      <point x="185.1578947368421" y="-37.473684210526315"/>
    </contour>
  </outline>
</glyph>
<glyph name="cent" format="2">
  <advance width="988.6736842105263"/>
  <unicode hex="00A2"/>
  <anchor x="571.2421052631579" y="0.0" name="bottom"/>
  <anchor x="558.1684210526316" y="992.3789473684211" name="top"/>
  <outline>
    <contour>
      <point x="490.8" y="-274.0" type="curve"/>
      <point x="633.9789473684211" y="-274.0" type="line"/>
      <point x="629.7894736842105" y="2.0000000000000004"/>
      <point x="625.0526315789474" y="308.0"/>
      <point x="624.5052631578948" y="384.0" type="curve"/>
      <point x="624.5052631578948" y="590.7368421052631" type="line"/>
      <point x="625.0526315789474" y="666.7368421052631"/>
      <point x="629.7894736842105" y="972.7368421052631"/>
      <point x="633.9789473684211" y="1248.7368421052631" type="curve"/>
      <point x="490.8" y="1248.7368421052631" type="line"/>
      <point x="494.9894736842105" y="972.7368421052631"/>
      <point x="499.7263157894737" y="666.7368421052631"/>
      <point x="500.2736842105263" y="590.7368421052631" type="curve"/>
      <point x="500.2736842105263" y="384.0" type="line"/>
      <point x="499.7263157894737" y="308.0"/>
      <point x="494.9894736842105" y="2.0"/>
    </contour>
    <contour>
      <point x="601.9789473684211" y="-19.642105263157895" type="curve" smooth="yes"/>
      <point x="664.1473684210526" y="-19.642105263157895"/>
      <point x="814.1894736842106" y="14.88421052631579"/>
      <point x="899.0947368421052" y="43.05263157894737" type="curve"/>
      <point x="884.5473684210526" y="195.51578947368424" type="line"/>
      <point x="795.4947368421052" y="156.63157894736844"/>
      <point x="672.8000000000001" y="124.27368421052633"/>
      <point x="634.8210526315789" y="124.27368421052633" type="curve" smooth="yes"/>
      <point x="392.9684210526316" y="129.17894736842103"/>
      <point x="268.65263157894736" y="285.6"/>
      <point x="268.65263157894736" y="500.37894736842105" type="curve" smooth="yes"/>
      <point x="268.65263157894736" y="725.1157894736842"/>
      <point x="400.18947368421055" y="861.9157894736842"/>
      <point x="598.5684210526316" y="867.9157894736842" type="curve"/>
      <point x="630.7368421052631" y="867.9157894736842"/>
      <point x="760.1894736842105" y="832.4631578947369"/>
      <point x="880.9052631578948" y="788.1052631578947" type="curve"/>
      <point x="896.3789473684211" y="942.7578947368421" type="line"/>
      <point x="807.7894736842105" y="970.0421052631579"/>
      <point x="642.1473684210528" y="1015.1157894736842"/>
      <point x="582.3368421052631" y="1015.1157894736842" type="curve" smooth="yes"/>
      <point x="274.82105263157894" y="1015.1157894736842"/>
      <point x="99.91578947368421" y="792.021052631579"/>
      <point x="99.91578947368421" y="496.5473684210526" type="curve" smooth="yes"/>
      <point x="99.91578947368421" y="203.07368421052632"/>
      <point x="282.12631578947367" y="-19.642105263157895"/>
    </contour>
  </outline>
</glyph>
<glyph name="sterling" format="2">
  <advance width="1182.0842105263157"/>
  <unicode hex="00A3"/>
  <outline>
    <contour>
      <point x="128.10526315789474" y="0.0" type="line"/>
      <point x="1114.821052631579" y="0.0" type="line"/>
      <point x="1114.821052631579" y="168.90526315789475" type="line"/>
      <point x="959.2" y="164.1684210526316"/>
      <point x="713.0736842105264" y="158.33684210526317"/>
      <point x="536.7157894736843" y="153.05263157894737" type="curve"/>
      <point x="252.21052631578948" y="153.05263157894737" type="line"/>
      <point x="284.10526315789474" y="109.03157894736843" type="line"/>
      <point x="425.20000000000005" y="352.0631578947368"/>
      <point x="455.74736842105267" y="423.6842105263158"/>
      <point x="455.74736842105267" y="498.7578947368421" type="curve" smooth="yes"/>
      <point x="455.74736842105267" y="894.6526315789474" type="line" smooth="yes"/>
      <point x="455.74736842105267" y="1135.4105263157894"/>
      <point x="557.5157894736842" y="1241.7052631578947"/>
      <point x="758.8421052631579" y="1245.3473684210526" type="curve"/>
      <point x="797.0315789473685" y="1245.3473684210526"/>
      <point x="916.0842105263158" y="1213.178947368421"/>
      <point x="1040.0842105263157" y="1164.9894736842105" type="curve"/>
      <point x="1058.842105263158" y="1324.2105263157894" type="line"/>
      <point x="980.6526315789474" y="1351.3052631578946"/>
      <point x="827.6" y="1397.4736842105262"/>
      <point x="746.4421052631579" y="1397.4736842105262" type="curve" smooth="yes"/>
      <point x="449.9157894736842" y="1397.4736842105262"/>
      <point x="278.44210526315794" y="1234.1473684210525"/>
      <point x="278.44210526315794" y="904.2947368421053" type="curve" smooth="yes"/>
      <point x="278.44210526315794" y="754.8842105263158"/>
      <point x="282.0842105263158" y="607.4736842105264"/>
      <point x="282.0842105263158" y="458.61052631578946" type="curve"/>
      <point x="282.0842105263158" y="403.53684210526313"/>
      <point x="255.17894736842106" y="328.65263157894736"/>
      <point x="128.10526315789474" y="104.90526315789474" type="curve"/>
    </contour>
    <contour>
      <point x="119.41052631578947" y="683.0947368421052" type="line"/>
      <point x="244.7157894736842" y="686.1894736842105"/>
      <point x="383.6421052631579" y="689.2842105263157"/>
      <point x="465.6842105263158" y="690.378947368421" type="curve"/>
      <point x="533.3473684210526" y="690.378947368421" type="line"/>
      <point x="615.3894736842104" y="689.2842105263157"/>
      <point x="754.3157894736842" y="686.1894736842105"/>
      <point x="879.621052631579" y="683.0947368421052" type="curve"/>
      <point x="879.621052631579" y="820.4421052631578" type="line"/>
      <point x="754.3157894736842" y="817.3473684210526"/>
      <point x="615.3894736842104" y="814.2526315789473"/>
      <point x="533.3473684210526" y="813.1578947368421" type="curve"/>
      <point x="465.6842105263158" y="813.1578947368421" type="line"/>
      <point x="383.6421052631579" y="814.2526315789473"/>
      <point x="244.7157894736842" y="817.3473684210526"/>
      <point x="119.41052631578947" y="820.4421052631578" type="curve"/>
    </contour>
  </outline>
</glyph>
<glyph name="currency" format="2">
  <advance width="1245.9789473684211"/>
  <unicode hex="00A4"/>
  <outline>
    <contour>
      <point x="619.5368421052632" y="230.9894736842105" type="curve" smooth="yes"/>
      <point x="861.2631578947369" y="230.9894736842105"/>
      <point x="1037.4947368421053" y="383.36842105263156"/>
      <point x="1037.4947368421053" y="641.0947368421052" type="curve" smooth="yes"/>
      <point x="1037.4947368421053" y="882.421052631579"/>
      <point x="862.7157894736843" y="1050.463157894737"/>
      <point x="623.5368421052632" y="1050.463157894737" type="curve" smooth="yes"/>
      <point x="380.3578947368421" y="1050.463157894737"/>
      <point x="205.57894736842104" y="883.7052631578947"/>
      <point x="205.57894736842104" y="641.0947368421052" type="curve" smooth="yes"/>
      <point x="205.57894736842104" y="383.9157894736842"/>
      <point x="380.3578947368421" y="230.9894736842105"/>
    </contour>
    <contour>
      <point x="201.78947368421052" y="103.28421052631579" type="line"/>
      <point x="287.81052631578945" y="192.94736842105263"/>
      <point x="384.0" y="293.32631578947365"/>
      <point x="440.2105263157895" y="352.63157894736844" type="curve"/>
      <point x="334.1684210526316" y="458.6736842105263" type="line"/>
      <point x="274.86315789473684" y="402.4631578947368"/>
      <point x="174.4842105263158" y="306.2736842105263"/>
      <point x="84.82105263157894" y="220.25263157894736" type="curve"/>
    </contour>
    <contour>
      <point x="620.0842105263158" y="373.8105263157895" type="curve"/>
      <point x="473.81052631578945" y="380.00000000000006"/>
      <point x="358.2526315789474" y="461.7684210526316"/>
      <point x="358.2526315789474" y="640.5473684210526" type="curve" smooth="yes"/>
      <point x="358.2526315789474" y="807.3263157894737"/>
      <point x="475.2631578947368" y="902.0"/>
      <point x="622.9894736842106" y="908.1894736842105" type="curve"/>
      <point x="769.8105263157895" y="902.0"/>
      <point x="884.8210526315789" y="806.2315789473685"/>
      <point x="884.8210526315789" y="640.5473684210526" type="curve" smooth="yes"/>
      <point x="884.8210526315789" y="461.7684210526316"/>
      <point x="769.2631578947369" y="380.00000000000006"/>
    </contour>
    <contour>
      <point x="335.2631578947368" y="825.3263157894737" type="curve"/>
      <point x="439.11578947368423" y="929.1789473684211" type="line"/>
      <point x="382.9052631578947" y="988.4842105263158"/>
      <point x="286.7157894736842" y="1088.8631578947368"/>
      <point x="200.69473684210527" y="1178.5263157894738" type="curve"/>
      <point x="85.9157894736842" y="1063.7473684210527" type="line"/>
      <point x="175.57894736842104" y="977.7263157894737"/>
      <point x="275.9578947368421" y="881.5368421052631"/>
    </contour>
    <contour>
      <point x="1045.2842105263157" y="104.37894736842104" type="curve"/>
      <point x="1160.0631578947368" y="219.1578947368421" type="line"/>
      <point x="1070.4" y="305.178947368421"/>
      <point x="970.0210526315789" y="401.36842105263156"/>
      <point x="910.7157894736843" y="457.57894736842104" type="curve"/>
      <point x="806.8631578947368" y="353.7263157894737" type="line"/>
      <point x="863.0736842105263" y="294.4210526315789"/>
      <point x="959.2631578947369" y="194.04210526315788"/>
    </contour>
    <contour>
      <point x="911.8105263157895" y="824.2315789473685" type="line"/>
      <point x="971.1157894736841" y="880.4421052631578"/>
      <point x="1071.4947368421053" y="976.6315789473684"/>
      <point x="1161.157894736842" y="1062.6526315789474" type="curve"/>
      <point x="1044.1894736842105" y="1179.621052631579" type="line"/>
      <point x="958.1684210526316" y="1089.957894736842"/>
      <point x="861.978947368421" y="989.578947368421"/>
      <point x="805.7684210526315" y="930.2736842105263" type="curve"/>
    </contour>
  </outline>
</glyph>
<glyph name="section" format="2">
  <advance width="1092.5977011494253"/>
  <unicode hex="00A7"/>
  <outline>
    <contour>
      <point x="491.58620689655174" y="-251.17241379310346" type="curve" smooth="yes"/>
      <point x="787.471264367816" y="-251.17241379310346"/>
      <point x="913.4252873563219" y="-99.14942528735632"/>
      <point x="913.4252873563219" y="90.39080459770115" type="curve" smooth="yes"/>
      <point x="913.4252873563219" y="297.1954022988506"/>
      <point x="772.1609195402299" y="360.7586206896552"/>
      <point x="533.0114942528736" y="431.14942528735634" type="curve" smooth="yes"/>
      <point x="344.5287356321839" y="486.7816091954023"/>
      <point x="266.0689655172414" y="537.1954022988506"/>
      <point x="266.0689655172414" y="655.2873563218391" type="curve" smooth="yes"/>
      <point x="266.0689655172414" y="775.0344827586207"/>
      <point x="354.91954022988506" y="837.4022988505748"/>
      <point x="437.7701149425287" y="850.6206896551724" type="curve"/>
      <point x="337.08045977011494" y="956.8045977011494" type="line"/>
      <point x="182.41379310344828" y="909.6091954022988"/>
      <point x="95.67816091954023" y="787.2873563218391"/>
      <point x="95.67816091954023" y="645.3333333333334" type="curve" smooth="yes"/>
      <point x="95.67816091954023" y="462.8735632183908"/>
      <point x="228.98850574712642" y="380.13793103448273"/>
      <point x="424.48275862068965" y="319.7701149425287" type="curve" smooth="yes"/>
      <point x="662.5747126436781" y="246.13793103448276"/>
      <point x="744.2298850574713" y="211.70114942528735"/>
      <point x="744.2298850574713" y="96.0" type="curve" smooth="yes"/>
      <point x="744.2298850574713" y="-64.20689655172413"/>
      <point x="625.3333333333334" y="-107.0574712643678"/>
      <point x="484.02298850574715" y="-111.0574712643678" type="curve"/>
      <point x="407.9770114942529" y="-111.0574712643678"/>
      <point x="260.0229885057471" y="-62.66666666666666"/>
      <point x="100.85057471264368" y="-5.47126436781609" type="curve"/>
      <point x="85.26436781609195" y="-162.34482758620692" type="line"/>
      <point x="238.04597701149424" y="-209.5632183908046"/>
      <point x="408.3908045977012" y="-251.17241379310346"/>
    </contour>
    <contour>
      <point x="792.3448275862069" y="256.02298850574715" type="line"/>
      <point x="947.4022988505748" y="317.2183908045977"/>
      <point x="1016.9425287356322" y="435.58620689655174"/>
      <point x="1016.9425287356322" y="574.7126436781609" type="curve" smooth="yes"/>
      <point x="1016.9425287356322" y="765.9770114942529"/>
      <point x="875.6781609195402" y="837.9080459770115"/>
      <point x="636.528735632184" y="908.2988505747127" type="curve" smooth="yes"/>
      <point x="448.04597701149424" y="963.9310344827586"/>
      <point x="369.58620689655174" y="1014.3448275862069"/>
      <point x="369.58620689655174" y="1121.6781609195402" type="curve" smooth="yes"/>
      <point x="369.58620689655174" y="1281.471264367816"/>
      <point x="514.9195402298851" y="1308.2758620689656"/>
      <point x="603.3793103448276" y="1312.2758620689656" type="curve"/>
      <point x="638.9885057471264" y="1312.2758620689656"/>
      <point x="790.5747126436781" y="1266.2758620689654"/>
      <point x="930.551724137931" y="1211.8850574712644" type="curve"/>
      <point x="944.1379310344828" y="1370.367816091954" type="line"/>
      <point x="843.7931034482759" y="1397.1724137931033"/>
      <point x="657.8390804597701" y="1452.3908045977012"/>
      <point x="579.080459770115" y="1452.3908045977012" type="curve" smooth="yes"/>
      <point x="342.367816091954" y="1452.3908045977012"/>
      <point x="198.0" y="1320.4137931034484"/>
      <point x="198.0" y="1124.8735632183907" type="curve" smooth="yes"/>
      <point x="198.0" y="931.6551724137931"/>
      <point x="343.264367816092" y="848.919540229885"/>
      <point x="528.0" y="795.7241379310344" type="curve" smooth="yes"/>
      <point x="764.8965517241379" y="726.8735632183908"/>
      <point x="847.7471264367816" y="681.6781609195402"/>
      <point x="847.7471264367816" y="561.1954022988506" type="curve" smooth="yes"/>
      <point x="847.7471264367816" y="447.44827586206895"/>
      <point x="782.5287356321838" y="375.0574712643678"/>
      <point x="688.0919540229885" y="351.0344827586207" type="curve"/>
    </contour>
  </outline>
</glyph>
<glyph name="copyright" format="2">
  <advance width="1635.0105263157895"/>
  <unicode hex="00A9"/>
  <outline>
    <contour>
      <point x="824.5052631578948" y="-21.83157894736842" type="curve" smooth="yes"/>
      <point x="1268.7368421052631" y="-21.83157894736842"/>
      <point x="1534.7157894736843" y="281.2631578947368"/>
      <point x="1534.7157894736843" y="688.5473684210526" type="curve" smooth="yes"/>
      <point x="1534.7157894736843" y="1082.1894736842105"/>
      <point x="1281.2842105263157" y="1397.4736842105262"/>
      <point x="818.3157894736842" y="1397.4736842105262" type="curve" smooth="yes"/>
      <point x="362.8" y="1397.4736842105262"/>
      <point x="100.29473684210527" y="1087.0947368421052"/>
      <point x="100.29473684210527" y="688.0" type="curve" smooth="yes"/>
      <point x="100.29473684210527" y="304.7368421052632"/>
      <point x="341.53684210526313" y="-21.83157894736842"/>
    </contour>
    <contour>
      <point x="840.1473684210526" y="311.4526315789474" type="curve" smooth="yes"/>
      <point x="913.0105263157894" y="311.4526315789474"/>
      <point x="1003.7894736842105" y="338.5263157894737"/>
      <point x="1057.4315789473685" y="356.88421052631577" type="curve"/>
      <point x="1045.4315789473685" y="478.8842105263158" type="line"/>
      <point x="981.6421052631579" y="447.4526315789474"/>
      <point x="913.0947368421054" y="426.0"/>
      <point x="863.6842105263158" y="426.0" type="curve"/>
      <point x="698.5052631578948" y="429.4526315789474"/>
      <point x="607.4526315789474" y="528.6526315789474"/>
      <point x="607.4526315789474" y="691.0947368421052" type="curve" smooth="yes"/>
      <point x="607.4526315789474" y="858.7789473684211"/>
      <point x="704.1052631578948" y="944.7157894736843"/>
      <point x="837.4526315789474" y="949.2631578947369" type="curve"/>
      <point x="869.4315789473685" y="949.2631578947369"/>
      <point x="953.6210526315789" y="929.0736842105264"/>
      <point x="1043.7894736842106" y="888.0" type="curve"/>
      <point x="1055.621052631579" y="1012.1894736842105" type="line"/>
      <point x="990.8631578947368" y="1035.2842105263157"/>
      <point x="891.1999999999999" y="1066.0"/>
      <point x="826.5052631578948" y="1066.0" type="curve" smooth="yes"/>
      <point x="602.1052631578947" y="1066.0"/>
      <point x="474.29473684210524" y="902.5473684210526"/>
      <point x="474.29473684210524" y="688.3578947368421" type="curve" smooth="yes"/>
      <point x="474.29473684210524" y="474.1684210526316"/>
      <point x="606.6736842105263" y="311.4526315789474"/>
    </contour>
    <contour>
      <point x="823.9578947368421" y="86.50526315789475" type="curve"/>
      <point x="436.1684210526316" y="96.69473684210527"/>
      <point x="213.0105263157895" y="321.22105263157897"/>
      <point x="213.0105263157895" y="688.0" type="curve" smooth="yes"/>
      <point x="213.0105263157895" y="1052.9894736842105"/>
      <point x="444.7157894736842" y="1278.9473684210527"/>
      <point x="818.8631578947368" y="1289.1368421052632" type="curve"/>
      <point x="1195.5578947368422" y="1278.9473684210527"/>
      <point x="1422.0" y="1055.3473684210526"/>
      <point x="1422.0" y="688.5473684210526" type="curve" smooth="yes"/>
      <point x="1422.0" y="317.5578947368421"/>
      <point x="1191.3684210526317" y="96.69473684210527"/>
    </contour>
  </outline>
</glyph>
<glyph name="ordfeminine" format="2">
  <advance width="790.3448275862069"/>
  <unicode hex="00AA"/>
  <outline>
    <contour>
      <point x="300.0689655172414" y="665.2183908045977" type="curve" smooth="yes"/>
      <point x="370.0919540229885" y="665.2183908045977"/>
      <point x="474.5057471264368" y="730.8275862068965"/>
      <point x="558.5287356321838" y="798.4367816091954" type="curve"/>
      <point x="572.1149425287356" y="798.4367816091954" type="line"/>
      <point x="600.9195402298851" y="680.4137931034483" type="line"/>
      <point x="727.471264367816" y="680.4137931034483" type="line"/>
      <point x="708.2758620689655" y="763.5632183908046"/>
      <point x="693.471264367816" y="829.9540229885057"/>
      <point x="679.471264367816" y="894.7126436781609" type="curve"/>
      <point x="679.471264367816" y="1001.6091954022988" type="line" smooth="yes"/>
      <point x="679.471264367816" y="1065.632183908046"/>
      <point x="683.471264367816" y="1142.0229885057472"/>
      <point x="683.471264367816" y="1188.4137931034484" type="curve" smooth="yes"/>
      <point x="683.471264367816" y="1374.0"/>
      <point x="577.4942528735633" y="1452.3908045977012"/>
      <point x="412.3448275862069" y="1452.3908045977012" type="curve" smooth="yes"/>
      <point x="361.9310344827586" y="1452.3908045977012"/>
      <point x="185.632183908046" y="1416.390804597701"/>
      <point x="113.24137931034483" y="1396.3908045977012" type="curve"/>
      <point x="119.63218390804597" y="1265.83908045977" type="line"/>
      <point x="238.82758620689657" y="1306.6206896551726"/>
      <point x="361.60919540229884" y="1337.4022988505747"/>
      <point x="386.82758620689657" y="1337.4022988505747" type="curve" smooth="yes"/>
      <point x="484.06896551724134" y="1337.4022988505747"/>
      <point x="566.919540229885" y="1309.7931034482758"/>
      <point x="560.1149425287356" y="1170.7816091954023" type="curve"/>
      <point x="316.85057471264366" y="1121.5632183908046" type="line" smooth="yes"/>
      <point x="217.26436781609195" y="1101.5632183908046"/>
      <point x="79.24137931034483" y="1042.390804597701"/>
      <point x="79.24137931034483" y="872.4137931034483" type="curve" smooth="yes"/>
      <point x="79.24137931034483" y="752.8045977011494"/>
      <point x="158.45977011494253" y="665.2183908045977"/>
    </contour>
    <contour>
      <point x="346.32183908045977" y="775.4252873563219" type="curve" smooth="yes"/>
      <point x="265.0344827586207" y="775.4252873563219"/>
      <point x="204.98850574712645" y="810.2528735632184"/>
      <point x="204.98850574712645" y="897.5402298850574" type="curve" smooth="yes"/>
      <point x="204.98850574712645" y="990.4367816091954"/>
      <point x="285.86206896551727" y="1024.4597701149426"/>
      <point x="368.3448275862069" y="1040.8735632183907" type="curve" smooth="yes"/>
      <point x="498.8735632183908" y="1068.0919540229886"/>
      <point x="532.5057471264367" y="1081.7011494252874"/>
      <point x="557.7241379310344" y="1094.896551724138" type="curve"/>
      <point x="556.919540229885" y="891.9310344827586" type="line"/>
      <point x="486.45977011494256" y="825.471264367816"/>
      <point x="393.9770114942529" y="775.4252873563219"/>
    </contour>
  </outline>
</glyph>
<glyph name="logicalnot" format="2">
  <advance width="1136.421052631579"/>
  <unicode hex="00AC"/>
  <outline>
    <contour>
      <point x="854.6947368421053" y="118.50526315789473" type="curve"/>
      <point x="1020.1263157894737" y="118.50526315789473" type="line"/>
      <point x="1017.0315789473684" y="243.81052631578947"/>
      <point x="1013.9368421052632" y="382.7368421052632"/>
      <point x="1012.8421052631579" y="464.77894736842103" type="curve"/>
      <point x="1012.8421052631579" y="678.7368421052631" type="line"/>
      <point x="887.5368421052632" y="675.6421052631579"/>
      <point x="748.6105263157895" y="672.5473684210526"/>
      <point x="666.5684210526316" y="671.4526315789474" type="curve"/>
      <point x="469.85263157894735" y="671.4526315789474" type="line"/>
      <point x="387.81052631578945" y="672.5473684210526"/>
      <point x="248.8842105263158" y="675.6421052631579"/>
      <point x="123.57894736842105" y="678.7368421052631" type="curve"/>
      <point x="123.57894736842105" y="516.5894736842106" type="line"/>
      <point x="248.8842105263158" y="519.6842105263158"/>
      <point x="387.81052631578945" y="522.7789473684211"/>
      <point x="469.85263157894735" y="523.8736842105263" type="curve"/>
      <point x="666.5684210526316" y="523.8736842105263" type="line"/>
      <point x="741.3263157894736" y="522.7789473684211"/>
      <point x="868.421052631579" y="519.6842105263158"/>
      <point x="981.8947368421053" y="516.5894736842106" type="curve"/>
      <point x="861.978947368421" y="627.3684210526316" type="line"/>
      <point x="861.978947368421" y="464.77894736842103" type="line"/>
      <point x="860.8842105263158" y="382.7368421052632"/>
      <point x="857.7894736842105" y="243.81052631578947"/>
    </contour>
  </outline>
</glyph>
<glyph name="registered" format="2">
  <advance width="1138.2315789473685"/>
  <unicode hex="00AE"/>
  <outline>
    <contour>
      <point x="573.6631578947369" y="509.5578947368421" type="curve" smooth="yes"/>
      <point x="884.0842105263158" y="509.5578947368421"/>
      <point x="1066.4421052631578" y="719.0315789473684"/>
      <point x="1066.4421052631578" y="1000.6947368421053" type="curve" smooth="yes"/>
      <point x="1066.4421052631578" y="1272.1684210526316"/>
      <point x="893.7263157894737" y="1490.7368421052631"/>
      <point x="568.9263157894737" y="1490.7368421052631" type="curve" smooth="yes"/>
      <point x="247.76842105263157" y="1490.7368421052631"/>
      <point x="71.78947368421052" y="1275.621052631579"/>
      <point x="71.78947368421052" y="1000.1473684210526" type="curve" smooth="yes"/>
      <point x="71.78947368421052" y="737.4105263157895"/>
      <point x="235.41052631578947" y="509.5578947368421"/>
    </contour>
    <contour>
      <point x="366.3368421052632" y="728.3368421052631" type="curve"/>
      <point x="468.10526315789474" y="728.3368421052631" type="line"/>
      <point x="465.01052631578943" y="807.4105263157894"/>
      <point x="463.9157894736842" y="831.8105263157895"/>
      <point x="460.82105263157894" y="916.3368421052631" type="curve"/>
      <point x="460.82105263157894" y="1100.3368421052633" type="line"/>
      <point x="463.9157894736842" y="1183.957894736842"/>
      <point x="465.01052631578943" y="1211.2631578947369"/>
      <point x="467.5578947368421" y="1284.8631578947368" type="curve"/>
      <point x="364.69473684210527" y="1298.3368421052633" type="line"/>
      <point x="367.7894736842106" y="1218.1684210526316"/>
      <point x="368.8842105263158" y="1191.4105263157896"/>
      <point x="371.9789473684211" y="1108.3368421052633" type="curve"/>
      <point x="371.9789473684211" y="916.3368421052631" type="line"/>
      <point x="369.43157894736845" y="830.7157894736843"/>
      <point x="368.8842105263158" y="809.0526315789474"/>
    </contour>
    <contour>
      <point x="573.1157894736842" y="585.4315789473684" type="curve"/>
      <point x="295.2421052631579" y="591.0736842105263"/>
      <point x="151.49473684210525" y="754.5684210526316"/>
      <point x="151.49473684210525" y="1000.1473684210526" type="curve" smooth="yes"/>
      <point x="151.49473684210525" y="1247.9368421052632"/>
      <point x="300.88421052631577" y="1409.7684210526315"/>
      <point x="569.4736842105264" y="1415.4105263157894" type="curve"/>
      <point x="839.1578947368421" y="1409.7684210526315"/>
      <point x="985.2842105263157" y="1249.2"/>
      <point x="985.2842105263157" y="1000.6947368421053" type="curve" smooth="yes"/>
      <point x="985.2842105263157" y="749.8105263157895"/>
      <point x="834.7789473684211" y="591.0736842105263"/>
    </contour>
    <contour>
      <point x="707.7473684210527" y="728.3368421052631" type="curve"/>
      <point x="831.1578947368421" y="728.3368421052631" type="line"/>
      <point x="794.2526315789473" y="774.5263157894736"/>
      <point x="745.1789473684211" y="836.3368421052631"/>
      <point x="699.9157894736842" y="893.4315789473684" type="curve"/>
      <point x="614.4842105263158" y="1006.5263157894736" type="line"/>
      <point x="580.2526315789473" y="969.4105263157895" type="line"/>
      <point x="721.8947368421053" y="969.4105263157895"/>
      <point x="774.2526315789473" y="1045.957894736842"/>
      <point x="774.2526315789473" y="1139.6" type="curve" smooth="yes"/>
      <point x="774.2526315789473" y="1253.2421052631578"/>
      <point x="696.2526315789473" y="1301.4315789473685"/>
      <point x="571.6631578947369" y="1301.4315789473685" type="curve"/>
      <point x="485.6421052631579" y="1301.4315789473685"/>
      <point x="417.2631578947368" y="1298.3368421052633"/>
      <point x="364.69473684210527" y="1298.3368421052633" type="curve"/>
      <point x="432.42105263157896" y="1222.4421052631578" type="line"/>
      <point x="568.021052631579" y="1222.4421052631578" type="line" smooth="yes"/>
      <point x="610.3578947368421" y="1222.4421052631578"/>
      <point x="681.7684210526315" y="1218.9894736842105"/>
      <point x="681.7684210526315" y="1133.0315789473684" type="curve" smooth="yes"/>
      <point x="681.7684210526315" y="1052.5263157894738"/>
      <point x="627.0736842105263" y="1027.8105263157895"/>
      <point x="545.8526315789474" y="1027.8105263157895" type="curve" smooth="yes"/>
      <point x="443.70526315789476" y="1027.8105263157895" type="line"/>
      <point x="443.70526315789476" y="961.0315789473684" type="line"/>
      <point x="575.8947368421053" y="961.0315789473684" type="line"/>
      <point x="520.7368421052631" y="995.978947368421" type="line"/>
      <point x="615.4315789473684" y="866.8842105263158" type="line"/>
      <point x="645.0526315789474" y="822.3368421052631"/>
      <point x="672.6736842105264" y="780.8842105263158"/>
    </contour>
  </outline>
</glyph>
<glyph name="degree" format="2">
  <advance width="956.7157894736843"/>
  <unicode hex="00B0"/>
  <outline>
    <contour>
      <point x="478.0842105263158" y="630.2736842105263" type="curve" smooth="yes"/>
      <point x="717.6210526315789" y="630.2736842105263"/>
      <point x="882.1894736842105" y="779.0105263157894"/>
      <point x="882.1894736842105" y="1012.3368421052631" type="curve" smooth="yes"/>
      <point x="882.1894736842105" y="1231.4526315789474"/>
      <point x="717.6210526315789" y="1397.4736842105262"/>
      <point x="480.0842105263158" y="1397.4736842105262" type="curve" smooth="yes"/>
      <point x="240.54736842105262" y="1397.4736842105262"/>
      <point x="74.52631578947368" y="1231.4526315789474"/>
      <point x="74.52631578947368" y="1012.3368421052631" type="curve" smooth="yes"/>
      <point x="74.52631578947368" y="779.0105263157894"/>
      <point x="240.54736842105262" y="630.2736842105263"/>
    </contour>
    <contour>
      <point x="478.0842105263158" y="756.8631578947368" type="curve"/>
      <point x="321.47368421052636" y="763.0526315789473"/>
      <point x="218.63157894736844" y="854.9894736842105"/>
      <point x="218.63157894736844" y="1011.2421052631579" type="curve" smooth="yes"/>
      <point x="218.63157894736844" y="1160.9473684210527"/>
      <point x="320.9263157894737" y="1264.6947368421054"/>
      <point x="480.0842105263158" y="1270.8842105263159" type="curve"/>
      <point x="637.7894736842105" y="1264.1473684210528"/>
      <point x="738.0842105263158" y="1159.3052631578948"/>
      <point x="738.0842105263158" y="1011.2421052631579" type="curve" smooth="yes"/>
      <point x="738.0842105263158" y="854.9894736842105"/>
      <point x="636.6947368421053" y="763.0526315789473"/>
    </contour>
  </outline>
</glyph>
<glyph name="plusminus" format="2">
  <advance width="1136.421052631579"/>
  <unicode hex="00B1"/>
  <outline>
    <contour>
      <point x="123.57894736842105" y="-7.28421052631579" type="line"/>
      <point x="248.8842105263158" y="-4.189473684210526"/>
      <point x="387.81052631578945" y="-1.0947368421052632"/>
      <point x="469.85263157894735" y="0.0" type="curve"/>
      <point x="666.5684210526316" y="0.0" type="line"/>
      <point x="748.6105263157895" y="-1.0947368421052632"/>
      <point x="887.5368421052632" y="-4.189473684210526"/>
      <point x="1012.8421052631579" y="-7.28421052631579" type="curve"/>
      <point x="1012.8421052631579" y="154.86315789473684" type="line"/>
      <point x="887.5368421052632" y="151.76842105263157"/>
      <point x="748.6105263157895" y="148.67368421052632"/>
      <point x="666.5684210526316" y="147.57894736842104" type="curve"/>
      <point x="469.85263157894735" y="147.57894736842104" type="line"/>
      <point x="387.81052631578945" y="148.67368421052632"/>
      <point x="248.8842105263158" y="151.76842105263157"/>
      <point x="123.57894736842105" y="154.86315789473684" type="curve"/>
    </contour>
    <contour>
      <point x="123.57894736842105" y="710.2105263157895" type="line"/>
      <point x="248.8842105263158" y="713.3052631578947"/>
      <point x="387.81052631578945" y="716.4"/>
      <point x="469.85263157894735" y="717.4947368421052" type="curve"/>
      <point x="666.5684210526316" y="717.4947368421052" type="line"/>
      <point x="748.6105263157895" y="716.4"/>
      <point x="887.5368421052632" y="713.3052631578947"/>
      <point x="1012.8421052631579" y="710.2105263157895" type="curve"/>
      <point x="1012.8421052631579" y="872.3578947368421" type="line"/>
      <point x="887.5368421052632" y="869.2631578947369"/>
      <point x="748.6105263157895" y="866.1684210526316"/>
      <point x="666.5684210526316" y="865.0736842105264" type="curve"/>
      <point x="469.85263157894735" y="865.0736842105264" type="line"/>
      <point x="387.81052631578945" y="866.1684210526316"/>
      <point x="248.8842105263158" y="869.2631578947369"/>
      <point x="123.57894736842105" y="872.3578947368421" type="curve"/>
    </contour>
    <contour>
      <point x="485.4947368421052" y="323.0736842105263" type="curve"/>
      <point x="650.9263157894736" y="323.0736842105263" type="line"/>
      <point x="647.8315789473684" y="448.37894736842105"/>
      <point x="644.7368421052631" y="587.3052631578948"/>
      <point x="643.6421052631579" y="669.3473684210526" type="curve"/>
      <point x="643.6421052631579" y="913.2210526315789" type="line"/>
      <point x="644.7368421052631" y="995.2631578947368"/>
      <point x="647.8315789473684" y="1134.1894736842105"/>
      <point x="650.9263157894736" y="1259.4947368421053" type="curve"/>
      <point x="485.4947368421052" y="1259.4947368421053" type="line"/>
      <point x="488.58947368421053" y="1134.1894736842105"/>
      <point x="491.6842105263158" y="995.2631578947368"/>
      <point x="492.77894736842103" y="913.2210526315789" type="curve"/>
      <point x="492.77894736842103" y="669.3473684210526" type="line"/>
      <point x="491.6842105263158" y="587.3052631578948"/>
      <point x="488.58947368421053" y="448.37894736842105"/>
    </contour>
  </outline>
</glyph>
<glyph name="micro" format="2">
  <advance width="1120.9894736842105"/>
  <unicode hex="00B5"/>
  <outline>
    <contour>
      <point x="134.04210526315788" y="-390.18947368421055" type="curve"/>
      <point x="330.2947368421053" y="-384.0" type="line"/>
      <point x="324.4631578947369" y="-237.2842105263158"/>
      <point x="319.72631578947374" y="-110.02105263157895"/>
      <point x="313.3473684210527" y="46.50526315789474" type="curve" smooth="yes"/>
      <point x="313.3473684210527" y="81.57894736842105" type="line"/>
      <point x="252.61052631578946" y="81.57894736842105" type="line"/>
      <point x="297.87368421052633" y="12.694736842105263"/>
      <point x="368.7578947368421" y="-21.83157894736842"/>
      <point x="475.2421052631579" y="-21.83157894736842" type="curve" smooth="yes"/>
      <point x="576.4842105263158" y="-21.83157894736842"/>
      <point x="731.4947368421052" y="94.10526315789474"/>
      <point x="809.6631578947369" y="179.4105263157895" type="curve"/>
      <point x="826.042105263158" y="179.4105263157895" type="line"/>
      <point x="870.757894736842" y="0.0" type="line"/>
      <point x="1030.9052631578948" y="0.0" type="line"/>
      <point x="1005.4526315789474" y="105.6842105263158"/>
      <point x="988.3578947368421" y="186.46315789473684"/>
      <point x="968.3578947368421" y="279.7684210526316" type="curve"/>
      <point x="969.8105263157895" y="543.0947368421052" type="line"/>
      <point x="970.9052631578948" y="715.4947368421052"/>
      <point x="972.9052631578948" y="839.6421052631579"/>
      <point x="974.0" y="992.3789473684211" type="curve"/>
      <point x="790.1473684210526" y="992.3789473684211" type="line"/>
      <point x="794.8842105263158" y="845.6631578947369"/>
      <point x="799.0736842105264" y="715.8526315789474"/>
      <point x="803.2631578947369" y="559.5157894736842" type="curve"/>
      <point x="803.2631578947369" y="313.2210526315789" type="line"/>
      <point x="698.4631578947368" y="213.6842105263158"/>
      <point x="569.6631578947369" y="131.38947368421054"/>
      <point x="509.5368421052632" y="131.38947368421054" type="curve" smooth="yes"/>
      <point x="361.3052631578948" y="131.38947368421054"/>
      <point x="313.3473684210527" y="217.70526315789476"/>
      <point x="313.3473684210527" y="387.2631578947368" type="curve"/>
      <point x="314.80000000000007" y="559.5157894736842" type="line"/>
      <point x="315.8947368421053" y="710.5684210526315"/>
      <point x="317.5368421052632" y="860.0631578947368"/>
      <point x="320.0842105263158" y="998.5684210526316" type="curve"/>
      <point x="132.94736842105263" y="992.3789473684211" type="line"/>
      <point x="138.2315789473684" y="845.6631578947369"/>
      <point x="142.42105263157893" y="716.9473684210526"/>
      <point x="148.25263157894736" y="543.0947368421052" type="curve"/>
      <point x="148.25263157894736" y="53.62105263157895" type="line"/>
      <point x="142.96842105263156" y="-110.02105263157895"/>
      <point x="138.77894736842103" y="-243.47368421052633"/>
    </contour>
  </outline>
</glyph>
<glyph name="paragraph" format="2">
  <advance width="1094.3578947368421"/>
  <unicode hex="00B6"/>
  <outline>
    <contour>
      <point x="443.4315789473684" y="599.1789473684211" type="curve" smooth="yes"/>
      <point x="483.9789473684211" y="599.1789473684211" type="line"/>
      <point x="483.9789473684211" y="1426.0" type="line"/>
      <point x="443.4315789473684" y="1426.0" type="line"/>
      <point x="215.57894736842104" y="1426.0"/>
      <point x="66.3157894736842" y="1255.9789473684211"/>
      <point x="66.3157894736842" y="1018.8631578947368" type="curve" smooth="yes"/>
      <point x="66.3157894736842" y="795.7473684210527"/>
      <point x="201.03157894736842" y="599.1789473684211"/>
    </contour>
    <contour>
      <point x="438.33684210526314" y="-426.6315789473684" type="curve"/>
      <point x="570.378947368421" y="-426.6315789473684" type="line"/>
      <point x="566.7368421052631" y="-150.63157894736844"/>
      <point x="563.0947368421052" y="155.3684210526316"/>
      <point x="562.5473684210526" y="231.36842105263162" type="curve"/>
      <point x="562.5473684210526" y="768.0" type="line"/>
      <point x="563.0947368421052" y="844.0"/>
      <point x="567.8315789473684" y="1150.0"/>
      <point x="572.021052631579" y="1426.0" type="curve"/>
      <point x="447.81052631578945" y="1426.0" type="line"/>
      <point x="447.81052631578945" y="1150.0"/>
      <point x="447.81052631578945" y="844.0"/>
      <point x="447.81052631578945" y="768.0" type="curve"/>
      <point x="447.81052631578945" y="231.36842105263162" type="line"/>
      <point x="447.2631578947368" y="155.3684210526316"/>
      <point x="442.52631578947364" y="-150.63157894736844"/>
    </contour>
    <contour>
      <point x="732.821052631579" y="-426.6315789473684" type="curve"/>
      <point x="864.8631578947369" y="-426.6315789473684" type="line"/>
      <point x="860.6736842105263" y="-150.63157894736844"/>
      <point x="855.9368421052632" y="155.3684210526316"/>
      <point x="855.3894736842105" y="231.36842105263162" type="curve"/>
      <point x="855.3894736842105" y="768.0" type="line"/>
      <point x="855.9368421052632" y="844.0"/>
      <point x="860.6736842105263" y="1150.0"/>
      <point x="864.8631578947369" y="1426.0" type="curve"/>
      <point x="731.1789473684211" y="1426.0" type="line"/>
      <point x="735.3684210526317" y="1150.0"/>
      <point x="740.1052631578948" y="844.0"/>
      <point x="740.6526315789474" y="768.0" type="curve"/>
      <point x="740.6526315789474" y="231.36842105263162" type="line"/>
      <point x="740.1052631578948" y="155.3684210526316"/>
      <point x="736.4631578947369" y="-150.63157894736844"/>
    </contour>
    <contour>
      <point x="496.8421052631579" y="1316.7368421052631" type="line"/>
      <point x="693.5578947368421" y="1316.7368421052631" type="line"/>
      <point x="775.5999999999999" y="1315.6421052631579"/>
      <point x="914.5263157894736" y="1312.5473684210526"/>
      <point x="1039.8315789473684" y="1309.4526315789474" type="curve"/>
      <point x="1039.8315789473684" y="1426.0" type="line"/>
      <point x="914.5263157894736" y="1426.0"/>
      <point x="775.5999999999999" y="1426.0"/>
      <point x="693.5578947368421" y="1426.0" type="curve"/>
      <point x="496.8421052631579" y="1426.0" type="line"/>
    </contour>
  </outline>
</glyph>
<glyph name="AE" format="2">
  <advance width="1950.2528735632186"/>
  <unicode hex="00C6"/>
  <anchor x="1036.9885057471265" y="0.0" name="bottom"/>
  <anchor x="1036.9885057471265" y="1426.0" name="top"/>
  <outline>
    <contour>
      <point x="21.24137931034483" y="0.0" type="curve"/>
      <point x="242.73563218390805" y="0.0" type="line"/>
      <point x="327.6091954022989" y="168.04597701149424"/>
      <point x="420.89655172413796" y="353.7011494252874"/>
      <point x="501.7701149425287" y="513.7471264367816" type="curve"/>
      <point x="910.0459770114943" y="1275.5402298850574" type="line"/>
      <point x="949.6091954022988" y="1275.5402298850574" type="line"/>
      <point x="1074.1379310344828" y="1275.5402298850574" type="line"/>
      <point x="1089.6781609195402" y="1426.0" type="line"/>
      <point x="794.3218390804598" y="1426.0" type="line"/>
      <point x="721.8850574712643" y="1282.8045977011495"/>
      <point x="651.8390804597701" y="1144.781609195402"/>
      <point x="567.0114942528736" y="976.4137931034483" type="curve"/>
      <point x="299.3103448275862" y="484.0" type="line"/>
      <point x="211.28735632183907" y="331.1954022988506"/>
      <point x="110.45977011494251" y="155.19540229885058"/>
    </contour>
    <contour>
      <point x="372.62068965517244" y="358.183908045977" type="line"/>
      <point x="1028.2298850574714" y="358.183908045977" type="line"/>
      <point x="1015.080459770115" y="500.6666666666667" type="line"/>
      <point x="388.1609195402299" y="500.6666666666667" type="line"/>
    </contour>
    <contour>
      <point x="934.0459770114943" y="0.0" type="curve"/>
      <point x="1140.735632183908" y="0.0" type="line"/>
      <point x="1140.735632183908" y="26.32183908045977" type="line"/>
      <point x="1135.1494252873563" y="184.73563218390805"/>
      <point x="1130.7586206896551" y="323.14942528735634"/>
      <point x="1125.1724137931035" y="498.3448275862069" type="curve"/>
      <point x="1125.1724137931035" y="923.6781609195402" type="line"/>
      <point x="1130.7586206896551" y="1101.2643678160919"/>
      <point x="1135.1494252873563" y="1237.6781609195402"/>
      <point x="1140.735632183908" y="1399.6781609195402" type="curve"/>
      <point x="1140.735632183908" y="1426.0" type="line"/>
      <point x="934.0459770114943" y="1426.0" type="line"/>
      <point x="938.4367816091954" y="1275.9540229885058"/>
      <point x="942.0229885057471" y="1129.9770114942528"/>
      <point x="947.6091954022988" y="950.0" type="curve"/>
      <point x="947.6091954022988" y="471.2183908045977" type="line"/>
      <point x="942.0229885057471" y="294.82758620689657"/>
      <point x="938.4367816091954" y="157.2183908045977"/>
    </contour>
    <contour>
      <point x="1102.4137931034484" y="0.0" type="line"/>
      <point x="1836.2068965517242" y="0.0" type="line"/>
      <point x="1836.2068965517242" y="171.60919540229884" type="line"/>
      <point x="1704.5747126436784" y="167.2183908045977"/>
      <point x="1491.6781609195402" y="159.632183908046"/>
      <point x="1364.4827586206898" y="155.24137931034483" type="curve"/>
      <point x="1102.4137931034484" y="155.24137931034483" type="line"/>
    </contour>
    <contour>
      <point x="1085.6781609195402" y="647.3793103448276" type="line"/>
      <point x="1361.7241379310346" y="647.3793103448276" type="line"/>
      <point x="1478.0919540229888" y="646.183908045977"/>
      <point x="1709.425287356322" y="641.7931034482758"/>
      <point x="1794.5977011494253" y="640.5977011494252" type="curve"/>
      <point x="1794.5977011494253" y="808.6206896551724" type="line"/>
      <point x="1674.16091954023" y="805.4252873563219"/>
      <point x="1531.3333333333335" y="802.2298850574713"/>
      <point x="1363.7241379310344" y="797.8390804597701" type="curve"/>
      <point x="1085.6781609195402" y="797.8390804597701" type="line"/>
    </contour>
    <contour>
      <point x="1094.0459770114942" y="1270.7586206896551" type="line"/>
      <point x="1350.5057471264367" y="1270.7586206896551" type="line"/>
      <point x="1494.0919540229886" y="1266.367816091954"/>
      <point x="1699.793103448276" y="1258.7816091954023"/>
      <point x="1833.4252873563219" y="1254.3908045977012" type="curve"/>
      <point x="1833.4252873563219" y="1426.0" type="line"/>
      <point x="1094.0459770114942" y="1426.0" type="line"/>
    </contour>
  </outline>
</glyph>
<glyph name="multiply" format="2">
  <advance width="1132.0842105263157"/>
  <unicode hex="00D7"/>
  <outline>
    <contour>
      <point x="896.6736842105263" y="152.79999999999998" type="curve"/>
      <point x="1010.9052631578948" y="267.0315789473685" type="line"/>
      <point x="919.7894736842105" y="353.05263157894734"/>
      <point x="819.4105263157894" y="449.78947368421046"/>
      <point x="760.6526315789474" y="507.4526315789474" type="curve"/>
      <point x="475.8315789473684" y="792.2736842105263" type="line"/>
      <point x="418.1684210526316" y="851.0315789473684"/>
      <point x="321.4315789473684" y="951.4105263157894"/>
      <point x="235.41052631578947" y="1042.5263157894738" type="curve"/>
      <point x="121.17894736842105" y="928.2947368421053" type="line"/>
      <point x="212.29473684210527" y="842.2736842105263"/>
      <point x="312.6736842105263" y="745.5368421052631"/>
      <point x="371.4315789473684" y="687.8736842105263" type="curve"/>
      <point x="656.2526315789473" y="403.05263157894734" type="line"/>
      <point x="713.9157894736842" y="344.29473684210524"/>
      <point x="810.6526315789474" y="243.9157894736842"/>
    </contour>
    <contour>
      <point x="235.41052631578947" y="152.79999999999998" type="line"/>
      <point x="321.4315789473684" y="243.9157894736842"/>
      <point x="418.1684210526316" y="344.29473684210524"/>
      <point x="475.8315789473684" y="403.05263157894734" type="curve"/>
      <point x="760.6526315789474" y="687.8736842105263" type="line"/>
      <point x="819.4105263157894" y="745.5368421052631"/>
      <point x="919.7894736842105" y="842.2736842105263"/>
      <point x="1010.9052631578948" y="928.2947368421053" type="curve"/>
      <point x="896.6736842105263" y="1042.5263157894738" type="line"/>
      <point x="810.6526315789474" y="951.4105263157894"/>
      <point x="713.9157894736842" y="851.0315789473684"/>
      <point x="656.2526315789473" y="792.2736842105263" type="curve"/>
      <point x="371.4315789473684" y="507.4526315789474" type="line"/>
      <point x="312.6736842105263" y="449.78947368421046"/>
      <point x="212.29473684210527" y="353.05263157894734"/>
      <point x="121.17894736842105" y="267.0315789473685" type="curve"/>
    </contour>
  </outline>
</glyph>
